<?xml version="1.0" encoding="UTF-8" standalone="no"?>
<svg
   xmlns:dc="http://purl.org/dc/elements/1.1/"
   xmlns:cc="http://creativecommons.org/ns#"
   xmlns:rdf="http://www.w3.org/1999/02/22-rdf-syntax-ns#"
   xmlns:svg="http://www.w3.org/2000/svg"
   xmlns="http://www.w3.org/2000/svg"
   xmlns:sodipodi="http://sodipodi.sourceforge.net/DTD/sodipodi-0.dtd"
   xmlns:inkscape="http://www.inkscape.org/namespaces/inkscape"
   version="1.1"
   id="svg922"
   width="60.000008"
   height="89.999977"
   viewBox="0 0 60.000008 89.999977"
   sodipodi:docname="colmeia.svg"
   inkscape:version="1.0.2 (e86c870879, 2021-01-15)">
  <metadata
     id="metadata928">
    <rdf:RDF>
      <cc:Work
         rdf:about="">
        <dc:format>image/svg+xml</dc:format>
        <dc:type
           rdf:resource="http://purl.org/dc/dcmitype/StillImage" />
        <dc:title></dc:title>
      </cc:Work>
    </rdf:RDF>
  </metadata>
  <defs
     id="defs926">
    <inkscape:path-effect
       effect="bspline"
       id="path-effect1090"
       is_visible="true"
       lpeversion="1"
       weight="33.333333"
       steps="2"
       helper_size="0"
       apply_no_weight="true"
       apply_with_weight="true"
       only_selected="false" />
    <inkscape:path-effect
       effect="bspline"
       id="path-effect1086"
       is_visible="true"
       lpeversion="1"
       weight="33.333333"
       steps="2"
       helper_size="0"
       apply_no_weight="true"
       apply_with_weight="true"
       only_selected="false" />
    <inkscape:path-effect
       effect="spiro"
       id="path-effect1076"
       is_visible="true"
       lpeversion="1" />
    <inkscape:path-effect
       effect="spiro"
       id="path-effect1072"
       is_visible="true"
       lpeversion="1" />
    <inkscape:path-effect
       effect="spiro"
       id="path-effect1068"
       is_visible="true"
       lpeversion="1" />
    <inkscape:path-effect
       effect="spiro"
       id="path-effect1064"
       is_visible="true"
       lpeversion="1" />
    <inkscape:path-effect
       effect="spiro"
       id="path-effect1060"
       is_visible="true"
       lpeversion="1" />
    <inkscape:path-effect
       effect="spiro"
       id="path-effect1052"
       is_visible="true"
       lpeversion="1" />
    <inkscape:path-effect
       effect="spiro"
       id="path-effect1050"
       is_visible="true"
       lpeversion="1" />
    <inkscape:path-effect
       effect="spiro"
       id="path-effect1016"
       is_visible="true"
       lpeversion="1" />
    <inkscape:path-effect
       effect="spiro"
       id="path-effect1004"
       is_visible="true"
       lpeversion="1" />
    <inkscape:path-effect
       effect="spiro"
       id="path-effect992"
       is_visible="true"
       lpeversion="1" />
    <inkscape:path-effect
       effect="spiro"
       id="path-effect988"
       is_visible="true"
       lpeversion="1" />
    <inkscape:path-effect
       effect="spiro"
       id="path-effect964"
       is_visible="true"
       lpeversion="1" />
  </defs>
  <sodipodi:namedview
     pagecolor="#ffffff"
     bordercolor="#666666"
     borderopacity="1"
     objecttolerance="10"
     gridtolerance="10"
     guidetolerance="10"
     inkscape:pageopacity="0"
     inkscape:pageshadow="2"
     inkscape:window-width="1600"
     inkscape:window-height="883"
     id="namedview924"
     showgrid="false"
     inkscape:snap-global="false"
     inkscape:zoom="4.7582394"
     inkscape:cx="104.21591"
     inkscape:cy="47.404319"
     inkscape:window-x="0"
     inkscape:window-y="17"
     inkscape:window-maximized="0"
     inkscape:current-layer="g930"
     fit-margin-top="0"
     fit-margin-left="0"
     fit-margin-right="0"
     fit-margin-bottom="0"
     inkscape:document-rotation="0" />
  <g
     inkscape:groupmode="layer"
     inkscape:label="Image"
     id="g930"
     transform="translate(129.72422,202.9962)">
    <g
       id="g880"
       transform="matrix(0.17053541,0,0,0.15368515,-130.82705,-197.83043)"
       style="fill:#ffca02;fill-opacity:1">
      <path
         fill="#00aeef"
         d="m 182.9,551.7 c 0,0.1 0.2,0.3 0.2,0.3 0,0 175.2,-269 175.2,-357.4 C 358.3,64.5 269.5,7.9 182.9,7.7 96.3,7.9 7.5,64.5 7.5,194.6 7.5,283 182.8,552 182.8,552 c 0,0 0.1,-0.3 0.1,-0.3 z M 122.2,187.2 c 0,-33.6 27.2,-60.8 60.8,-60.8 33.6,0 60.8,27.2 60.8,60.8 0,33.6 -27.3,60.8 -60.9,60.8 -33.5,0 -60.7,-27.2 -60.7,-60.8 z"
         id="path878"
         style="fill:#ffca02;fill-opacity:1" />
    </g>
    <path
       id="path1311"
       style="opacity:1;fill:#c7711b;fill-opacity:1;stroke-width:0.210162"
       sodipodi:type="inkscape:offset"
       inkscape:radius="0.4561379"
       inkscape:original="M 48.28125 4.3320312 C 48.113396 4.2299912 40.852369 10.561036 27.621094 22.349609 C 16.40064 32.346614 7.2171521 40.585573 7.2148438 40.658203 C 7.2125353 40.730831 8.1726315 41.824306 9.3476562 43.087891 C 10.522681 44.351474 11.570542 45.384766 11.675781 45.384766 C 11.78102 45.384766 20.018464 38.246312 29.980469 29.519531 C 47.931112 13.794653 48.095763 13.655337 48.525391 14.041016 C 54.330998 19.252769 84.670563 45.371325 84.773438 45.246094 C 84.852922 45.149334 85.712674 44.172314 86.683594 43.074219 C 87.654514 41.976124 88.627059 40.87481 88.84375 40.626953 L 89.236328 40.175781 L 79.921875 32.003906 C 56.928461 11.830782 48.521854 4.4782966 48.28125 4.3320312 z "
       d="m 48.279297,3.875 c -0.05731,-3.255e-4 -0.09431,0.00833 -0.123047,0.015625 -0.05747,0.014581 -0.08521,0.028209 -0.111328,0.041016 -0.05225,0.025612 -0.08915,0.048437 -0.13086,0.076172 -0.08342,0.055471 -0.179964,0.1279363 -0.304687,0.2246094 -0.249446,0.193346 -0.600802,0.4816498 -1.058594,0.8652343 -0.915583,0.7671691 -2.253763,1.9166504 -4,3.4394532 -3.492473,3.0456056 -8.616123,7.5777806 -15.232422,13.4726566 -5.610547,4.998788 -10.712797,9.557975 -14.412109,12.876953 -1.849656,1.659489 -3.3491272,3.007545 -4.3867188,3.947265 -0.5187957,0.469861 -0.9221434,0.838309 -1.1972656,1.091797 -0.1375611,0.126744 -0.2427323,0.224771 -0.3164062,0.294922 -0.036837,0.03507 -0.063673,0.0614 -0.087891,0.08594 -0.012109,0.01227 -0.023935,0.02385 -0.039063,0.04102 -0.00756,0.0086 -0.015375,0.01723 -0.03125,0.03906 -0.00794,0.01091 -0.032914,0.0522 -0.033203,0.05273 -2.888e-4,5.33e-4 -0.054678,0.204795 -0.054687,0.205078 -1.8e-5,5.68e-4 7.816e-4,0.05827 0.00391,0.08008 0.00312,0.02181 0.00778,0.03979 0.011719,0.05469 0.00788,0.02979 0.014582,0.05002 0.021484,0.06641 0.013805,0.03278 0.025204,0.05133 0.035156,0.06836 0.019904,0.03406 0.035639,0.05754 0.054688,0.08398 0.038098,0.05288 0.085387,0.11152 0.1425781,0.181641 0.1143821,0.14024 0.2713705,0.324262 0.4667969,0.546874 0.3908526,0.445225 0.9275724,1.037402 1.5175781,1.671876 0.5913348,0.635902 1.1493561,1.213769 1.5781251,1.636718 0.214384,0.211475 0.396962,0.383651 0.539062,0.509766 0.07105,0.06306 0.130422,0.11399 0.189453,0.158203 0.02952,0.02211 0.05727,0.04326 0.09766,0.06641 0.04039,0.02315 0.06463,0.07227 0.257812,0.07227 4.11e-4,0 0.117097,-0.01438 0.144531,-0.02344 0.02744,-0.0091 0.04364,-0.01721 0.05664,-0.02344 0.02599,-0.01246 0.03953,-0.02037 0.05078,-0.02734 0.02251,-0.01395 0.03433,-0.02463 0.04883,-0.03516 0.029,-0.02105 0.05871,-0.0429 0.0957,-0.07227 0.07399,-0.05874 0.173921,-0.14074 0.302734,-0.248047 0.257625,-0.214614 0.629449,-0.528202 1.101562,-0.93164 0.944227,-0.806877 2.293787,-1.972032 3.953126,-3.410157 3.318676,-2.876249 7.870055,-6.843199 12.851562,-11.207031 8.975304,-7.862423 13.506207,-11.830323 15.833984,-13.773437 1.163889,-0.971557 1.790142,-1.441837 2.082032,-1.609375 0.0933,-0.05355 0.07437,-0.04262 0.08398,-0.04687 2.942553,2.639896 11.909575,10.411884 20.208984,17.55664 4.162151,3.583093 8.145156,7.000354 11.095704,9.513672 1.475273,1.256659 2.692214,2.286015 3.544921,3 0.426354,0.356993 0.762968,0.635414 0.996094,0.824219 0.116563,0.0944 0.206943,0.1669 0.275391,0.21875 0.03422,0.02593 0.06132,0.04498 0.09375,0.06641 0.01621,0.01071 0.03038,0.02229 0.06836,0.04102 0.01899,0.0094 0.102194,0.0368 0.103516,0.03711 0.0013,3.09e-4 0.456629,-0.155761 0.457031,-0.15625 0.0057,-0.0069 0.265471,-0.304088 0.611328,-0.697265 0.345857,-0.393178 0.803814,-0.91213 1.289063,-1.460938 0.971045,-1.098237 1.940973,-2.196277 2.162109,-2.449219 a 0.45618351,0.45618351 0 0 0 0,-0.002 l 0.392578,-0.451172 a 0.45618351,0.45618351 0 0 0 -0.04297,-0.642578 L 80.222656,31.660156 C 68.725885,21.573538 60.875458,14.69286 55.869141,10.314453 53.365982,8.1252496 51.574708,6.5610096 50.392578,5.5351562 49.801513,5.0222296 49.362023,4.6445844 49.0625,4.3886719 48.912738,4.2607156 48.79819,4.1630076 48.714844,4.09375 c -0.04167,-0.034629 -0.07547,-0.06168 -0.103516,-0.083984 -0.02805,-0.022304 -0.03098,-0.030202 -0.09375,-0.068359 -6.56e-4,-3.985e-4 -0.09418,-0.045272 -0.134766,-0.054687 C 48.34223,3.8773034 48.30795,3.8751628 48.279297,3.875 Z"
       transform="matrix(0.70052076,0,0,0.63130367,-133.5391,-204.6303)" />
    <path
       id="path1325"
       style="opacity:1;fill:#505050;fill-opacity:1;stroke-width:0.210162"
       sodipodi:type="inkscape:offset"
       inkscape:radius="0.27248853"
       inkscape:original="M 47.439453 28.537109 C 46.809463 28.642406 46.17436 28.935054 45.597656 29.441406 C 44.754972 30.181293 44.354493 31.366501 44.566406 32.496094 C 44.744438 33.44509 45.948635 34.812866 46.830078 35.068359 C 47.870949 35.370063 48.281625 35.329214 49.28125 34.824219 C 50.554941 34.18077 51.167016 33.216303 51.166016 31.851562 C 51.164354 29.582896 49.329422 28.221219 47.439453 28.537109 z "
       d="m 48.154297,28.224609 c -0.250248,-0.01329 -0.504286,2.68e-4 -0.759766,0.04297 -0.681589,0.113921 -1.36444,0.431301 -1.976562,0.96875 -0.918936,0.806837 -1.348894,2.085857 -1.119141,3.310547 0.10517,0.560608 0.475606,1.157655 0.931641,1.675781 0.456034,0.518127 0.989704,0.952715 1.523437,1.107422 1.065595,0.308871 1.629235,0.254154 2.650391,-0.261719 1.340146,-0.677021 2.036216,-1.770489 2.035156,-3.216797 -0.0015,-2.113575 -1.533422,-3.533926 -3.285156,-3.626953 z"
       transform="matrix(0.70052076,0,0,0.63130367,-133.5391,-204.6303)" />
    <path
       id="path1313"
       style="opacity:1;fill:#c7711b;fill-opacity:1;stroke-width:0.210162"
       sodipodi:type="inkscape:offset"
       inkscape:radius="0.29504848"
       inkscape:original="M 48.052734 40.552734 C 42.011519 40.552734 41.745069 40.56967 41.212891 40.988281 C 40.535393 41.521201 40.473381 42.469475 41.078125 43.074219 C 41.48037 43.476463 41.778872 43.494141 48.013672 43.494141 C 54.248471 43.494141 54.546974 43.476464 54.949219 43.074219 C 55.517228 42.506208 55.478328 41.693172 54.853516 41.068359 L 54.337891 40.552734 L 48.052734 40.552734 z "
       d="m 48.052734,40.257812 c -3.020883,0 -4.594452,0.0026 -5.503906,0.06055 -0.454727,0.02895 -0.748081,0.07024 -0.980469,0.142579 -0.232388,0.07234 -0.395421,0.18347 -0.537109,0.294921 -0.8043,0.632663 -0.883033,1.806421 -0.162109,2.527344 0.112699,0.112699 0.270767,0.234545 0.496093,0.306641 0.225326,0.07209 0.514226,0.112657 0.976563,0.140625 0.924675,0.05593 2.554196,0.05859 5.671875,0.05859 3.117678,10e-7 4.7472,-0.0027 5.671875,-0.05859 0.462337,-0.02797 0.751236,-0.06853 0.976562,-0.140625 0.225327,-0.0721 0.383395,-0.193942 0.496094,-0.306641 0.336157,-0.336158 0.505152,-0.769955 0.484375,-1.205078 -0.02078,-0.435123 -0.22459,-0.863262 -0.580078,-1.21875 L 54.546875,40.34375 a 0.29507798,0.29507798 0 0 0 -0.208984,-0.08594 z"
       transform="matrix(0.70052076,0,0,0.63130367,-133.5391,-204.6303)" />
    <path
       id="path1327"
       style="opacity:1;fill:#eba600;fill-opacity:1;stroke-width:0.210162"
       sodipodi:type="inkscape:offset"
       inkscape:radius="0.31119502"
       inkscape:original="M 48.128906 58.416016 C 25.80718 58.416016 25.520581 58.420825 25.105469 58.835938 C 24.503548 59.437858 24.561856 60.388549 25.232422 60.916016 C 25.775481 61.343183 25.932965 61.347469 48.251953 61.355469 L 70.724609 61.363281 L 71.244141 60.84375 C 71.901218 60.186634 71.901399 59.586946 71.246094 58.931641 L 70.730469 58.416016 L 48.128906 58.416016 z "
       d="m 48.128906,58.105469 c -11.160885,0 -16.811424,-4.89e-4 -19.732422,0.05273 -1.460499,0.02661 -2.234891,0.06597 -2.699218,0.128906 -0.232164,0.03147 -0.390845,0.06898 -0.523438,0.126953 -0.132593,0.05797 -0.230949,0.143059 -0.289062,0.201172 -0.724877,0.724876 -0.652195,1.910537 0.154296,2.544922 0.141311,0.111154 0.36823,0.247798 0.837891,0.3125 0.469661,0.0647 1.241056,0.103054 2.693359,0.13086 2.904607,0.05561 8.522127,0.0585 19.681641,0.0625 l 22.472656,0.0078 a 0.31122614,0.31122614 0 0 0 0.220703,-0.08984 l 0.519532,-0.519531 c 0.361997,-0.362018 0.583625,-0.755363 0.583984,-1.177734 3.59e-4,-0.422372 -0.220806,-0.814557 -0.582031,-1.175781 l -0.515625,-0.515626 a 0.31122614,0.31122614 0 0 0 -0.220703,-0.08984 z"
       transform="matrix(0.70052076,0,0,0.63130367,-133.5391,-204.6303)" />
    <path
       id="path1329"
       style="opacity:1;fill:#eba600;fill-opacity:1;stroke-width:0.210162"
       sodipodi:type="inkscape:offset"
       inkscape:radius="0.42361477"
       inkscape:original="M 25.927734 72.496094 L 25.412109 73.011719 C 24.75857 73.66528 24.75712 74.268839 25.408203 74.919922 L 25.919922 75.431641 L 48.523438 75.4375 C 70.881692 75.442801 71.133305 75.437007 71.550781 75.019531 C 72.157101 74.413211 72.09617 73.465113 71.417969 72.931641 C 70.865601 72.497164 70.809053 72.496094 48.396484 72.496094 L 25.927734 72.496094 z "
       d="m 25.927734,72.072266 a 0.42365713,0.42365713 0 0 0 -0.298828,0.125 l -0.515625,0.515625 c -0.372762,0.372774 -0.614252,0.793252 -0.615234,1.253906 -9.82e-4,0.460654 0.239396,0.880021 0.611328,1.251953 l 0.511719,0.511719 a 0.42365713,0.42365713 0 0 0 0.298828,0.125 l 22.603516,0.0059 c 11.179163,0.0027 16.830161,0.0024 19.75,-0.05078 1.459919,-0.02658 2.231598,-0.064 2.705078,-0.128906 0.236739,-0.03245 0.403577,-0.07149 0.550781,-0.136719 0.147204,-0.06523 0.260779,-0.167029 0.320312,-0.226563 0.772484,-0.772483 0.690284,-2.042113 -0.169921,-2.71875 -0.140787,-0.110738 -0.40566,-0.270754 -0.88086,-0.33789 -0.4752,-0.06714 -1.237984,-0.107379 -2.685547,-0.134766 -2.895126,-0.05477 -8.510505,-0.05469 -19.716797,-0.05469 z"
       transform="matrix(0.70052076,0,0,0.63130367,-133.5391,-204.6303)" />
    <path
       id="path1331"
       style="opacity:1;fill:#f7c15a;fill-opacity:1;stroke-width:0.210162"
       sodipodi:type="inkscape:offset"
       inkscape:radius="0.46200603"
       inkscape:original="M 47.677734 15.712891 C 47.42442 15.907646 40.444672 22.004113 32.167969 29.259766 L 17.119141 42.451172 L 17.119141 62.816406 L 17.119141 83.181641 L 17.664062 83.828125 C 17.963311 84.183761 18.370574 84.474609 18.568359 84.474609 C 18.766144 84.474609 19.022071 84.568947 19.136719 84.683594 C 19.268485 84.815361 23.86477 84.913829 31.630859 84.949219 C 75.38075 85.148562 77.066327 85.138875 77.806641 84.6875 C 78.183362 84.45781 78.678513 83.960705 78.908203 83.583984 C 79.311034 82.923273 79.325365 82.535113 79.296875 72.601562 C 79.280627 66.937703 79.210645 57.781076 79.140625 52.253906 L 79.013672 42.205078 L 63.576172 28.78125 C 48.371712 15.561122 48.13136 15.36413 47.677734 15.712891 z M 47.591797 27.302734 C 48.90181 27.24259 50.252797 27.70553 51.207031 28.710938 C 53.304253 30.920627 52.518914 34.893902 49.753906 36.0625 C 48.71434 36.50186 46.802402 36.424219 45.744141 35.900391 C 43.299214 34.69018 42.557898 31.334777 44.226562 29.03125 C 45.01276 27.945937 46.281784 27.362879 47.591797 27.302734 z M 53.261719 39.333984 C 54.242146 39.367649 54.554625 39.468781 54.996094 39.664062 C 56.905283 40.508587 57.15457 42.975549 55.464844 44.304688 C 54.888126 44.758333 54.773715 44.765074 48.09375 44.746094 C 41.454902 44.727238 41.294393 44.716772 40.619141 44.261719 C 39.431298 43.461232 39.054185 42.034336 39.701172 40.783203 C 40.316175 39.593916 40.426694 39.57515 47.521484 39.408203 C 50.634184 39.33496 52.281291 39.30032 53.261719 39.333984 z M 48.107422 57.154297 C 73.360208 57.154297 71.791978 57.054699 72.59375 58.710938 C 72.830182 59.199338 73.023438 59.709201 73.023438 59.84375 C 73.023438 60.427143 72.315793 61.779808 71.851562 62.083984 C 71.573266 62.266331 70.9433 62.443663 70.451172 62.476562 C 69.959045 62.509422 59.550674 62.506213 47.322266 62.470703 C 27.115998 62.412015 25.039757 62.374537 24.560547 62.060547 C 23.420628 61.313642 23.101329 59.685609 23.851562 58.455078 C 24.684676 57.088604 23.459887 57.154297 48.107422 57.154297 z M 48.666016 71.285156 C 70.019093 71.338371 71.273712 71.361512 71.935547 71.722656 C 73.706959 72.689263 73.583385 75.443087 71.724609 76.404297 C 71.089036 76.732963 69.351426 76.753944 48.537109 76.677734 C 36.161787 76.632419 25.854761 76.559588 25.632812 76.517578 C 24.617918 76.325479 23.634766 75.070781 23.634766 73.966797 C 23.634766 73.054478 24.277513 72.1083 25.199219 71.662109 C 26.088545 71.231595 26.241278 71.229276 48.666016 71.285156 z "
       d="m 47.855469,15.169922 c -0.20947,0.0057 -0.386136,0.119773 -0.458985,0.175781 -0.08696,0.06686 -0.187834,0.157199 -0.419922,0.357422 -0.232087,0.200223 -0.558858,0.483482 -0.96875,0.839844 -0.819783,0.712724 -1.97511,1.719421 -3.380859,2.947265 -2.811499,2.455689 -6.625144,5.793895 -10.763672,9.421875 L 16.814453,42.103516 a 0.46205223,0.46205223 0 0 0 -0.158203,0.347656 v 20.365234 20.365235 a 0.46205223,0.46205223 0 0 0 0.109375,0.296875 L 17.310547,84.125 c 0.176154,0.209347 0.374468,0.3924 0.574219,0.535156 0.19975,0.142756 0.358237,0.277344 0.683593,0.277344 0.05088,0 0.281021,0.111099 0.242188,0.07227 0.120278,0.120279 0.170871,0.11365 0.212891,0.126953 0.04202,0.0133 0.0727,0.01929 0.105468,0.02539 0.06554,0.0122 0.134791,0.02089 0.21875,0.0293 0.167918,0.01682 0.392117,0.03056 0.681641,0.04492 0.579048,0.02872 1.411938,0.05532 2.482422,0.07813 2.140968,0.04561 5.232606,0.07995 9.117187,0.09766 21.875007,0.09967 33.232277,0.145287 39.220703,0.111329 2.994214,-0.01698 4.64314,-0.05251 5.611329,-0.115235 0.484094,-0.03136 0.798677,-0.06798 1.039062,-0.119141 0.240385,-0.05116 0.421382,-0.130517 0.546875,-0.207031 0.476061,-0.290258 0.966577,-0.783352 1.255859,-1.257812 0.110541,-0.181306 0.225843,-0.414217 0.292969,-0.746094 0.06713,-0.331877 0.105308,-0.771252 0.130859,-1.492187 0.0511,-1.441871 0.04745,-4.019314 0.0332,-8.986329 -0.01626,-5.666236 -0.0862,-14.821828 -0.15625,-20.351562 L 79.476562,42.199219 a 0.46205223,0.46205223 0 0 0 -0.160156,-0.34375 L 63.878906,28.431641 C 56.276624,21.821531 52.418729,18.471349 50.388672,16.802734 49.373643,15.968427 48.828763,15.555451 48.435547,15.341797 48.238939,15.23497 48.064938,15.164216 47.855469,15.169922 Z m -0.242188,12.59375 c 1.186975,-0.05449 2.404721,0.366783 3.257813,1.265625 1.867207,1.967339 1.151131,5.572801 -1.296875,6.607422 -0.417242,0.176342 -1.108551,0.272087 -1.798828,0.24414 -0.690277,-0.02795 -1.388047,-0.177663 -1.826172,-0.394531 -2.173923,-1.076067 -2.85314,-4.105331 -1.347657,-6.183594 0.693753,-0.957695 1.824704,-1.484564 3.011719,-1.539062 z m 5.632813,12.03125 c 0.952077,0.03269 1.140824,0.10449 1.5625,0.291016 0.809195,0.357945 1.238473,1.030912 1.3125,1.763671 0.07403,0.732759 -0.214392,1.519927 -0.941406,2.091797 -0.138783,0.109166 -0.18269,0.144433 -0.314454,0.1875 -0.131763,0.04307 -0.373523,0.0863 -0.824218,0.113282 -0.901391,0.05396 -2.605493,0.05051 -5.945313,0.04102 -3.319192,-0.0094 -5.023903,-0.01645 -5.945312,-0.07617 -0.460705,-0.02986 -0.719002,-0.07481 -0.876953,-0.123047 -0.157952,-0.04823 -0.234025,-0.0956 -0.396485,-0.205078 -1.014424,-0.68362 -1.313131,-1.824053 -0.765625,-2.882812 0.151385,-0.292747 0.243173,-0.448316 0.367188,-0.550782 0.124014,-0.102465 0.327619,-0.197279 0.783203,-0.277343 0.911168,-0.160129 2.72444,-0.215363 6.271484,-0.298828 3.112293,-0.07323 4.761061,-0.106901 5.712891,-0.07422 z m -5.138672,17.822266 c 12.627,-10e-7 18.56094,-0.02315 21.382812,0.15625 1.410937,0.0897 2.028365,0.253568 2.246094,0.388671 0.108865,0.06755 0.143644,0.113201 0.203125,0.22461 0.05948,0.111409 0.125587,0.292595 0.238281,0.52539 0.112254,0.231884 0.215185,0.472447 0.28711,0.66211 0.03596,0.09483 0.06523,0.177118 0.08203,0.234375 0.0168,0.05726 0.01367,0.112117 0.01367,0.03516 0,0.104895 -0.141522,0.597051 -0.357422,1.009766 -0.2159,0.412714 -0.545936,0.804743 -0.605469,0.84375 -0.125809,0.08243 -0.76967,0.29108 -1.177734,0.318359 -0.0073,4.85e-4 -0.251377,0.0068 -0.605469,0.0098 -0.354091,0.003 -0.849228,0.0059 -1.466797,0.0078 -1.235137,0.0038 -2.964766,0.0045 -5.060547,0.0039 -4.19156,-0.0011 -9.849026,-0.01154 -15.96289,-0.0293 -10.102895,-0.02934 -15.674311,-0.0516 -18.771485,-0.107421 -1.548587,-0.02791 -2.481899,-0.06464 -3.037109,-0.111329 -0.55521,-0.04669 -0.705767,-0.118245 -0.701172,-0.115234 -0.915575,-0.599909 -1.193978,-1.952377 -0.568359,-2.978516 0.116807,-0.191586 0.187308,-0.333011 0.248047,-0.416015 0.06074,-0.08301 0.100976,-0.124398 0.232421,-0.1875 0.262891,-0.126205 0.925816,-0.261642 2.347657,-0.337891 2.843682,-0.152498 8.709025,-0.136718 21.033203,-0.136718 z m 0.55664,14.130859 c 10.676395,0.02661 16.329944,0.04415 19.386719,0.101562 1.528388,0.02871 2.410811,0.06806 2.927735,0.119141 0.516924,0.05108 0.622924,0.09828 0.736328,0.160156 1.439602,0.785548 1.343265,3.065566 -0.203125,3.865235 -0.16876,0.08727 -0.710668,0.199619 -3.81836,0.236328 -3.107692,0.03671 -8.74734,0.02248 -19.154297,-0.01563 -6.187224,-0.02266 -11.857157,-0.05096 -16.007812,-0.08008 -2.075328,-0.01456 -3.77129,-0.02954 -4.960938,-0.04297 -0.594823,-0.0067 -1.06357,-0.01347 -1.388671,-0.01953 -0.162551,-0.003 -0.289881,-0.0051 -0.376953,-0.0078 -0.04093,-0.0013 -0.07069,-0.0029 -0.0918,-0.0039 -0.352561,-0.06891 -0.778216,-0.356448 -1.095703,-0.761719 -0.319163,-0.407409 -0.519532,-0.917185 -0.519532,-1.332031 0,-0.695324 0.535769,-1.517389 1.302735,-1.888672 0.217809,-0.10544 0.290851,-0.149653 0.74414,-0.205078 0.453289,-0.05542 1.247954,-0.09552 2.71875,-0.119141 2.941594,-0.04724 8.588431,-0.0338 19.800781,-0.0059 z"
       transform="matrix(0.70052076,0,0,0.63130367,-133.5391,-204.6303)" />
    <path
       id="path1317"
       style="opacity:1;fill:#c7711b;fill-opacity:1;stroke-width:0.210162"
       sodipodi:type="inkscape:offset"
       inkscape:radius="0.45625776"
       inkscape:original="M 25.105469 86.15625 L 25.105469 86.957031 C 25.105469 87.90442 26.043485 89.020888 26.957031 89.160156 C 27.88698 89.301926 29.574302 89.07788 30.359375 88.708984 C 31.046723 88.386008 31.100796 88.290788 31.160156 87.259766 L 31.222656 86.15625 L 28.164062 86.15625 L 25.105469 86.15625 z "
       d="m 25.105469,85.699219 a 0.45630339,0.45630339 0 0 0 -0.457031,0.457031 v 0.800781 c 0,0.624276 0.287682,1.216835 0.691406,1.697266 0.403724,0.480431 0.935483,0.863528 1.548828,0.957031 1.082034,0.164955 2.715606,-0.04457 3.664062,-0.490234 0.355126,-0.166869 0.66048,-0.32281 0.841797,-0.650391 0.181318,-0.32758 0.190613,-0.662904 0.220703,-1.185547 l 0.0625,-1.103515 a 0.45630339,0.45630339 0 0 0 -0.455078,-0.482422 h -3.058594 z"
       transform="matrix(0.70052076,0,0,0.63130367,-133.5391,-204.6303)" />
    <path
       id="path1315"
       style="opacity:1;fill:#c7711b;fill-opacity:1;stroke-width:0.210162"
       sodipodi:type="inkscape:offset"
       inkscape:radius="0.46566084"
       inkscape:original="M 65.201172 86.367188 L 65.339844 87.154297 C 65.577291 88.494073 65.677746 88.674807 66.259766 88.802734 C 66.569932 88.870908 66.917614 88.963906 67.033203 89.009766 C 67.428711 89.166696 69.867166 88.906208 70.341797 88.65625 C 70.995695 88.311882 71.125206 88.065033 71.128906 87.154297 L 71.130859 86.367188 L 68.166016 86.367188 L 65.201172 86.367188 z "
       d="m 65.201172,85.902344 a 0.46570741,0.46570741 0 0 0 -0.458984,0.544922 l 0.138671,0.787109 a 0.46570741,0.46570741 0 0 0 0,0.002 c 0.120065,0.677456 0.19091,1.079815 0.382813,1.423828 0.191903,0.344013 0.566053,0.525028 0.896484,0.597656 0.294707,0.06478 0.682525,0.178149 0.701172,0.185547 0.292396,0.116018 0.488036,0.08479 0.798828,0.07813 0.310793,-0.0067 0.677105,-0.03276 1.046875,-0.07227 0.36977,-0.03951 0.742007,-0.092 1.060547,-0.152344 0.318541,-0.06034 0.556409,-0.104963 0.791016,-0.228516 0.356323,-0.187653 0.65818,-0.398962 0.833984,-0.734375 0.175804,-0.335412 0.199233,-0.700464 0.201172,-1.177734 l 0.002,-0.787109 a 0.46570741,0.46570741 0 0 0 -0.464844,-0.466797 h -2.964843 z"
       transform="matrix(0.70052076,0,0,0.63130367,-133.5391,-204.6303)" />
    <path
       style="fill:none;stroke:#000000;stroke-width:0.664987px;stroke-linecap:butt;stroke-linejoin:miter;stroke-opacity:1"
       d="m -129.22165,-178.98973 29.375041,-23.58142 29.44919,23.26824 -3.829061,3.90065 -25.624222,-20.08388 -25.557138,20.17681 z"
       id="path956" />
    <path
       style="fill:none;stroke:#000000;stroke-width:0.664987px;stroke-linecap:butt;stroke-linejoin:miter;stroke-opacity:1"
       d="m -100.11872,-187.0539 c -0.64384,0.0615 -1.25942,0.38074 -1.6806,0.87157 -0.42117,0.49084 -0.64323,1.14777 -0.60622,1.79347 0.037,0.64571 0.33266,1.27297 0.80715,1.71248 0.47449,0.4395 1.12252,0.68633 1.769168,0.67386 0.326807,-0.006 0.652257,-0.0767 0.952473,-0.20595 0.548406,-0.23615 1.007718,-0.67305 1.270991,-1.20896 0.263274,-0.53591 0.328362,-1.16648 0.180109,-1.74487 -0.148252,-0.57839 -0.508636,-1.0999 -0.99724,-1.44309 -0.488605,-0.34319 -1.101445,-0.50528 -1.695831,-0.44851 z"
       id="path962"
       inkscape:path-effect="#path-effect964"
       inkscape:original-d="m -100.11872,-187.0539 c -0.41474,-1.61583 0.193678,3.36819 0.289498,5.05138 0.09583,1.68314 0.635695,-0.13671 0.952473,-0.20595 0.316779,-0.0693 -0.827337,-3.2297 -1.241971,-4.84543 z" />
    <path
       style="fill:none;stroke:#000000;stroke-width:0.664987px;stroke-linecap:butt;stroke-linejoin:miter;stroke-opacity:1"
       d="m -103.98086,-179.37905 c -0.35472,-0.0114 -0.71182,0.1296 -0.96296,0.38037 -0.25114,0.25078 -0.39272,0.60766 -0.3818,0.9624 0.0109,0.35474 0.17421,0.70223 0.44031,0.93707 0.26611,0.23484 0.6312,0.35364 0.98455,0.32038 0.11206,-0.0105 0.22273,-0.0357 0.32835,-0.0746"
       id="path986"
       inkscape:path-effect="#path-effect988"
       inkscape:original-d="m -103.98086,-179.37905 c 0.0274,0.88141 0.0543,1.73409 0.0801,2.60022 0.0254,0.86609 0.21958,-0.0493 0.32835,-0.0746" />
    <path
       style="fill:none;stroke:#000000;stroke-width:0.664987px;stroke-linecap:butt;stroke-linejoin:miter;stroke-opacity:1"
       d="m -95.756415,-179.40073 c 0.326765,0.0134 0.646966,0.15051 0.882195,0.37771 0.23523,0.22721 0.383351,0.54246 0.408093,0.86856 0.02474,0.32611 -0.07412,0.6601 -0.272378,0.92019 -0.198257,0.26009 -0.49411,0.44393 -0.81511,0.50649 -0.181208,0.0353 -0.369678,0.0329 -0.549928,-0.007"
       id="path990"
       inkscape:path-effect="#path-effect992"
       inkscape:original-d="m -95.756415,-179.40073 c 0.07338,0.89166 0.135921,1.78262 0.2028,2.67295 0.06657,0.8904 -0.266605,0.0418 -0.549928,-0.007"
       sodipodi:nodetypes="csc" />
    <path
       style="fill:none;stroke:#000000;stroke-width:0.664987px;stroke-linecap:butt;stroke-linejoin:miter;stroke-opacity:1"
       d="m -104.3163,-179.34537 c 2.9131,-0.0303 5.825528,-0.0454 8.737228,-0.0685"
       id="path994" />
    <path
       style="fill:none;stroke:#000000;stroke-width:0.664987px;stroke-linecap:butt;stroke-linejoin:miter;stroke-opacity:1"
       d="m -104.08453,-176.82816 8.314927,0.0781"
       id="path996" />
    <path
       style="fill:none;stroke:#000000;stroke-width:0.664987px;stroke-linecap:butt;stroke-linejoin:miter;stroke-opacity:1"
       d="m -115.4672,-168.17732 31.238897,0.0177"
       id="path998" />
    <path
       style="fill:none;stroke:#000000;stroke-width:0.664987px;stroke-linecap:butt;stroke-linejoin:miter;stroke-opacity:1"
       d="m -84.234045,-165.54212 -31.087365,-0.0358"
       id="path1000" />
    <path
       style="fill:none;stroke:#000000;stroke-width:0.664987px;stroke-linecap:butt;stroke-linejoin:miter;stroke-opacity:1"
       d="m -115.34042,-168.13132 c -0.32814,0.025 -0.64445,0.18105 -0.86407,0.42614 -0.21961,0.24509 -0.3401,0.57656 -0.32913,0.90547 0.011,0.32891 0.15329,0.65161 0.38875,0.88152 0.23546,0.22991 0.56147,0.36448 0.89055,0.3676 0.16355,0.002 0.32735,-0.0283 0.47983,-0.0875"
       id="path1002"
       inkscape:path-effect="#path-effect1004"
       inkscape:original-d="m -115.34042,-168.13132 c 0.0343,0.85323 0.0582,1.7211 0.0861,2.58073 0.0274,0.85963 0.32053,-0.0575 0.47983,-0.0875" />
    <path
       style="fill:none;stroke:#000000;stroke-width:0.664987px;stroke-linecap:butt;stroke-linejoin:miter;stroke-opacity:1"
       d="m -84.390051,-168.11487 c 0.33803,-0.0161 0.680613,0.10599 0.932268,0.33225 0.251655,0.22626 0.409368,0.55398 0.429182,0.89181 0.01981,0.33783 -0.09851,0.68174 -0.321988,0.93586 -0.22348,0.25413 -0.549441,0.41543 -0.887036,0.43896 -0.12046,0.008 -0.242083,-8e-5 -0.360215,-0.0251"
       id="path1014"
       inkscape:path-effect="#path-effect1016"
       inkscape:original-d="m -84.390051,-168.11487 c 0.04367,0.85924 0.102316,1.73321 0.152426,2.59888 0.05055,0.86567 -0.239444,-0.016 -0.360215,-0.0251" />
    <path
       style="fill:none;stroke:#000000;stroke-width:0.664987px;stroke-linecap:butt;stroke-linejoin:miter;stroke-opacity:1"
       d="m -115.26363,-159.26524 31.238909,0.0177"
       id="path998-3" />
    <path
       style="fill:none;stroke:#000000;stroke-width:0.664987px;stroke-linecap:butt;stroke-linejoin:miter;stroke-opacity:1"
       d="m -84.030482,-156.63004 -31.087338,-0.0358"
       id="path1000-6" />
    <path
       style="fill:none;stroke:#000000;stroke-width:0.664987px;stroke-linecap:butt;stroke-linejoin:miter;stroke-opacity:1"
       d="m -115.13684,-159.21927 c -0.32814,0.025 -0.64447,0.18104 -0.86409,0.42613 -0.21962,0.2451 -0.34011,0.57658 -0.32914,0.90549 0.011,0.32891 0.15329,0.65163 0.38876,0.88154 0.23547,0.22991 0.56149,0.36448 0.89057,0.36759 0.16355,0.002 0.32734,-0.0283 0.47981,-0.0875"
       id="path1002-7"
       inkscape:path-effect="#path-effect1050"
       inkscape:original-d="m -115.13684,-159.21927 c 0.0343,0.85326 0.0582,1.72112 0.0861,2.58075 0.0274,0.85964 0.32053,-0.0575 0.47981,-0.0875" />
    <path
       style="fill:none;stroke:#000000;stroke-width:0.664987px;stroke-linecap:butt;stroke-linejoin:miter;stroke-opacity:1"
       d="m -84.18646,-159.20281 c 0.337975,-0.016 0.680461,0.10614 0.932038,0.3324 0.251577,0.22626 0.409233,0.55392 0.429041,0.89169 0.01981,0.33777 -0.09847,0.68161 -0.321873,0.93573 -0.223406,0.25411 -0.549268,0.41545 -0.886796,0.43906 -0.120457,0.008 -0.242082,-1e-5 -0.36022,-0.025"
       id="path1014-5"
       inkscape:path-effect="#path-effect1052"
       inkscape:original-d="m -84.18646,-159.20281 c 0.04373,0.85926 0.102296,1.73324 0.15241,2.59888 0.05055,0.86567 -0.239442,-0.0159 -0.36022,-0.025" />
    <path
       style="fill:none;stroke:#000000;stroke-width:0.664987px;stroke-linecap:butt;stroke-linejoin:miter;stroke-opacity:1"
       d="m -121.92803,-178.17978 -0.024,26.0965"
       id="path1058"
       inkscape:path-effect="#path-effect1060"
       inkscape:original-d="m -121.92803,-178.17978 c 0.0319,8.46952 -0.0554,17.59706 -0.024,26.0965"
       sodipodi:nodetypes="cc" />
    <path
       style="fill:none;stroke:#000000;stroke-width:0.664987px;stroke-linecap:butt;stroke-linejoin:miter;stroke-opacity:1"
       d="m -120.34319,-150.77504 c -0.36867,-0.027 -0.72748,-0.17513 -1.00787,-0.41602 -0.28039,-0.24089 -0.48087,-0.57328 -0.56314,-0.93367 -0.024,-0.10528 -0.0383,-0.21279 -0.0424,-0.3207"
       id="path1062"
       inkscape:path-effect="#path-effect1064"
       inkscape:original-d="m -120.34319,-150.77504 c -0.51047,-0.44927 -1.04662,-0.89916 -1.57101,-1.34969 -0.52432,-0.45052 -0.0268,-0.21316 -0.0424,-0.3207" />
    <path
       style="fill:none;stroke:#000000;stroke-width:0.664987px;stroke-linecap:butt;stroke-linejoin:miter;stroke-opacity:1"
       d="m -120.13858,-150.64152 40.618976,0.11876"
       id="path1066"
       inkscape:path-effect="#path-effect1068"
       inkscape:original-d="m -120.13858,-150.64152 c 13.54038,0.0267 27.080012,0.0798 40.618976,0.11876" />
    <path
       style="fill:none;stroke:#000000;stroke-width:0.664987px;stroke-linecap:butt;stroke-linejoin:miter;stroke-opacity:1"
       d="m -77.498821,-152.64002 c -0.107792,0.52095 -0.370939,1.00873 -0.747115,1.38489 -0.376177,0.37616 -0.863972,0.63929 -1.384924,0.74706 -0.152986,0.0317 -0.308679,0.0502 -0.464818,0.0554"
       id="path1070"
       inkscape:path-effect="#path-effect1072"
       inkscape:original-d="m -77.498821,-152.64002 c -0.709986,0.74198 -1.420642,1.42193 -2.132039,2.13195 -0.711388,0.71001 -0.30919,0.0379 -0.464818,0.0554" />
    <path
       style="fill:none;stroke:#000000;stroke-width:0.664987px;stroke-linecap:butt;stroke-linejoin:miter;stroke-opacity:1"
       d="m -77.667065,-178.04943 0.108073,25.54221"
       id="path1074"
       inkscape:path-effect="#path-effect1076"
       inkscape:original-d="m -77.667065,-178.04943 c 0.04033,8.38033 0.08014,17.1533 0.108073,25.54221"
       sodipodi:nodetypes="cc" />
    <path
       style="fill:none;stroke:#000000;stroke-width:0.664987px;stroke-linecap:butt;stroke-linejoin:miter;stroke-opacity:1"
       d="m -120.60156,-150.71925 1.06237,0.0816"
       id="path1078"
       sodipodi:nodetypes="cc" />
    <path
       style="fill:none;stroke:#000000;stroke-width:0.664987px;stroke-linecap:butt;stroke-linejoin:miter;stroke-opacity:1"
       d="m -116.34995,-150.33257 0.0303,1.44725"
       id="path1080"
       sodipodi:nodetypes="cc" />
    <path
       style="fill:none;stroke:#000000;stroke-width:0.664987px;stroke-linecap:butt;stroke-linejoin:miter;stroke-opacity:1"
       d="m -111.15432,-150.59093 -0.0933,1.91975"
       id="path1082"
       sodipodi:nodetypes="cc" />
    <path
       style="fill:none;stroke:#000000;stroke-width:0.664987px;stroke-linecap:butt;stroke-linejoin:miter;stroke-opacity:1"
       d="m -116.32136,-149.1277 c 0.31503,0.46851 0.6295,0.93619 1.36765,1.11561 0.73814,0.17941 1.89982,0.0713 2.60927,-0.13297 0.70945,-0.2043 0.96727,-0.50489 1.22511,-0.80551"
       id="path1084"
       inkscape:path-effect="#path-effect1086"
       inkscape:original-d="m -116.32136,-149.1277 c 0.31523,0.46838 0.6297,0.93606 0.94349,1.40315 1.16236,-0.10747 2.32404,-0.21553 3.48505,-0.32421 0.25856,-0.29998 0.51635,-0.60059 0.77349,-0.90181"
       sodipodi:nodetypes="cccc" />
    <path
       style="fill:none;stroke:#000000;stroke-width:0.664987px;stroke-linecap:butt;stroke-linejoin:miter;stroke-opacity:1"
       d="m -83.236267,-150.46525 c 0.02648,0.54151 0.05293,1.08244 -0.10217,1.49262 -0.155102,0.41019 -0.491775,0.69038 -1.217602,0.83262 -0.725828,0.14223 -1.841287,0.1464 -2.515869,0.0156 -0.674583,-0.13083 -0.908087,-0.39734 -1.023398,-0.80418 -0.115311,-0.40684 -0.111837,-0.95396 -0.10836,-1.5017"
       id="path1088"
       inkscape:path-effect="#path-effect1090"
       inkscape:original-d="m -83.236267,-150.46525 c 0.02663,0.5415 0.05388,1.08239 0.07935,1.62267 -0.336024,0.28086 -0.672684,0.56106 -1.010123,0.84064 -1.114824,0.005 -2.230287,0.008 -3.346541,0.0125 -0.23282,-0.26591 -0.466335,-0.53241 -0.700505,-0.79952 0.004,-0.5465 0.0077,-1.09362 0.01042,-1.64136"
       sodipodi:nodetypes="cccccc" />
  </g>
</svg>
