<?xml version="1.0" encoding="UTF-8" standalone="no"?>
<svg
   xmlns:dc="http://purl.org/dc/elements/1.1/"
   xmlns:cc="http://creativecommons.org/ns#"
   xmlns:rdf="http://www.w3.org/1999/02/22-rdf-syntax-ns#"
   xmlns:svg="http://www.w3.org/2000/svg"
   xmlns="http://www.w3.org/2000/svg"
   xmlns:sodipodi="http://sodipodi.sourceforge.net/DTD/sodipodi-0.dtd"
   xmlns:inkscape="http://www.inkscape.org/namespaces/inkscape"
   width="21.76136mm"
   height="21.943542mm"
   viewBox="0 0 257.02325 259.175"
   version="1.1"
   id="svg340"
   sodipodi:docname="logo2.svg"
   inkscape:version="1.0.2 (e86c870879, 2021-01-15)">
  <metadata
     id="metadata346">
    <rdf:RDF>
      <cc:Work
         rdf:about="">
        <dc:format>image/svg+xml</dc:format>
        <dc:type
           rdf:resource="http://purl.org/dc/dcmitype/StillImage" />
        <dc:title></dc:title>
      </cc:Work>
    </rdf:RDF>
  </metadata>
  <defs
     id="defs344" />
  <sodipodi:namedview
     pagecolor="#ffffff"
     bordercolor="#666666"
     borderopacity="1"
     objecttolerance="10"
     gridtolerance="10"
     guidetolerance="10"
     inkscape:pageopacity="0"
     inkscape:pageshadow="2"
     inkscape:window-width="794"
     inkscape:window-height="877"
     id="namedview342"
     showgrid="false"
     fit-margin-top="0"
     fit-margin-left="0"
     fit-margin-right="0"
     fit-margin-bottom="0"
     inkscape:zoom="3.2418995"
     inkscape:cx="78.17497"
     inkscape:cy="41.403557"
     inkscape:window-x="0"
     inkscape:window-y="17"
     inkscape:window-maximized="0"
     inkscape:current-layer="svg340" />
  <path
     id="path1179"
     style="fill:#ffca02;fill-opacity:1;stroke-width:0.48218"
     d="m 144.78837,99.814162 a 0.67868725,0.67868725 0 0 0 -0.20508,0.043 l -2.06445,0.789028 c -0.65496,0.25035 -1.90314,0.86577 -3.50586,1.69532 -1.60272,0.82954 -3.52374,1.86343 -5.38281,2.90234 -7.76907,4.34159 -20.21627,11.41829 -30.96094,17.57422 -5.372334,3.07796 -10.319564,5.9253 -14.042974,8.08594 -1.8617,1.08031 -3.41668,1.98756 -4.56836,2.66797 -1.15167,0.6804 -1.86667,1.10968 -2.16992,1.31835 -0.9619,0.6619 -1.78342,1.00118 -2.44336,1.87305 -0.65994,0.87188 -1.00611,2.11615 -1.21875,4.43164 -0.42527,4.63099 -0.31702,13.79842 -0.26172,33.8125 0.0314,11.34702 0.0981,20.32729 0.19727,26.54688 0.0496,3.10979 0.10739,5.5281 0.17187,7.21289 0.0323,0.84239 0.0669,1.50157 0.10352,1.97851 0.0183,0.23848 0.0369,0.43053 0.0586,0.58789 0.0217,0.15737 -0.0117,0.21575 0.13086,0.48243 0.14134,0.26431 0.31687,0.44153 0.55078,0.66992 0.23391,0.22838 0.52297,0.48027 0.85352,0.74804 0.6611,0.53555 1.48808,1.13502 2.34375,1.6836 0.7864,0.50418 3.46995,2.07129 7.36914,4.32422 3.89919,2.25292 8.9817,5.1694 14.453124,8.29492 10.94285,6.25104 23.43719,13.33555 31.11133,17.61719 a 0.67868725,0.67868725 0 0 0 0.002,0 0.67868725,0.67868725 0 0 0 0.0605,0.0312 c 2.03744,1.13511 4.02547,2.17123 5.59766,2.92382 0.79457,0.38036 1.48256,0.68875 2.0293,0.90821 0.27336,0.10973 0.51181,0.19778 0.71875,0.26172 0.20693,0.0639 0.35758,0.114 0.59961,0.11328 0.50665,-0.002 1.0864,-0.15098 1.78124,-0.36719 0.69485,-0.21621 1.46476,-0.5082 2.16797,-0.83594 1.62788,-0.75867 6.56112,-3.45173 13.15235,-7.13867 6.59123,-3.68694 14.79148,-8.34619 22.77734,-12.95703 6.75667,-3.90115 14.03875,-8.03709 16.12891,-9.16406 3.32212,-1.79124 5.78898,-3.31381 7.52929,-4.67578 1.74032,-1.36198 2.78991,-2.56106 3.14258,-3.83204 0.093,-0.33521 0.10766,-0.68103 0.14649,-1.29882 0.0388,-0.6178 0.0728,-1.43836 0.10547,-2.4375 0.0654,-1.99829 0.11903,-4.71097 0.1621,-7.9043 0.0861,-6.38666 0.12859,-14.6946 0.12696,-23.02734 -0.002,-8.33275 -0.0461,-16.68801 -0.13477,-23.16797 -0.0443,-3.23998 -0.0999,-6.01028 -0.16601,-8.07813 -0.0331,-1.03392 -0.0685,-1.89159 -0.10742,-2.54883 -0.039,-0.65723 -0.0693,-1.07999 -0.13672,-1.39453 -0.42777,-1.99632 -1.011,-3.47479 -2.16797,-4.75 -1.15697,-1.27521 -2.82063,-2.3176 -5.39063,-3.65234 -3.9934,-2.07401 -33.0206,-18.47843 -44.05859,-24.90625 -2.41114,-1.40409 -6.57814,-3.62368 -9.31445,-4.96094 l -4.93555,-2.412108 a 0.67868725,0.67868725 0 0 0 -0.33594,-0.0684 z" />
  <path
     id="path1177"
     style="fill:#ffca02;fill-opacity:1;stroke-width:0.48218"
     d="m 180.89384,10.814162 c -1.40057,0 -3.24867,0.67532 -7.89258,3.08399 -4.6439,2.40866 -12.09759,6.58692 -24.61328,13.70312 -10.73437,6.10337 -21.65202,12.24698 -24.21289,13.625 -2.91573,1.56898 -4.78616,2.6843 -6.06055,3.73633 -1.27438,1.05203 -1.9468,2.07912 -2.33984,3.30078 -0.15442,0.47996 -0.21746,1.21452 -0.29883,2.51367 -0.0814,1.29916 -0.1516,3.10459 -0.21484,5.47266 -0.12649,4.73614 -0.22033,11.72505 -0.29297,21.38672 l -0.20508,27.421868 a 0.57108921,0.57108921 0 0 0 0.8457,0.50391 l 3.05274,-1.67578 c 1.66634,-0.91394 7.48582,-4.020708 12.91015,-6.892578 7.0211,-3.71726 10.45094,-5.49754 13.91993,-5.3125 3.46898,0.18504 7.26384,2.36864 14.93945,6.87109 4.12118,2.417448 15.50216,8.885178 25.3125,14.384768 9.80435,5.49622 20.07229,11.39922 22.73828,13.06641 2.72195,1.70219 6.17909,3.73157 7.75195,4.54492 0.78984,0.40844 1.63942,0.77687 2.39063,1.04883 0.7512,0.27195 1.35164,0.45827 1.86719,0.46289 a 0.57108921,0.57108921 0 0 0 0.002,0 c 0.59631,0.005 1.29614,-0.21407 2.22461,-0.56446 0.92847,-0.35038 2.04889,-0.84603 3.29883,-1.44922 2.49987,-1.20636 5.51286,-2.83681 8.45507,-4.54882 2.94222,-1.71202 5.81084,-3.50541 8.01954,-5.03907 1.10435,-0.76683 2.04307,-1.46674 2.75195,-2.07031 0.70888,-0.60356 1.19251,-1.0368 1.41601,-1.60156 a 0.57108921,0.57108921 0 0 0 0,-0.002 c 0.11457,-0.29006 0.11636,-0.50037 0.15626,-0.91211 0.0399,-0.41175 0.0764,-0.95515 0.11328,-1.6211 0.0738,-1.33189 0.14367,-3.15041 0.20703,-5.33008 0.1267,-4.35933 0.23006,-10.157258 0.29883,-16.335928 0.13752,-12.35736 0.13564,-26.22648 -0.10157,-33.14844 l -0.36133,-10.53711 a 0.57108921,0.57108921 0 0 0 -0.14062,-0.35742 l -1.33789,-1.52149 c -1.72571,-1.96341 -5.60099,-4.23832 -29.30859,-17.58398 -9.80593,-5.52002 -19.0893,-10.83566 -20.45704,-11.70313 -2.78673,-1.76746 -5.95194,-3.48258 -8.67578,-4.76367 -1.36192,-0.64054 -2.61245,-1.17308 -3.6582,-1.54883 -1.04575,-0.37574 -1.85375,-0.60742 -2.5,-0.60742 z" />
  <path
     id="path352"
     style="fill:#ffca02;fill-opacity:1;stroke-width:0.48218"
     d="m 75.411416,6.0270515 c -0.90557,0 -2.31946,0.14552 -3.63086,0.56055 -1.31141,0.41503 -2.60294,1.00705 -4.38672,1.91602 -3.56755,1.8179305 -9.1838,5.0022505 -19.69922,10.9980405 -9.39845,5.35891 -19.65194,11.15589 -22.58203,12.76953 -7.38049,4.06455 -11.63308,6.4627 -14.6582,8.73243 -3.0251297,2.26972 -5.0131997,5.32465 -5.7246117,7.88867 -0.421804,1.52046 -0.261081,1.53025 -0.304688,2.20703 -0.04361,0.67678 -0.07804,1.4958 -0.111328,2.48047 -0.06658,1.96934 -0.120552,4.58096 -0.164063,7.64843 -0.08702,6.13495 -0.131634,14.07176 -0.132812,22.01172 -0.0012,7.93996 0.0398,15.87719 0.125,22.011718 0.0426,3.06727 0.09611,5.67939 0.162109,7.64844 0.033,0.98453 0.06792,1.80381 0.111328,2.48047 0.04341,0.67666 -0.118186,0.68314 0.304688,2.20703 1.470935,5.30078 5.7363577,7.88188 12.2343777,11.52148 2.73705,1.53306 14.74912,8.27213 26.67773,14.96485 6.81449,3.82338 12.2909,6.83139 16.14649,8.87109 1.92779,1.01985 3.43808,1.79318 4.58789,2.33985 0.5749,0.27333 1.03661,0.48543 1.57422,0.68945 0.2688,0.10201 0.51738,0.20659 1.09179,0.33008 0.28721,0.0617 0.63475,0.15667 1.41992,0.12695 0.78518,-0.0297 2.7071,-0.11137 4.23633,-2.30469 1.09508,-1.57069 0.8368,-1.79364 0.91406,-2.15234 0.0773,-0.3587 0.11109,-0.6169 0.14454,-0.88477 0.0669,-0.53572 0.10917,-1.07862 0.14648,-1.70117 0.0746,-1.24511 0.11897,-2.76786 0.12109,-4.39258 0.008,-5.9072 1.0292,-8.87223 1.64453,-9.67968 0.20858,-0.2737 4.45524,-3.58767 17.32618,-10.79297 2.97901,-1.6677 5.86713,-3.35027 8.166014,-4.7461 1.14944,-0.69791 2.14748,-1.32085 2.96485,-1.85547 0.81736,-0.53461 1.26803,-0.76765 2.16015,-1.58007 l 1.66016,-1.51172 a 5.3574373,5.3574373 0 0 0 1.75,-3.91211 l 0.0566,-6.20703 c 0.21327,-23.686608 0.38659,-38.144078 0.61133,-46.837888 0.11237,-4.34691 0.24103,-7.26122 0.3789,-9.07422 0.13788,-1.813 0.57126,-2.79179 0.0937,-1.71485 0.5045,-1.13782 2.20908,-3.14658 5.86329,-5.43359 1.06535,-0.66676 2.02315,-1.31398 2.82031,-1.90625 0.39858,-0.29613 0.74612,-0.56265 1.14258,-0.91992 0.19822,-0.17864 0.40478,-0.3606 0.72461,-0.74219 0.31982,-0.38159 1.32226,-0.41179 1.32226,-3.56836 0,-1.98466 -0.8443,-3.1008 -1.37305,-3.7539 -0.52875,-0.65311 -0.97081,-1.01616 -1.42773,-1.38086 -0.91385,-0.72942 -1.93138,-1.39279 -3.4043,-2.29883 -2.94583,-1.81208 -7.64246,-4.48854 -15.28906,-8.77735 -9.905094,-5.55554 -15.063924,-8.4436305 -18.335944,-10.0800705 -1.63601,-0.81822 -2.83008,-1.35238 -4.08594,-1.72461 -1.25585,-0.37224 -2.59247,-0.47071 -3.37304,-0.47071 z" />
  <path
     id="path348"
     style="fill:#000000;fill-opacity:1;stroke-width:0.681608"
     d="M 76.676349,0.40959569 C 75.917104,0.32400217 75.035638,0.32778341 73.929775,0.64153258 72.823909,0.95527862 71.453504,1.5351802 69.33384,2.5946524 65.094511,4.7135936 57.840002,8.758561 44.150801,16.437387 25.739603,26.764973 15.983792,32.257836 10.514415,35.480306 5.0450393,38.702778 3.7376303,39.757226 2.543246,41.003972 l -1.87987943,1.959223 a 1.2428292,1.2428292 0 0 0 -0.34789908,0.860592 v 38.63515 c 0,21.793843 -0.0736248,32.132293 0.57983284,37.652483 0.32672417,2.76011 0.85473837,4.42501 1.83104827,5.62133 0.9763099,1.19632 2.1746411,1.70496 3.5095125,2.45361 1.5860365,0.88951 12.7046259,7.13405 24.7008629,13.87935 11.997393,6.74596 24.470582,13.73822 27.746507,15.55172 3.179667,1.76021 6.949879,4.40573 7.897929,5.38329 l 1.904292,1.96532 0.32959,24.20648 c 0.157999,11.45327 0.268437,17.66141 0.494383,21.30732 0.112968,1.82296 0.254499,3.00899 0.46997,3.93064 0.215469,0.92169 0.543621,1.59703 0.897214,2.13624 1.200112,1.83009 1.828429,2.93584 6.524642,5.88986 4.696209,2.95406 13.676273,8.05426 32.348549,18.69505 7.00492,3.99189 13.80843,7.79757 19.12836,10.71772 5.31994,2.92018 8.98642,4.88677 10.32712,5.43824 1.1077,0.45559 2.29554,0.86706 3.35083,1.17187 1.05528,0.30468 1.88997,0.52321 2.66723,0.531 1.6787,0.0156 3.64654,-0.83966 8.86838,-3.59496 5.22184,-2.75534 13.65433,-7.50864 27.76482,-15.56393 6.59085,-3.76255 12.98315,-7.38317 17.9748,-10.18676 4.99166,-2.80358 8.65091,-4.82533 9.52146,-5.2612 5.62251,-2.81524 8.48984,-5.27633 10.19895,-8.97213 0.72435,-1.56637 1.17283,-2.95418 1.38549,-7.37915 0.21266,-4.42495 0.27216,-12.11453 0.36011,-26.94695 0.1,-16.87038 0.1775,-31.88929 0.17094,-33.52652 -0.006,-1.93147 0.2775,-2.91752 2.13012,-4.60204 1.85246,-1.68451 5.35592,-3.83265 11.37081,-7.1655 5.92267,-3.28178 12.53947,-7.18251 14.92305,-8.82566 1.67459,-1.15438 3.01706,-1.91426 4.12596,-3.18603 1.10894,-1.27177 1.79781,-2.96826 2.19728,-5.60301 0.7989,-5.26952 0.68515,-14.7015 0.68359,-34.905916 -8.1e-4,-10.474291 -0.07,-19.49843 -0.18906,-26.092459 -0.0597,-3.297016 -0.13688,-5.986356 -0.21969,-7.95286 -0.0416,-0.983254 -0.0803,-1.781524 -0.12812,-2.398675 -0.0478,-0.617155 -0.0691,-0.971035 -0.18907,-1.403806 -0.48221,-1.735614 -1.79955,-3.755409 -3.22264,-5.133042 -0.30344,-0.29375 -0.63219,-0.516155 -1.14747,-0.866698 -0.51528,-0.350543 -1.18312,-0.786157 -1.98974,-1.29394 -1.61325,-1.015573 -3.78709,-2.334716 -6.37205,-3.869621 -5.16992,-3.069808 -11.98353,-6.997726 -19.20773,-11.05954 C 209.60299,15.086657 194.8842,6.729907 191.40993,4.68815 189.61054,3.6306809 187.69572,2.6376992 186.02664,1.8744356 184.35757,1.111172 183.05794,0.57247339 181.98002,0.42790502 180.0807,0.1731557 178.14688,0.46706117 174.2652,2.3382999 c -3.88168,1.8712326 -9.97319,5.3394609 -20.89228,11.6576851 -9.33927,5.404082 -15.37069,8.815036 -19.28705,10.858127 -3.91637,2.043088 -5.82555,2.634162 -6.29271,2.636712 0.1865,-0.001 -0.11203,-0.01813 -0.5066,-0.164781 -0.39455,-0.14675 -0.95413,-0.387602 -1.66015,-0.720211 -1.41202,-0.66522 -3.41908,-1.700348 -6.04246,-3.118888 C 114.33719,20.649864 106.60441,16.268 95.981717,10.120279 90.143391,6.741432 85.95174,4.4048351 82.926332,2.8693204 79.900925,1.3338089 78.116058,0.57188901 76.676349,0.40961132 Z M 180.46025,10.901512 c 1.39144,0 2.68096,0.29503 7.15941,2.575677 4.47845,2.280635 11.95135,6.490361 25.299,14.099081 15.18148,8.654081 23.14818,13.210509 27.47186,15.83248 2.16184,1.310984 3.41324,2.137226 4.16867,2.722159 0.75547,0.584936 1.00109,0.883088 1.34888,1.348874 0.31593,0.423074 0.41931,0.536643 0.57984,1.239009 0.16062,0.70237 0.29625,1.966476 0.38453,4.229727 0.17656,4.526503 0.18312,13.040706 0.18312,29.638593 0,16.458994 -0.009,24.975478 -0.18312,29.534838 -0.0866,2.27967 -0.22063,3.57422 -0.37844,4.29686 -0.15781,0.72264 -0.255,0.83386 -0.54931,1.2268 -0.0725,0.097 -1.05575,0.98094 -2.39868,1.92871 -1.3429,0.94777 -3.11318,2.10412 -5.08421,3.3203 -3.94205,2.43237 -8.69954,5.12027 -12.52437,7.00072 -1.06259,0.52241 -2.27843,1.00909 -3.34471,1.35497 -1.06631,0.34589 -2.05644,0.53094 -2.31934,0.53101 -0.24931,6e-5 -1.43648,-0.30778 -3.07006,-1.08643 -1.63358,-0.77863 -3.80188,-1.97368 -6.49412,-3.59496 -4.48205,-2.69911 -16.39174,-9.54761 -26.53191,-15.25264 -10.12925,-5.69888 -21.88227,-12.366042 -26.08026,-14.800988 -2.1344,-1.238007 -4.40875,-2.457422 -6.37205,-3.430166 -1.96331,-0.972748 -3.53567,-1.68678 -4.59594,-1.983639 -1.75141,-0.490364 -3.25734,-0.770626 -6.03636,0.341796 -2.77902,1.112425 -7.15744,3.476282 -16.03999,8.233627 -2.98417,1.59826 -5.76179,3.04596 -7.82469,4.09544 -0.81383,0.41403 -1.40859,0.7055 -1.96533,0.97656 -0.009,-0.19165 -0.0219,-0.28228 -0.0306,-0.50659 -0.0567,-1.45899 -0.10135,-3.59105 -0.13428,-6.225567 -0.0659,-5.269039 -0.0788,-12.549932 -0.0244,-20.556586 0.11334,-16.680237 0.14441,-24.778753 0.8667,-28.857345 0.36115,-2.039298 0.833,-2.979098 1.51367,-3.698722 0.68067,-0.719623 1.73907,-1.294577 3.34472,-2.215569 1.81997,-1.043934 15.59533,-8.812967 30.5236,-17.21187 11.11444,-6.25318 18.01482,-10.063248 22.36932,-12.298551 4.3545,-2.235301 6.23743,-2.807608 6.76878,-2.807608 z M 73.55746,11.133445 c 1.040282,-0.195155 3.126614,-0.116249 4.040518,0.134281 -0.03888,-0.01062 0.269218,0.105 0.653073,0.280749 0.383849,0.17575 0.900123,0.423212 1.519771,0.73242 1.2393,0.618418 2.902596,1.480987 4.86449,2.520747 3.923787,2.079516 9.043751,4.868962 14.398156,7.861307 5.739362,3.207479 10.014242,5.578617 13.049282,7.39744 3.03503,1.818826 4.83681,3.13936 5.50536,3.930655 0.33427,0.395646 0.35452,0.573502 0.354,0.622558 -5.2e-4,0.04906 -0.0122,0.169499 -0.28688,0.469967 -0.54954,0.600924 -2.02833,1.548843 -4.00999,2.807612 -2.03305,1.291402 -3.60405,2.112735 -4.90111,3.363028 -1.29707,1.250291 -2.16373,2.922374 -2.66723,5.432114 -1.00701,5.01948 -0.93718,13.760501 -1.13525,32.714757 l -0.3357,32.02506 -1.5808,1.26342 c -0.41496,0.33123 -1.81912,1.25434 -3.564449,2.31323 -1.74533,1.0589 -3.885852,2.30157 -5.981428,3.46679 -4.24352,2.35956 -10.680178,6.11912 -14.361534,8.38621 -4.330569,2.66688 -6.867238,4.37952 -8.325174,7.09837 -1.457934,2.71885 -1.661174,6.04481 -1.855464,11.81027 -0.07678,2.27893 -0.198062,4.34846 -0.323484,5.82274 -0.02375,0.28093 -0.04297,0.41246 -0.06712,0.64697 -0.130406,-0.0705 -0.194937,-0.10328 -0.341796,-0.1831 -1.139729,-0.6195 -2.762752,-1.51181 -4.742419,-2.60619 -3.95933,-2.18877 -9.332991,-5.17821 -15.075644,-8.38621 -11.485301,-6.416 -24.456573,-13.71027 -30.548013,-17.20577 -3.28416,-1.88457 -5.328545,-3.34597 -6.57347,-4.75462 C 10.02023,117.68959 9.4892471,116.34147 9.1960698,114.28259 9.0738161,113.42397 8.9094728,109.16772 8.8237511,103.60757 8.7380326,98.047414 8.6930015,91.001468 8.6894703,83.917677 8.6860328,76.833886 8.7252514,69.715352 8.8054387,63.995855 8.885626,58.276361 9.0217506,53.863151 9.165544,52.570104 c 0.3294241,-2.962561 0.7688573,-4.460763 2.612299,-6.292708 1.843442,-1.831942 5.272658,-3.943177 11.413542,-7.330303 5.321201,-2.935011 18.36157,-10.309407 29.009935,-16.412309 5.311302,-3.044067 10.413145,-5.86335 14.337118,-7.946757 1.961989,-1.041704 3.630441,-1.902242 4.876697,-2.508537 0.623129,-0.303156 1.141331,-0.543124 1.525874,-0.708005 0.384546,-0.164874 0.703129,-0.254311 0.616455,-0.23803 z m 71.01421,89.288095 c 0.62171,0.004 1.25792,0.21306 2.45972,0.62255 0.11668,0.0397 1.30669,0.58491 2.88085,1.40381 1.57415,0.81889 3.67331,1.94604 6.14622,3.29589 4.94582,2.6997 11.37799,6.29507 18.09688,10.12571 13.45407,7.67053 26.5982,15.06612 29.43107,16.54048 3.37065,1.75423 5.09996,3.15886 5.99364,4.59593 l 1.34887,2.16675 v 35.90078 35.74821 l -1.50146,1.56859 c -0.81803,0.85396 -3.30177,2.72824 -5.18187,3.83299 -4.22657,2.48355 -40.23981,22.96878 -50.09142,28.49114 -1.88066,1.05421 -3.88468,2.05327 -5.5725,2.80149 -1.68781,0.74822 -3.19663,1.24137 -3.51561,1.28175 -0.81457,0.10312 -0.69583,0.225 -1.47705,-0.0125 -0.78121,-0.23719 -2.37549,-0.95875 -5.56639,-2.66721 -6.3818,-3.41693 -19.23083,-10.74863 -46.25842,-26.12909 -2.718206,-1.54684 -5.419452,-3.1364 -7.56834,-4.44333 -2.148888,-1.30697 -3.829421,-2.40296 -4.199207,-2.69778 l -1.538084,-1.22677 -0.183093,-35.75432 c -0.06784,-13.10863 -0.0635,-22.32532 0.03063,-28.41789 0.047,-3.04629 0.116781,-5.31093 0.207531,-6.87864 0.04537,-0.78386 0.09356,-1.39553 0.146468,-1.82495 0.05291,-0.42943 0.144468,-0.71829 0.109875,-0.63477 0.09994,-0.24125 0.622117,-0.9454 1.513668,-1.71508 0.891547,-0.76968 2.13655,-1.65887 3.637684,-2.58178 5.314648,-3.26748 19.320618,-11.28834 32.281408,-18.57905 6.4804,-3.64536 12.70641,-7.10828 17.46821,-9.71677 2.3809,-1.30425 4.39635,-2.3982 5.88988,-3.18603 0.74676,-0.39391 1.36433,-0.71061 1.82494,-0.93994 0.46062,-0.22934 0.81805,-0.38058 0.81177,-0.37842 1.14544,-0.39462 1.75256,-0.59629 2.37426,-0.59203 z" />
  <path
     id="Selection"
     fill="none"
     stroke="#000000"
     stroke-width="1"
     d="m 72.518836,0.91260151 c 6.85,-1.36 10.21,2.11999999 16,5.29999999 0,0 26.000004,14.9900005 26.000004,14.9900005 0,0 12.58,6.69 12.58,6.69 2.81,0.49 11.61,-5.07 14.42,-6.68 0,0 25,-14.4000005 25,-14.4000005 3.52,-2.08 10,-6.19999999 14,-6.30999999 3.88,-0.1 7.75,2.79999999 11,4.69999999 0,0 18,10.2300005 18,10.2300005 0,0 32,17.98 32,17.98 9.56,5.69 14.85,6.3 15,18.8 0,0 0,58.999998 0,58.999998 -0.01,4.27 0.27,8.31 -2.51,11.9 -2.92,3.77 -18.41,11.79 -23.49,14.68 -2.96,1.67 -7.29,3.49 -8.98,6.52 -1.22,2.2 -1.02,5.43 -1.02,7.9 0,0 0,54 0,54 -0.02,14.86 -7.02,15.17 -19,21.86 0,0 -36,20.56 -36,20.56 -3.89,2.23 -15.31,9.08 -19,9.9 -5.37,1.21 -16.17,-6.01 -21,-8.74 0,0 -39.000004,-22.28 -39.000004,-22.28 -4.78,-2.62 -14.45,-7.14 -16.4,-12.31 -0.71,-1.89 -0.6,-4.94 -0.6,-6.99 0,0 0,-36 0,-36 0,-1.97 0.12,-5.12 -0.6,-6.91 -1.69,-4.23 -12.22,-9.15 -16.4,-11.34 0,0 -38,-21.66 -38,-21.66 -9.4299997,-5.56 -13.97999969,-4.75 -13.99999969,-17.09 0,0 0,-63.999998 0,-63.999998 0,-2.76 -0.22,-6.37 1.16999999,-8.82 2.04,-3.56 12.8499997,-8.93 16.8299997,-11.1 0,0 54,-30.38000049 54,-30.38000049 z M 118.51884,33.212602 c 0,0 -30.000004,-16.77 -30.000004,-16.77 -2.51,-1.36 -9.74,-5.79 -12,-6.2 -4.13,-0.7400005 -15.08,6.67 -19,8.96 0,0 -33,18.7 -33,18.7 -3.88,2.11 -13.51,6.59 -15.2599997,10.52 -0.88,1.98 -0.74,5.59 -0.74,7.79 0,0 0,52.999998 0,52.999998 0,2.76 -0.21,6.42 1.17,8.87 1.9499997,3.44 12.0499997,8.36 15.8299997,10.43 0,0 44,24.7 44,24.7 0,-6.5 -1.52,-16.87 3.23,-21.79 2.67,-2.77 19.25,-11.59 23.77,-14.22 2,-1.17 6.800004,-3.67 7.980004,-5.46 1.25,-1.9 1.02,-5.3 1.02,-7.53 0,0 0,-40.999998 0,-40.999998 0,-4.9 -0.71,-14.88 1.45,-18.96 2.18,-4.11 7.63,-6.69 11.55,-9.04 0,0 0,-2 0,-2 z m -4,72.999998 c 0,0 19,-9.999998 19,-9.999998 3.01,-1.72 7.54,-4.7 11,-4.76 4.55,-0.09 15.69,7.23 20,9.749998 0,0 39,21.88 39,21.88 2.83,1.62 13.88,8.97 16,9.28 4,0.58 16.04,-7.65 20,-9.84 2.17,-1.2 5.64,-2.6 6.98,-4.7 1.24,-1.95 1.02,-5.34 1.02,-7.61 0,0 0,-54.999998 0,-54.999998 0,-1.88 0.12,-5.11 -0.6,-6.79 -1.61,-3.74 -11.65,-8.48 -15.4,-10.52 0,0 -34,-19.29 -34,-19.29 -4.25,-2.52 -14.28,-9.6400005 -19,-8.22 0,0 -19,10.62 -19,10.62 0,0 -31,17.63 -31,17.63 -9.65,5.49 -13.98,4.96 -14,16.57 0,0 0,50.999998 0,50.999998 z m 30,-6.329998 c -5.42,1.129998 -13.88,6.819998 -19,9.749998 0,0 -34.000004,19.29 -34.000004,19.29 -13.98,8.05 -13.98,7.12 -14,16.29 0,0 0,59 0,59 0,2.28 -0.22,5.65 1.02,7.61 1.49,2.34 9.25,6.24 11.98,7.81 0,0 27.000004,15.43 27.000004,15.43 0,0 18,10.16 18,10.16 2.38,1.33 6.37,4.15 9,4.16 2.55,0.01 6.69,-2.72 9,-4 0,0 18,-10.04 18,-10.04 0,0 24,-13.88 24,-13.88 3.05,-1.59 12.55,-6.51 14.4,-8.78 1.94,-2.36 1.59,-5.61 1.6,-8.47 0,0 0,-59 0,-59 -0.02,-11.61 -4.37,-11.17 -14,-16.37 0,0 -34,-19.36 -34,-19.36 -4.53,-2.69 -14.27,-8.83 -19,-9.599998 z" />
</svg>
