<?xml version="1.0" encoding="UTF-8" standalone="no"?>
<svg
   xmlns:dc="http://purl.org/dc/elements/1.1/"
   xmlns:cc="http://creativecommons.org/ns#"
   xmlns:rdf="http://www.w3.org/1999/02/22-rdf-syntax-ns#"
   xmlns:svg="http://www.w3.org/2000/svg"
   xmlns="http://www.w3.org/2000/svg"
   xmlns:sodipodi="http://sodipodi.sourceforge.net/DTD/sodipodi-0.dtd"
   xmlns:inkscape="http://www.inkscape.org/namespaces/inkscape"
   width="730.34717mm"
   height="575.56256mm"
   viewBox="0 0 8626.1246 6797.9649"
   version="1.1"
   id="svg340"
   sodipodi:docname="logobig.svg"
   inkscape:version="1.0.2 (e86c870879, 2021-01-15, custom)">
  <metadata
     id="metadata346">
    <rdf:RDF>
      <cc:Work
         rdf:about="">
        <dc:format>image/svg+xml</dc:format>
        <dc:type
           rdf:resource="http://purl.org/dc/dcmitype/StillImage" />
        <dc:title></dc:title>
      </cc:Work>
    </rdf:RDF>
  </metadata>
  <defs
     id="defs344">
    <inkscape:path-effect
       effect="bspline"
       id="path-effect82"
       is_visible="true"
       lpeversion="1"
       weight="33.333333"
       steps="2"
       helper_size="0"
       apply_no_weight="true"
       apply_with_weight="true"
       only_selected="false" />
    <inkscape:path-effect
       effect="bspline"
       id="path-effect78"
       is_visible="true"
       lpeversion="1"
       weight="33.333333"
       steps="2"
       helper_size="0"
       apply_no_weight="true"
       apply_with_weight="true"
       only_selected="false" />
    <rect
       x="144.05984"
       y="6248.6982"
       width="9701.7061"
       height="989.47998"
       id="rect66" />
    <rect
       x="1020.7609"
       y="6375.9634"
       width="1393.9915"
       height="1174.3651"
       id="rect60" />
  </defs>
  <sodipodi:namedview
     pagecolor="#ffffff"
     bordercolor="#666666"
     borderopacity="1"
     objecttolerance="10"
     gridtolerance="10"
     guidetolerance="10"
     inkscape:pageopacity="0"
     inkscape:pageshadow="2"
     inkscape:window-width="874"
     inkscape:window-height="877"
     id="namedview342"
     showgrid="false"
     fit-margin-top="0"
     fit-margin-left="0"
     fit-margin-right="0"
     fit-margin-bottom="0"
     inkscape:zoom="0.20261872"
     inkscape:cx="1414.1164"
     inkscape:cy="1130.6919"
     inkscape:window-x="0"
     inkscape:window-y="17"
     inkscape:window-maximized="0"
     inkscape:current-layer="svg340"
     inkscape:document-rotation="0" />
  <path
     id="path1179"
     style="fill:#ffca02;fill-opacity:1;stroke-width:11.0315"
     d="m 4480.3029,2267.9878 a 15.634678,15.420662 0 0 0 -4.7248,0.977 l -47.5591,17.9271 c -15.0869,5.6871 -43.8412,19.6721 -80.7621,38.5194 -36.9208,18.8473 -81.1765,42.3389 -124.0016,65.9441 -178.974,98.6468 -465.7158,259.4387 -713.2377,399.3111 -123.7597,69.9339 -237.7266,134.6305 -323.5036,183.7222 -42.8873,24.5458 -78.707,45.1609 -105.2383,60.6204 -26.5313,15.4596 -43.0025,25.2139 -49.9872,29.9535 -22.159,15.0393 -41.0859,22.7486 -56.2877,42.5593 -15.2019,19.8107 -23.1772,48.0806 -28.0748,100.6918 -9.7975,105.2223 -7.3049,313.5177 -6.031,768.2642 0.7141,257.8188 2.2576,461.8629 4.5451,603.1804 1.1518,70.6585 2.4741,125.6055 3.96,163.8864 0.7372,19.1405 1.5435,34.1183 2.3843,44.9542 0.4147,5.419 0.8524,9.7816 1.3592,13.3576 0.5068,3.5764 -0.2766,4.9012 3.0155,10.9608 3.255,6.0054 7.298,10.0315 12.6863,15.2212 5.3882,5.1896 12.0481,10.913 19.664,16.9976 15.2295,12.1675 34.2786,25.7887 53.991,38.2537 18.116,11.4563 79.9372,47.0626 169.7594,98.2515 89.8245,51.1889 206.9082,117.4556 332.9532,188.4709 252.0855,142.0333 539.9146,303.0024 716.7001,400.286 a 15.634678,15.420662 0 0 0 1.4052,0.7044 c 46.9349,25.7909 92.734,49.3323 128.9522,66.4324 18.3028,8.6431 34.152,15.6505 46.7482,20.6354 6.2961,2.4949 11.7901,4.4943 16.5567,5.9486 4.7663,1.454 8.2377,2.5903 13.8127,2.5721 11.6726,0 25.0269,-3.4287 41.0351,-8.3432 16.0059,-4.9126 33.7419,-11.5471 49.9411,-18.9929 37.5013,-17.2387 151.1483,-78.427 302.9873,-162.2007 151.8391,-83.7711 340.7465,-189.6365 524.7124,-294.3998 155.652,-88.6383 323.4069,-182.6135 371.556,-208.2205 76.5322,-40.6983 133.3591,-75.2939 173.4497,-106.2378 40.0906,-30.9465 64.2699,-58.1918 72.395,-87.0704 2.1424,-7.6161 2.4809,-15.4733 3.3748,-29.5104 0.8985,-14.0375 1.6817,-32.6825 2.4303,-55.3834 1.4976,-45.4039 2.7415,-107.0399 3.7343,-179.5959 1.9814,-145.1142 2.9625,-333.8807 2.9236,-523.2105 0,-189.3321 -1.0597,-379.173 -3.1032,-526.4073 -1.0137,-73.617 -2.3036,-136.5616 -3.8263,-183.5447 -0.7604,-23.494 -1.5664,-42.9797 -2.4741,-57.9143 -0.8984,-14.9326 -1.5896,-24.5392 -3.1492,-31.685 -9.8551,-45.3586 -23.29,-78.9521 -49.9434,-107.9263 -26.6511,-28.9742 -64.9771,-52.6589 -124.1814,-82.985 -91.9945,-47.124 -760.6841,-419.8557 -1014.9624,-565.9037 -55.5438,-31.903 -151.5374,-82.3352 -214.5726,-112.7182 l -113.6998,-54.806 a 15.634678,15.420662 0 0 0 -7.7379,-1.5451 z" />
  <path
     id="path1177"
     style="fill:#ffca02;fill-opacity:1;stroke-width:11.0315"
     d="m 5312.0503,245.7913 c -32.263,0 -74.8371,15.3437 -181.817,70.07023 -106.9799,54.72882 -278.6881,149.66525 -567.0077,311.35462 -247.2847,138.67498 -498.7896,278.26559 -557.7841,309.57783 -67.168,35.64746 -110.258,60.99077 -139.6159,84.89362 -29.3556,23.9029 -44.8478,47.2399 -53.9012,74.9986 -3.5568,10.9039 -5.0104,27.595 -6.8833,57.1122 -1.866,29.5196 -3.4924,70.5406 -4.9506,124.3469 -2.9141,107.6104 -5.075,266.4096 -6.7474,485.9338 l -4.7249,623.0615 a 13.155981,12.975894 0 0 0 19.4821,11.4493 l 70.324,-38.0764 c 38.3883,-20.765 172.4477,-91.3556 297.4077,-156.6089 161.7426,-84.4597 240.7537,-124.9104 320.6679,-120.707 79.9141,4.2057 167.3337,53.82 344.1536,156.1204 94.9387,54.9288 357.1188,201.8834 583.1152,326.8415 225.8606,124.8808 462.3984,259.0047 523.8143,296.8857 62.7058,38.6762 142.3457,84.7868 178.5799,103.266 18.1944,9.2817 37.7664,17.6523 55.0714,23.8324 17.305,6.178 31.1363,10.4109 43.0139,10.5177 13.737,0 29.8578,-4.8646 51.2474,-12.8261 21.3896,-7.9616 47.2,-19.2223 75.9935,-32.9278 57.5892,-27.411 126.9986,-64.4558 194.7769,-103.3547 67.7786,-38.9011 133.8615,-79.6495 184.7426,-114.4949 25.4415,-17.4227 47.0661,-33.3276 63.3969,-47.0399 16.3305,-13.7146 27.4712,-23.5575 32.6198,-36.3905 2.6399,-6.5891 2.6814,-11.3697 3.6007,-20.7241 0.9214,-9.3543 1.7506,-21.7011 2.6076,-36.8335 1.7049,-30.2625 3.3105,-71.5812 4.7709,-121.1068 2.9187,-99.049 5.2984,-230.7849 6.8834,-371.173 3.1675,-280.7763 3.1238,-595.9004 -2.3405,-753.175 l -8.3232,-239.419 a 13.155981,12.975894 0 0 0 -3.239,-8.1206 l -30.8206,-34.5705 C 6760.4103,1023.8939 6671.1363,972.20515 6124.9928,668.97566 5899.0976,543.55177 5685.2393,422.77438 5653.7319,403.06363 5589.5334,362.906 5516.618,323.93442 5453.8707,294.82842 c -31.3736,-14.55527 -60.1834,-26.65436 -84.2726,-35.19303 -24.0919,-8.53639 -42.7054,-13.80092 -57.5919,-13.80092 z" />
  <path
     id="path352"
     style="fill:#ffca02;fill-opacity:1;stroke-width:11.0315"
     d="m 2882.0893,137.01985 c -20.862,0 -53.4335,3.30822 -83.6437,12.73757 -30.2103,9.42934 -59.9621,22.88035 -101.0549,43.53402 -82.1832,41.30507 -211.5639,113.65879 -453.8035,249.89121 -216.5077,121.76124 -452.7139,253.47437 -520.2136,290.13974 -170.022,92.35078 -267.9876,146.84101 -337.6758,198.41155 -69.6905,51.57058 -115.4873,120.98416 -131.8756,179.24166 -9.7168,34.5454 -6.0149,34.7681 -7.0193,50.1459 -1.0136,15.3778 -1.7968,33.9865 -2.5662,56.3602 -1.5435,44.7451 -2.7759,104.0841 -3.778,173.7817 -2.0042,139.3952 -3.0317,319.7297 -3.0593,500.1346 0,180.4072 0.9215,360.7508 2.8796,500.1369 0.9906,69.6908 2.2115,129.0411 3.7342,173.7816 0.7602,22.3692 1.5665,40.9847 2.564,56.3602 0.9906,15.3733 -2.7229,15.521 7.0193,50.146 33.8846,120.4411 132.1474,179.087 281.8395,261.7835 63.0513,34.8318 339.7698,187.9529 614.5648,340.0199 156.9833,86.8724 283.1411,155.2183 371.9613,201.5628 44.41,23.1738 79.2022,40.7441 105.6898,53.1657 13.2438,6.2098 23.8797,11.0289 36.2643,15.664 6.1922,2.3177 11.9191,4.6942 25.1514,7.5003 6.6161,1.4088 14.6213,3.5604 32.7097,2.8836 18.0884,-0.6817 62.3625,-2.529 97.5901,-52.3635 25.2275,-35.6884 19.2771,-40.7555 21.0579,-48.9056 1.7738,-8.1502 2.5593,-14.0167 3.3287,-20.1039 1.5435,-12.1717 2.5157,-24.507 3.3749,-38.6512 1.7278,-28.29 2.7414,-62.8901 2.7897,-99.8054 0.2305,-134.2194 23.7094,-201.5881 37.8838,-219.9355 4.8055,-6.2189 102.6352,-81.5173 399.1376,-245.2311 68.6262,-37.8923 135.1606,-76.1209 188.1172,-107.8376 26.4807,-15.8572 49.4712,-30.0103 68.3014,-42.1571 18.8301,-12.1468 29.2105,-17.4432 49.7615,-35.902 l 38.2454,-34.3478 a 123.41739,121.72798 0 0 0 40.3141,-88.888 l 1.3131,-141.0334 c 4.9137,-538.1905 8.906,-866.6816 14.0823,-1064.2161 2.5893,-98.7695 5.5542,-164.9862 8.7286,-206.18 3.1767,-41.1937 13.1609,-63.4333 2.1654,-38.9625 11.622,-25.8523 50.8903,-71.49485 135.0708,-123.45853 24.5433,-15.15057 46.6078,-29.8558 64.9703,-43.31361 9.1824,-6.7278 17.1899,-12.783 26.3216,-20.90135 4.5659,-4.05802 9.3253,-8.19329 16.6924,-16.86373 7.3671,-8.67047 30.4614,-9.35664 30.4614,-81.07646 0,-45.09499 -19.4499,-70.45424 -31.6317,-85.2935 -12.1794,-14.83931 -22.3639,-23.08942 -32.8894,-31.37587 -21.0509,-16.57291 -44.493,-31.64623 -78.4236,-52.23176 -67.8614,-41.17328 -176.0576,-101.98686 -352.2096,-199.43398 -228.1803,-126.22824 -347.0218,-191.84965 -422.3977,-229.0308 -37.6879,-18.59284 -65.196,-30.72829 -94.1254,-39.18517 -28.9318,-8.45914 -59.7225,-10.69719 -77.705,-10.69719 z" />
  <path
     id="path348"
     style="fill:#000000;fill-opacity:1;stroke-width:15.5941"
     d="m 2911.2284,9.3851768 c -17.4894,-1.954032 -37.7962,-1.863147 -63.2702,5.2690722 -25.4762,7.129946 -57.0456,20.306032 -105.8764,44.376985 -97.6593,48.146446 -264.7786,140.054146 -580.1319,314.526516 -424.1323,234.6566 -648.8733,359.46018 -774.8699,432.6796 -125.9966,73.21941 -156.1147,97.17676 -183.6297,125.50568 l -43.3043,44.5156 a 28.630618,28.238705 0 0 0 -8.0145,19.55392 v 877.84005 c 0,495.186 -1.7047,730.0879 13.3567,855.5141 7.5261,62.7131 19.6894,100.5418 42.1801,127.7233 22.493,27.1837 50.0978,38.7398 80.8494,55.7512 36.5361,20.2106 292.6714,162.0939 569.0236,315.3558 276.3799,153.278 563.7206,312.15 639.1864,353.3551 73.2496,39.9939 160.1024,100.1056 181.9434,122.3156 l 43.8664,44.6543 7.5929,550.0031 c 3.6398,260.2342 6.1853,401.2902 11.3893,484.1297 2.6031,41.421 5.8628,68.3686 10.8272,89.3109 4.9644,20.942 12.5228,36.2858 20.6685,48.537 27.6463,41.5825 42.1202,66.7076 150.3049,133.8264 108.187,67.1187 315.0561,183.0019 745.2033,424.7747 161.3694,90.7013 318.0992,177.1717 440.6542,243.5201 122.5527,66.351 207.0165,111.0346 237.9018,123.5655 25.5176,10.3517 52.8805,19.6992 77.1911,26.6271 24.3106,6.9211 43.5392,11.8878 61.4433,12.065 38.6717,0.3637 84.0056,-19.0792 204.2983,-81.6832 120.295,-62.6039 314.5492,-170.6053 639.6078,-353.6322 151.8322,-85.4911 299.0894,-167.7557 414.0792,-231.4574 114.992,-63.7013 199.2878,-109.637 219.3434,-119.5413 129.5236,-63.9648 195.5765,-119.8843 234.9485,-203.8579 16.6876,-35.5904 27.0197,-67.1232 31.9172,-167.6649 4.9001,-100.5397 6.2707,-275.2574 8.2955,-612.269 2.3036,-383.3174 4.0892,-724.5663 3.9393,-761.7658 -0.2285,-43.8863 6.3928,-66.2917 49.0704,-104.5658 42.6753,-38.274 123.3819,-87.0816 261.945,-162.8095 136.4394,-74.5668 288.8681,-163.1958 343.7782,-200.5292 38.5774,-26.2294 69.5018,-43.4953 95.0471,-72.3923 25.5476,-28.8947 41.4152,-67.4414 50.6183,-127.3075 18.4039,-119.7299 15.7849,-334.0373 15.748,-793.1077 -0.033,-237.9898 -1.6128,-443.0291 -4.3562,-592.8557 -1.3823,-74.9122 -3.1515,-136.0166 -5.0614,-180.698 -0.9674,-22.3419 -1.843,-40.4781 -2.9511,-54.5017 -1.1054,-14.0235 -1.5893,-22.0623 -4.3539,-31.8961 -11.1104,-39.43517 -41.4566,-85.32769 -74.2399,-116.62854 -6.9893,-6.67553 -14.5639,-11.72875 -26.4347,-19.69257 -11.8685,-7.96607 -27.2548,-17.86348 -45.836,-29.40138 -37.1627,-23.07575 -87.242,-53.04742 -146.7894,-87.92237 C 6629.2282,708.75158 6472.2657,619.50457 6305.8441,527.21515 5973.414,342.86581 5634.342,152.99066 5554.3057,106.59829 5512.8537,82.572782 5468.7431,60.010523 5430.2927,42.667349 5391.8446,25.326445 5361.9036,13.086478 5337.0726,9.8009768 5293.3189,4.0115878 5248.7709,10.687108 5159.3493,53.207762 5069.9281,95.723871 4929.6004,174.52819 4678.0609,318.08594 4462.9147,440.87417 4323.9715,518.3743 4233.7531,564.79619 c -90.2208,46.42189 -134.2023,59.85248 -144.9627,59.90927 4.2963,-0.0227 -2.5824,-0.40897 -11.6704,-3.74448 -9.0903,-3.33321 -21.9816,-8.80678 -38.2454,-16.36388 -32.5278,-15.1142 -78.7646,-38.63303 -139.199,-70.86548 C 3778.8093,469.27126 3600.6714,369.70875 3355.9601,230.02498 3221.4652,153.25196 3124.9025,100.16134 3055.2074,65.272779 2985.5124,30.38421 2944.3942,13.072843 2911.2284,9.3851768 Z M 5302.0614,247.77487 c 32.0556,0 61.7612,6.70278 164.9308,58.52327 103.1673,51.81821 275.3179,147.46809 582.8044,320.34998 349.7283,196.63022 533.2544,300.15986 632.8582,359.73285 49.8027,29.78763 78.6307,48.56233 96.0327,61.85203 17.4043,13.2897 23.0618,20.0652 31.0743,30.6487 7.2772,9.6112 9.6592,12.1923 13.3565,28.1517 3.6997,15.9595 6.8257,44.6815 8.8574,96.1044 4.0686,102.848 4.2204,296.3017 4.2204,673.4277 0,373.97 -0.2318,567.476 -4.2204,671.0693 -2.0039,51.7978 -5.0816,81.2128 -8.717,97.6312 -3.635,16.4184 -5.8743,18.9473 -12.654,27.8745 -1.6585,2.204 -24.322,22.2873 -55.2578,43.8226 -30.9362,21.5352 -71.7179,47.8079 -117.1229,75.4415 -90.8131,55.2673 -200.4074,116.34 -288.5204,159.0651 -24.4787,11.8696 -52.4867,22.9281 -77.0506,30.7874 -24.564,7.8593 -47.3724,12.0627 -53.4289,12.065 -5.7431,0 -33.0922,-6.9936 -70.7248,-24.6844 -37.6326,-17.6909 -87.5831,-44.8451 -149.6024,-81.6831 -103.2525,-61.3271 -377.6099,-216.934 -611.206,-346.5591 -233.3452,-129.4864 -504.0947,-280.9739 -600.8026,-336.2981 -49.1693,-28.1289 -101.5616,-55.8353 -146.7894,-77.9386 -45.2281,-22.101 -81.4509,-38.3263 -105.8764,-45.07 -40.3466,-11.1425 -75.0375,-17.509 -139.0561,7.7662 -64.019,25.2752 -164.885,78.9861 -369.508,187.0781 -68.7459,36.3155 -132.7325,69.2092 -180.2548,93.0551 -18.7473,9.4067 -32.4494,16.0299 -45.2739,22.1874 -0.2305,-4.3534 -0.5068,-6.4142 -0.7142,-11.5106 -1.313,-33.1504 -2.3359,-81.5922 -3.0938,-141.4515 -1.5204,-119.7209 -1.8199,-285.1524 -0.5529,-467.0729 2.6101,-378.9982 3.3265,-563.0067 19.9659,-655.6778 8.3185,-46.3356 19.1895,-67.6891 34.8706,-84.0393 15.6787,-16.3503 40.0607,-29.415 77.0506,-50.34141 41.9244,-23.71877 359.2635,-200.24059 703.1616,-391.07461 256.0383,-142.08086 415.0005,-228.65134 515.3134,-279.44028 100.3132,-50.78893 143.6888,-63.79233 155.9305,-63.79233 z m -2462.6797,5.26907 c 23.9627,-4.43293 72.0264,-2.64022 93.0796,3.05147 -0.8984,-0.24995 6.2014,2.38574 15.0429,6.38014 8.8438,3.99214 20.7376,9.61566 35.0111,16.64109 28.5493,14.05086 66.8662,33.65027 112.0618,57.27361 90.3911,47.24895 208.3388,110.63004 331.6862,178.61901 132.2142,72.87858 230.6936,126.75537 300.6098,168.08089 69.9185,41.32552 111.426,71.32898 126.826,89.30836 7.7011,8.99083 8.1665,13.03068 8.155,14.14629 -0.013,1.11334 -0.2766,3.85126 -6.6092,10.67901 -12.6587,13.65324 -46.7253,35.19076 -92.377,63.79233 -46.8335,29.34232 -83.0241,48.00332 -112.9049,76.41176 -29.8786,28.40845 -49.8444,66.4008 -61.4434,123.4245 -23.1979,114.0496 -21.5899,312.6565 -26.1535,743.323 l -7.7334,727.6499 -36.4163,28.7084 c -9.5579,7.5253 -41.906,28.4993 -82.1118,52.5589 -40.2059,24.0596 -89.5181,52.2954 -137.7914,78.7702 -97.7583,53.611 -246.036,139.034 -330.8431,190.5455 -99.7602,60.5954 -158.1973,99.5079 -191.7824,161.2849 -33.5875,61.7747 -38.2685,137.3458 -42.7445,268.3433 -1.7739,51.7818 -4.5636,98.8034 -7.4524,132.3016 -0.5529,6.3825 -0.9906,9.3702 -1.5434,14.6984 -3.004,-1.6132 -4.4899,-2.3449 -7.874,-4.1604 -26.2548,-14.0757 -63.6456,-34.3499 -109.249,-59.2161 -91.2112,-49.7301 -215.001,-117.6555 -347.2935,-190.5455 -264.5829,-145.7799 -563.3959,-311.5137 -703.7236,-390.936 -75.6546,-42.8206 -122.7508,-76.0255 -151.4314,-108.0331 -28.6783,-32.0052 -40.9108,-62.6358 -47.6628,-109.4167 -2.8174,-19.5085 -6.6023,-116.2172 -8.5789,-242.5499 -1.9811,-126.335 -3.0108,-286.4271 -3.0915,-447.3803 0,-160.9532 0.8293,-322.6971 2.67,-452.6516 1.8429,-129.9523 4.9828,-230.2282 8.2955,-259.6069 7.5905,-67.3141 17.7128,-101.3552 60.1786,-142.9784 42.4681,-41.6254 121.4653,-89.59469 262.9311,-166.554 122.5826,-66.68705 422.9874,-234.24306 668.2909,-372.90895 122.3545,-69.16594 239.8852,-133.22411 330.2787,-180.56168 45.1979,-23.66879 83.6345,-43.22047 112.3428,-56.9964 14.3564,-6.8891 26.294,-12.33994 35.1516,-16.08669 8.8576,-3.74674 16.1971,-5.77803 14.2021,-5.40994 z m 1635.929,2028.74246 c 14.322,0 28.978,4.8419 56.6634,14.1463 2.6882,0.9088 30.1019,13.2897 66.3639,31.8962 36.2643,18.6065 84.6204,44.2156 141.59,74.8871 113.9348,61.3407 262.1088,143.0329 416.8898,230.0692 309.9374,174.2838 612.7334,342.3215 677.9939,375.8218 77.6493,39.8577 117.4866,71.772 138.0724,104.4248 l 31.0739,49.2325 v 815.7111 812.2458 l -34.5871,35.6407 c -18.8464,19.4039 -76.0624,61.9904 -119.3737,87.0905 -97.3664,56.4308 -926.9901,521.8811 -1153.9379,647.3574 -43.325,23.9528 -89.4904,46.6515 -128.3717,63.6537 -38.881,17.0002 -73.6412,28.204 -80.9877,29.122 -18.7656,2.3427 -16.031,5.1124 -34.0272,-0.2953 -17.9962,-5.3895 -54.7237,-21.783 -128.2313,-60.6023 -147.0152,-77.6366 -443.0131,-244.2223 -1065.6384,-593.6876 -62.6182,-35.1452 -124.8471,-71.2629 -174.3482,-100.9573 -49.5035,-29.6969 -88.2189,-54.5994 -96.7378,-61.2976 l -35.4304,-27.8744 -4.218,-812.3847 c -1.5665,-297.8444 -1.4743,-507.2599 0.7141,-645.6919 1.0827,-69.2158 2.6907,-120.6704 4.7802,-156.2906 1.0366,-17.8113 2.1654,-31.7099 3.3748,-41.4664 1.221,-9.7566 3.3288,-16.3207 2.5317,-14.4212 2.3037,-5.4827 14.3311,-21.4808 34.8683,-38.9694 20.5395,-17.4886 49.2201,-37.6923 83.8004,-58.6618 122.4329,-74.2419 445.0818,-256.485 743.6552,-422.1415 149.2867,-82.826 292.7129,-161.5076 402.4088,-220.7761 54.8479,-29.6354 101.2783,-54.4903 135.6835,-72.3924 17.2038,-8.9499 31.4313,-16.1457 42.0418,-21.3557 10.6109,-5.21 18.8441,-8.6478 18.6991,-8.5978 26.3883,-8.9658 40.374,-13.5487 54.6957,-13.451 z" />
  <path
     id="Selection"
     fill="none"
     stroke="#000000"
     stroke-width="22.8784"
     d="m 2815.4535,20.813994 c 157.801,-30.900978 235.2042,48.169175 368.5864,120.422936 0,0 598.9528,340.59241 598.9528,340.59241 0,0 289.801,152.00553 289.801,152.00553 64.733,11.13346 267.4555,-115.197 332.1886,-151.77833 0,0 575.916,-327.18683 575.916,-327.18683 81.0892,-47.26032 230.3664,-140.872108 322.513,-143.371452 89.3824,-2.2721302 178.534,63.619662 253.4031,106.790152 0,0 414.6596,232.43898 414.6596,232.43898 0,0 737.1727,408.52912 737.1727,408.52912 220.2305,129.28423 342.0943,143.14424 345.5497,427.16069 0,0 0,1340.5571 0,1340.5571 -0.2318,97.02 6.2201,188.8141 -57.8217,270.3836 -67.267,85.6593 -424.1047,267.8842 -541.131,333.5488 -68.1883,37.9446 -167.9371,79.2973 -206.869,148.143 -28.1046,49.9867 -23.4973,123.3766 -23.4973,179.4982 0,0 0,1226.9508 0,1226.9508 -0.461,337.6384 -161.7174,344.6821 -437.6964,496.6875 0,0 -829.3193,467.1503 -829.3193,467.1503 -89.6126,50.6685 -352.6911,206.3096 -437.6964,224.941 -123.7067,27.4928 -372.5025,-136.5552 -483.7695,-198.5842 0,0 -898.4292,-506.2307 -898.4292,-506.2307 -110.1152,-59.5299 -332.8796,-162.2303 -377.801,-279.6995 -16.356,-42.9434 -13.822,-112.2432 -13.822,-158.822 0,0 0,-817.9669 0,-817.9669 0,-44.7611 2.7644,-116.3333 -13.822,-157.0043 -38.9319,-96.1113 -281.5078,-207.8999 -377.801,-257.6598 0,0 -875.3927,-492.1434 -875.3927,-492.1434 -217.2355,-126.3305 -322.0523,-107.9262 -322.513,-388.3072 0,0 0,-1454.1637 0,-1454.1637 0,-62.7108 -5.0681,-144.7347 26.9529,-200.40194 46.9947,-80.88788 296.0209,-202.9013 387.7067,-252.20654 0,0 1243.979,-690.273326 1243.979,-690.273326 z M 3875.1393,754.71223 c 0,0 -691.0994,-381.03631 -691.0994,-381.03631 -57.822,-30.901 -224.377,-131.55639 -276.4398,-140.87212 -95.1413,-16.81377 -347.3926,151.55113 -437.6963,203.58291 0,0 -760.2094,424.88846 -760.2094,424.88846 -89.3822,47.94196 -311.2251,149.73343 -351.5392,239.02823 -20.2723,44.9882 -17.0471,127.0121 -17.0471,176.999 0,0 0,1204.2293 0,1204.2293 0,62.7108 -4.8377,145.8708 26.9528,201.538 44.9215,78.1613 277.5916,189.9501 364.6702,236.9832 0,0 1013.6125,561.2164 1013.6125,561.2164 0,-147.6886 -35.0157,-383.3085 74.4083,-495.0973 61.5079,-62.9381 443.4555,-263.34 547.5811,-323.097 46.0733,-26.584 156.6492,-83.3872 183.8325,-124.0584 28.7958,-43.1705 23.4974,-120.4229 23.4974,-171.0914 0,0 0,-931.5737 0,-931.5737 0,-111.3344 -16.356,-338.093 33.4031,-430.796 50.2199,-93.3846 175.7696,-152.00557 266.0733,-205.40064 0,0 0,-45.44263 0,-45.44263 z m -92.1466,1658.65557 c 0,0 437.6963,-227.2131 437.6963,-227.2131 69.3403,-39.0806 173.6965,-106.7901 253.403,-108.1534 104.817,-2.0449 361.4453,164.275 460.733,221.5327 0,0 898.4294,497.1422 898.4294,497.1422 65.1935,36.8086 319.7487,203.8102 368.5863,210.8538 92.1467,13.1784 369.5077,-173.818 460.733,-223.5777 49.9895,-27.2655 129.9265,-59.0754 160.7957,-106.7901 28.5653,-44.3066 23.4973,-121.3318 23.4973,-172.9092 0,0 0,-1249.6719 0,-1249.6719 0,-42.7161 2.7643,-116.1059 -13.8221,-154.2777 -37.089,-84.9777 -268.3766,-192.67675 -354.7642,-239.02823 0,0 -783.246,-438.29403 -783.246,-438.29403 -97.9058,-57.25769 -328.9633,-219.0334 -437.6964,-186.76915 0,0 -437.6963,241.3003 -437.6963,241.3003 0,0 -714.1359,400.57664 -714.1359,400.57664 -222.3037,124.74007 -322.0524,112.6977 -322.5131,376.49217 0,0 0,1158.7867 0,1158.7867 z m 691.0993,-143.8259 c -124.8585,25.6751 -319.7485,154.9593 -437.6962,221.5327 0,0 -783.246,438.2941 -783.246,438.2941 -322.0523,182.9065 -322.0523,161.7757 -322.513,370.1301 0,0 0,1340.5571 0,1340.5571 0,51.8047 -5.0681,128.3754 23.4974,172.9094 34.3246,53.1676 213.0889,141.7808 275.979,177.4533 0,0 621.9894,350.5896 621.9894,350.5896 0,0 414.6597,230.8487 414.6597,230.8487 54.8272,30.2191 146.7434,94.2933 207.3297,94.5204 58.7436,0.2271 154.1153,-61.8019 207.33,-90.8849 0,0 414.6597,-228.1222 414.6597,-228.1222 0,0 552.8793,-315.3717 552.8793,-315.3717 70.2618,-36.1267 289.11,-147.9157 331.7279,-199.493 44.691,-53.6225 36.6283,-127.4666 36.8585,-192.4496 0,0 0,-1340.5571 0,-1340.5571 -0.4607,-263.7944 -100.6701,-253.797 -322.513,-371.9478 0,0 -783.2461,-439.8846 -783.2461,-439.8846 -104.356,-61.1203 -328.7327,-200.6291 -437.6963,-218.1245 z" />
  <text
     xml:space="preserve"
     id="text58"
     style="font-size:125px;line-height:1.25;font-family:'Linux Biolinum';-inkscape-font-specification:'Linux Biolinum';white-space:pre;shape-inside:url(#rect60);"
     transform="translate(1144.9415)" />
  <path
     id="path165"
     style="font-size:958.331px;line-height:1.25;font-family:'Linux Biolinum';-inkscape-font-specification:'Linux Biolinum';white-space:pre;stroke-width:1"
     d="m 257.45783,4920.053 -2.86253,1.7822 c -13.07356,44.0726 -36.56909,103.6331 -70.48931,178.6798 L 87.5486,5314.1435 C 52.729,5391.1801 23.5449,5448.1712 0,5485.1149 l 0.5494,3.3262 c 11.0045,2.92 26.1713,8.7497 45.5015,17.4865 19.3303,8.7372 33.8747,16.3372 43.6218,22.7969 l 2.8564,-1.7885 c 12.7893,-44.2014 36.1479,-103.8222 70.06814,-178.8692 l 96.55736,-213.6285 c 35.61785,-78.0454 64.93881,-134.9693 87.96971,-170.7758 l -0.5493,-3.3328 c -11.2888,-3.0481 -26.5986,-8.9387 -45.9288,-17.6755 -19.04598,-8.6085 -33.44135,-16.1419 -43.18838,-22.6012 z m 8066.86047,90.6794 c -26.7496,0.022 -56.2292,8.3366 -88.4457,24.9453 -44.3645,22.8711 -77.5904,60.8801 -99.6763,114.0315 l -0.7812,4.6144 43.518,49.6945 11.6578,-4.9621 c 5.0734,-63.6845 23.8324,-103.8866 56.2742,-120.6113 8.0409,-4.1453 15.0459,-7.2318 21.0206,-9.259 6.2515,-2.17 14.5399,-3.4569 24.8593,-3.8634 10.454,-0.8269 19.8924,0.8012 28.3143,4.8828 8.5559,3.6615 18.2056,11.1465 28.9486,22.4546 11.021,11.1653 21.2481,25.8952 30.6825,44.1955 2.859,5.5456 2.6328,9.8718 -0.6775,12.9822 l -70.2208,58.8376 c -38.8068,32.2902 -65.1798,65.8923 -79.1195,100.8057 -13.9396,34.913 -13.4749,66.7926 1.3916,95.6294 15.8668,30.778 37.1562,48.9314 63.873,54.4617 26.9943,5.3869 56.9876,-0.4272 89.9838,-17.4377 23.2915,-12.0075 40.9855,-25.3428 53.0823,-40.0024 12.3741,-14.8025 24.9278,-37.7652 37.6584,-68.8964 l 3.3265,-1.715 c 13.0047,13.6522 27.474,21.6356 43.408,23.9502 16.2116,2.1716 32.3615,-0.889 48.4437,-9.1796 28.5596,-14.7237 46.6533,-35.1118 54.2845,-61.1574 l -17.5903,-17.7793 c -6.7462,7.3384 -13.5821,12.7959 -20.514,16.3697 -11.9231,6.1465 -21.3159,8.3574 -28.1737,6.6284 -13.8587,-3.7356 -30.0096,-23.49 -48.4495,-59.2589 -4.8603,-9.4275 -16.4487,-32.9359 -34.7718,-70.5198 -18.3228,-37.5843 -27.9846,-57.3424 -28.9855,-59.2833 -31.1443,-60.4123 -72.2533,-90.5988 -123.3213,-90.5579 z m -292.0401,137.5546 c -4.4353,4.3547 -14.8553,10.7081 -31.2621,19.0491 -14.1822,7.2102 -24.2,11.2515 -30.0537,12.1277 3.2456,26.3465 8.654,63.4892 16.2293,111.4316 7.8535,47.8008 14.4212,91.0098 19.7022,129.62 5.1393,38.3321 8.1609,72.8404 9.0637,103.5275 l -2.0875,1.0559 c -17.5365,-14.5318 -34.7896,-29.2039 -51.7699,-44.0183 -16.8437,-15.234 -34.9542,-32.2727 -54.3332,-51.117 -19.5206,-19.1225 -34.6918,-34.1556 -45.5077,-45.1046 -10.8159,-10.9493 -28.0928,-28.4152 -51.8312,-52.3927 -23.6014,-24.3965 -39.0573,-40.3358 -46.362,-47.8208 -6.3819,5.3441 -20.1375,13.3887 -41.2718,24.1331 -23.9152,12.1584 -40.8842,19.7327 -50.9095,22.7296 115.5734,91.7251 230.4203,189.2445 344.5365,292.5589 4.7135,-4.4959 13.0484,-9.7778 25.0062,-15.8568 12.2356,-6.2203 21.2762,-9.7744 27.13,-10.6506 -13.8116,-104.2644 -25.905,-254.0218 -36.2793,-449.2726 z m 369.8784,32.2509 48.9926,103.2041 c 4.7172,9.1503 4.4803,18.5684 -0.7018,28.2593 -17.9559,37.3346 -38.2984,61.8623 -61.0352,73.5839 -18.8549,9.7202 -36.8224,12.3146 -53.8998,7.7818 -17.0778,-4.5328 -29.1162,-13.5921 -36.1206,-27.179 -10.5781,-20.5184 -13.2037,-40.9277 -7.8734,-61.2242 5.33,-20.2962 21.4443,-42.8171 48.3458,-67.5654 z m -928.721,22.6868 c -6.209,0.2969 -12.1796,1.8675 -17.9074,4.7119 -11.4556,5.6887 -19.4309,15.2262 -23.9318,28.6071 -4.3607,12.9628 -3.6991,25.1715 1.9896,36.6271 5.6885,11.4556 15.0847,19.4996 28.1859,24.1393 13.3809,4.5012 25.8002,3.9065 37.2558,-1.7822 11.4556,-5.6884 19.4309,-15.2203 23.9318,-28.6009 4.501,-13.3809 3.9063,-25.8002 -1.7821,-37.2558 -5.6885,-11.4556 -15.1516,-19.2953 -28.3934,-23.5168 -6.6906,-2.2506 -13.139,-3.2266 -19.3484,-2.9297 z m -7063.67109,12.8478 -2.8503,1.8006 c -9.5068,35.0452 -32.2684,92.8685 -68.2798,173.4736 l -21.37449,47.8514 c -31.04873,69.497 -57.09185,120.9047 -78.12479,154.2171 l 0.56153,3.3266 c 11.30197,2.9993 25.35837,8.2515 42.16298,15.7593 16.80461,7.5075 30.09304,14.469 39.86807,20.8859 l 2.8564,-1.8003 c 11.5428,-39.6024 32.4526,-93.2954 62.7379,-161.0836 l 45.6175,-102.1116 c 31.4508,-15.3328 61.3236,-23.6844 89.6116,-25.055 28.288,-1.3706 51.404,1.9566 69.348,9.9731 23.3555,10.4347 36.854,23.8112 40.4967,40.1305 3.9275,16.4469 -1.8087,41.8974 -17.2058,76.3611 l -38.1713,85.4488 c -29.5217,66.0792 -55.5648,117.4869 -78.1248,154.2174 l 0.5616,3.3262 c 11.3019,2.9994 25.3583,8.2516 42.1629,15.7594 16.8047,7.5075 30.0931,14.469 39.8681,20.8862 l 3.2837,-1.6116 c 11.8942,-41.1536 32.6616,-94.9085 62.3106,-161.2727 4.1992,-9.399 11.0368,-23.9446 20.5139,-43.6277 9.477,-19.6834 16.3207,-34.2224 20.5199,-43.6217 20.8688,-46.7112 27.8446,-85.277 20.935,-115.6978 -6.6247,-30.2937 -29.1633,-54.0311 -67.6145,-71.2095 -55.8255,-24.9409 -117.9422,-21.2612 -186.3582,11.0412 l -0.5676,-3.3266 28.4423,-63.6532 c 2.6722,-5.9816 2.3009,-9.7403 -1.117,-11.2672 -23.428,-5.6834 -47.4539,-15.3887 -72.0701,-29.1199 z m 7176.64079,157.6352 c -1.334,0.075 -3.259,0.7409 -5.7737,1.9897 -24.0365,14.7224 -48.768,27.3452 -74.1883,37.8783 l -0.4271,3.3509 c 22.5111,32.7074 52.6358,87.057 90.3744,163.0549 l 23.3093,46.9421 c 31.9115,64.2629 55.0002,117.0634 69.2564,158.398 L 7691.88,5787 c 9.5053,-6.81 22.4981,-14.3053 38.9831,-22.4915 16.4849,-8.1859 30.3149,-14.0109 41.4855,-17.4681 l 0.8484,-3.5521 c -25.5656,-38.1568 -53.8192,-88.3882 -84.7595,-150.6956 l -30.1818,-60.7723 c -24.6946,-50.4318 -46.4601,-100.9219 -65.2951,-151.4768 -2.0812,-4.1912 -3.8859,-6.4306 -5.42,-6.7137 -0.3134,-0.1057 -0.6903,-0.1472 -1.1353,-0.1222 z m -352.4587,10.6506 c -1.1353,0.114 -2.3303,0.4772 -3.595,1.0865 -3.1219,3.5819 -7.6741,9.2356 -13.6475,16.9616 -5.8275,7.3093 -11.3543,13.4374 -16.589,18.3837 -4.954,4.8109 -11.5197,9.8759 -19.6899,15.1977 l -0.4641,3.3385 c 16.8443,40.7095 33.4571,78.0669 49.8414,112.0725 -23.0452,11.1034 -38.9158,18.059 -47.6073,20.8618 0.7843,13.1271 0.1462,27.9759 -1.9104,44.5496 l 7.2631,4.2906 c 13.51,-7.8944 33.7562,-18.3425 60.7358,-31.3415 l 56.8724,118.0356 c 9.4787,19.6725 21.7771,46.6421 36.9017,80.9079 15.2706,33.8496 24.4675,54.0096 27.5818,60.4736 12.7285,26.4174 29.8475,43.2696 51.3671,50.5614 21.8009,7.1563 43.3811,5.5913 64.7398,-4.6996 33.2977,-15.6972 61.5277,-42.2821 84.6801,-79.7545 l -20.8984,-16.4247 c -19.1184,19.2534 -40.6617,32.4034 -64.6239,39.4471 -20.4646,6.3972 -41.3924,-12.6028 -62.7867,-57.0067 -3.1143,-6.464 -10.2762,-22.4087 -21.4843,-47.8271 -11.3437,-25.6996 -21.7531,-48.3814 -31.2318,-68.0541 l -52.4045,-108.7641 32.8796,-15.8387 c 30.0708,-14.4887 51.1436,-23.9478 63.2076,-28.3753 -3.574,-13.1678 -5.8906,-26.6002 -6.9456,-40.2892 l -7.2631,-4.2907 c -28.6865,15.2066 -48.5121,25.4503 -59.4726,30.7312 l -40.8874,19.7021 c -22.4675,-47.3498 -41.169,-90.1075 -56.0971,-128.2774 -2.2418,-4.1138 -5.0659,-6.0003 -8.4718,-5.6578 z m -6313.52059,67.3032 c -10.9106,0.083 -21.7602,1.2857 -32.55,3.6135 -34.4028,7.1624 -58.9997,27.7733 -73.7913,61.8223 -13.6728,31.4734 -14.6951,59.2592 -3.0578,83.3613 11.7616,23.8162 32.1732,47.3071 61.2242,70.4711 27.1349,21.3115 45.7365,39.9405 55.8165,55.8836 10.08,15.9434 10.77,33.9265 2.0691,53.9552 -9.8196,22.6037 -25.0275,37.253 -45.6237,43.9511 -20.4719,6.4122 -42.7257,4.3987 -66.7601,-6.0425 -38.7885,-17.1906 -64.206,-53.4064 -76.2632,-108.6422 l -13.6779,-4.9194 -46.6613,67.4802 c 38.085,35.2518 78.8722,62.3261 122.363,81.2194 28.6124,12.4297 54.9764,19.4591 79.0952,21.0937 24.2431,1.3485 44.1699,-2.2353 59.7777,-10.7606 15.8939,-8.4009 28.7804,-18.1087 38.6657,-29.1199 10.1714,-10.8865 18.1813,-23.0509 24.02329,-36.4986 14.2944,-32.9043 14.3585,-62.8092 0.1954,-89.7095 -14.16319,-26.9002 -37.48609,-52.6814 -69.97059,-77.3373 -48.77,-36.4924 -66.0093,-71.1848 -51.7149,-104.0891 7.7065,-17.7396 19.9053,-28.6015 36.5966,-32.5743 16.8156,-4.2593 34.9501,-2.1596 54.4066,6.2925 14.02,6.0906 26.01869,16.06 35.98619,29.9134 10.0917,13.5675 16.4641,24.3337 19.1284,32.2937 3.0746,7.7977 7.3984,20.5577 12.9638,38.2811 l 12.3901,4.364 45.7518,-57.1654 -0.415,-3.7475 c -26.1804,-32.1209 -61.8723,-58.0036 -107.07979,-77.6426 -24.5888,-10.6822 -48.8846,-15.9297 -72.888,-15.7472 z m 369.94529,16.98 -2.8137,1.8678 c -19.3095,39.5996 -36.265,76.8039 -50.8605,111.6147 -23.5907,-9.8912 -39.3133,-17.159 -47.1739,-21.8081 -9.3074,9.2903 -20.8479,18.6587 -34.6191,28.1068 l 1.5992,8.2825 c 14.8671,4.8803 36.1142,13.1087 63.7327,24.6887 l -50.6651,120.8309 c -8.4437,20.1384 -20.4766,47.2274 -36.1022,81.2679 -15.2174,33.8737 -24.2154,54.1193 -26.9897,60.7361 -11.3387,27.0431 -12.6046,51.0339 -3.7964,71.9786 9.0959,21.0652 24.5769,36.1814 46.4415,45.3489 33.8271,14.5212 72.4416,18.0268 115.8444,10.5162 l -1.5564,-26.5318 c -27.0888,-1.5481 -51.2157,-8.9534 -72.3752,-22.2227 -18.3569,-11.0794 -18.0088,-39.3468 1.0498,-84.802 2.7743,-6.6172 9.965,-22.5477 21.5636,-47.7905 11.7193,-25.5305 21.7992,-48.3674 30.2429,-68.5057 l 46.6795,-111.3338 33.6608,14.1112 c 30.7831,12.9069 51.8339,22.4068 63.1468,28.5034 7.4884,-11.4059 16.0067,-22.0378 25.5554,-31.9031 l -1.6052,-8.2824 c -30.4026,-11.3941 -51.2127,-19.4412 -62.4327,-24.1456 l -41.8578,-17.5534 c 20.5525,-48.2117 40.1712,-90.5569 58.8499,-127.0384 2.1248,-5.8744 0.5947,-9.9015 -4.5837,-12.0728 -4.7515,0.038 -11.9966,0.3813 -21.7407,1.0316 -9.3358,0.4831 -17.5944,0.4078 -24.768,-0.2319 -6.8859,-0.5194 -15.0252,-2.0744 -24.4262,-4.6631 z m 333.9163,51.0436 c -6.2134,0.1847 -12.5651,1.6631 -19.0612,4.425 -12.5861,5.3509 -21.2712,13.9562 -26.0558,25.8177 -4.7846,11.8616 -4.5629,24.2278 0.6714,37.1034 5.5235,12.9921 14.2186,21.8815 26.0802,26.6662 11.8616,4.7843 24.288,4.4124 37.2802,-1.111 12.9921,-5.5237 21.8816,-14.2124 26.6662,-26.0743 4.7845,-11.8615 4.3585,-24.144 -1.2818,-36.8468 -5.5235,-12.9921 -14.2186,-21.8815 -26.0802,-26.6661 -5.9308,-2.3922 -12.0055,-3.4988 -18.219,-3.3141 z m 4975.2554,91.9491 c -10.0213,6.0253 -20.1056,11.0688 -30.2431,15.1247 -9.8475,3.9397 -20.4727,7.179 -31.8846,9.7287 l -0.6959,3.3022 c 22.7112,39.9693 49.3636,98.1875 79.956,174.6517 l 94.9032,237.2125 c 2.955,8.2256 4.8681,14.6862 5.7375,19.3784 1.5647,8.11 -0.2338,12.0203 -5.3894,11.7309 -5.1559,-0.2891 -25.7465,-11.0331 -61.7798,-32.2324 l -462.9869,-272.8996 -11.9081,6.7809 c -20.2743,8.1115 -33.0736,12.225 -38.403,12.3412 l -0.6959,3.3019 c 37.0805,80.9238 78.0144,179.4545 122.8024,295.5986 45.0774,116.0281 77.7873,209.9622 98.126,281.7927 l 2.7769,1.9103 c 10.0215,-6.0253 19.9559,-11.0075 29.8037,-14.9475 10.1371,-4.0559 20.9121,-7.3625 32.3239,-9.9122 l 0.696,-3.3018 c -22.7112,-39.9693 -49.364,-98.1816 -79.9561,-174.6455 l -84.9972,-212.4507 c -6.1416,-15.3509 -10.2278,-25.9821 -12.2559,-31.8908 -2.1438,-6.1984 -2.1982,-10.54 -0.171,-13.0309 1.9116,-2.781 5.8222,-2.6641 11.7309,0.3478 6.0828,2.6062 15.9884,8.0503 29.7181,16.3331 l 467.1556,268.2058 c 16.395,9.9047 31.9815,11.8975 46.753,5.9878 10.1372,-4.0559 12.1356,-15.4387 5.9934,-34.1493 -12.2831,-32.3811 -30.1868,-79.6466 -53.7105,-141.8024 -23.2343,-62.272 -41.2264,-110.1794 -53.9733,-143.7193 -12.8627,-33.8293 -28.4221,-76.4929 -46.6736,-127.9903 -18.2515,-51.4974 -34.9102,-101.1138 -49.9755,-148.8462 z m 411.9373,48.7365 c -24.8084,0.1678 -52.2121,7.0724 -82.2082,20.7093 -45.4377,20.6568 -80.4967,56.9858 -105.1754,108.9841 l -1.0071,4.5715 41.0155,51.7699 11.8896,-4.3763 c 8.2063,-63.3573 28.9256,-102.5884 62.152,-117.6937 8.2356,-3.7441 15.3866,-6.4791 21.4537,-8.2094 6.3513,-1.8593 14.685,-2.7393 25.0122,-2.6365 10.4821,-0.3106 19.8293,1.7825 28.0396,6.2743 8.3649,4.0788 17.6346,12.0284 27.8074,23.8525 10.4568,11.6946 19.9459,26.9171 28.4668,45.6602 2.5822,5.6796 2.1472,9.9899 -1.3122,12.9334 l -73.0407,55.3039 c -40.3512,30.338 -68.3467,62.5995 -83.9901,96.7832 -15.6437,34.1833 -16.7534,66.046 -3.3266,95.5806 14.3309,31.5225 34.7024,50.7037 61.1142,57.544 26.6962,6.7109 56.9402,2.3812 90.7348,-12.9822 23.8549,-10.845 42.1877,-23.2896 54.9927,-37.3352 13.0887,-14.1747 26.7596,-36.4959 41.0092,-66.9614 l 3.406,-1.5503 c 12.3155,14.2762 26.3743,22.9646 42.1748,26.0618 16.085,2.9681 32.3631,0.7072 48.8343,-6.7809 29.2505,-13.2978 48.327,-32.7609 57.2326,-58.3983 l -16.693,-18.6278 c -7.0997,6.9969 -14.1956,12.1103 -21.2953,15.3381 -12.2115,5.5513 -21.7024,7.2894 -28.4668,5.2244 -13.6578,-4.4141 -28.8102,-24.9378 -45.4649,-61.572 -4.3896,-9.6556 -14.8077,-33.7018 -31.2561,-72.1433 -16.4481,-38.4418 -25.1275,-58.6564 -26.0312,-60.6445 -29.4684,-64.8201 -71.4898,-97.0488 -126.0678,-96.6794 z m -5204.0511,18.7743 -2.7526,1.9472 c -18.0951,40.1689 -33.9074,77.871 -47.4364,113.11 -23.881,-9.1684 -39.8225,-15.954 -47.8209,-20.3612 -9.0203,9.569 -20.2691,19.2871 -33.7463,29.1502 l 1.8555,8.2275 c 15.0088,4.4256 36.4947,12.0078 64.4529,22.7415 l -46.9603,122.3144 c -7.8267,20.3862 -19.0359,47.8295 -33.6181,82.33 -14.179,34.3209 -22.5503,54.8312 -25.122,61.5293 -10.5101,27.3758 -11.0469,51.3973 -1.6052,72.0641 9.7329,20.7787 25.6691,35.4171 47.8026,43.9146 34.2535,13.485 72.9528,15.8106 116.1069,6.9825 l -2.3682,-26.4709 c -27.1234,-0.7228 -51.4624,-7.3943 -73.0161,-20.0134 -18.6857,-10.5156 -19.1919,-38.7814 -1.5259,-84.796 2.5716,-6.6981 9.2679,-22.8349 20.0927,-48.4189 10.9366,-25.8756 20.3165,-49.0108 28.1432,-69.397 l 43.2738,-112.701 34.0759,13.0797 c 31.1617,11.9637 52.4897,20.8196 63.9829,26.5687 7.1377,-11.6284 15.3227,-22.5206 24.5666,-32.6721 l -1.8493,-8.2275 c -30.7353,-10.4634 -51.7827,-17.8746 -63.1407,-22.2349 l -42.3766,-16.2722 c 19.0753,-48.8149 37.3965,-91.7385 54.9559,-128.7715 1.945,-5.9366 0.2983,-9.9075 -4.9438,-11.92 -4.7481,0.1819 -11.9843,0.7441 -21.7041,1.6906 -9.3167,0.7669 -17.5721,0.94 -24.7619,0.5188 -6.8985,-0.3094 -15.085,-1.6113 -24.5605,-3.9125 z m -284.8198,18.5121 -2.7893,1.9041 c -9.4962,38.5533 -30.1113,97.1747 -61.8528,175.8664 l -19.6044,48.602 c -26.8403,66.5408 -50.9775,118.8688 -72.4058,156.9821 l 0.6835,3.3019 c 11.4046,2.5819 25.6432,7.3178 42.7123,14.2028 17.0691,6.8853 30.6085,13.3556 40.6127,19.4093 l 3.2166,-1.7275 c 11.5408,-44.4561 30.3241,-98.9422 56.3475,-163.4577 l 25.3844,-62.927 c 21.2947,-51.9586 44.5813,-101.7654 69.8607,-149.4259 1.7504,-4.3396 2.2231,-7.1796 1.416,-8.5143 -0.5179,-1.2181 -2.5159,-2.5244 -5.9876,-3.9247 -26.9712,-8.1881 -52.8349,-18.2865 -77.5938,-30.2915 z m 5565.6041,136.3093 43.8474,105.487 c 4.2606,9.3715 3.5663,18.768 -2.0875,28.1918 -19.774,36.4042 -41.3061,59.9026 -64.5932,70.4894 -19.3112,8.7791 -37.3837,10.4838 -54.2174,5.1147 -16.8334,-5.369 -28.4149,-15.0152 -34.7412,-28.9305 -9.5537,-21.0153 -11.1702,-41.5265 -4.8462,-61.5355 6.3244,-20.009 23.5353,-41.7074 51.6236,-65.1001 z m -5054.7961,63.0552 -2.6916,2.0325 c -8.1609,40.4349 -24.4729,95.7004 -48.9318,165.8017 l -37.921,108.691 c -12.435,35.6396 -13.5839,68.7686 -3.4546,99.3957 10.5265,30.4349 36.5515,52.8983 78.0821,67.3885 25.9198,9.0438 54.0377,8.9466 84.3564,-0.299 30.6132,-9.1428 58.8352,-23.749 84.6678,-43.8109 l 2.6123,3.8878 -23.6389,81.9517 c -0.6166,1.7672 0.256,3.0597 2.6123,3.8819 14.4602,3.0628 26.6981,6.3387 36.7126,9.8328 14.7272,5.1384 27.8163,10.6999 39.276,16.6808 l 2.6916,-2.0325 c 8.8059,-58.382 23.8502,-118.0574 45.1232,-179.0279 l 18.0358,-51.6964 c 25.5756,-72.3551 47.3347,-125.7222 65.277,-160.1012 l -0.8423,-3.2653 c -11.5147,-2.035 -26.1078,-6.1384 -43.7804,-12.3046 -17.3781,-6.0634 -31.2102,-11.8741 -41.4916,-17.4437 l -2.6916,2.0325 c -8.3802,42.0105 -24.5413,97.3316 -48.4863,165.9601 l -30.9874,88.7998 c -24.1544,19.9868 -51.2033,35.4943 -81.1522,46.5208 -29.5515,10.835 -54.934,12.5569 -76.1411,5.1575 -19.1453,-6.68 -31.8596,-18.0603 -38.1469,-34.1305 -6.2873,-16.0706 -2.8018,-43.1012 10.4553,-81.0973 l 31.2927,-89.691 c 25.281,-72.4576 46.8891,-125.8744 64.8313,-160.2533 l -0.8423,-3.2657 c -11.5147,-2.0349 -25.9567,-6.0824 -43.3348,-12.1459 -17.378,-6.0634 -31.2101,-11.8802 -41.4916,-17.4499 z m 601.5365,47.113 c -4.7242,0.5097 -11.902,1.5759 -21.5332,3.1922 -9.2414,1.4093 -17.4625,2.1509 -24.6642,2.2278 -6.9034,0.1681 -15.1623,-0.5688 -24.7741,-2.2097 l -2.6123,2.1362 c -15.2755,41.324 -28.4469,80.0295 -39.508,116.1191 -24.4574,-7.4959 -40.8247,-13.1662 -49.1087,-17.0103 -8.3373,10.1697 -18.8895,20.6378 -31.6528,31.4087 l 2.417,8.0872 c 15.2788,3.3775 37.2358,9.449 65.869,18.2249 l -38.391,125.2744 c -6.399,20.8783 -15.6814,49.0283 -27.8442,84.4541 -11.773,35.219 -18.7104,56.2561 -20.8129,63.1161 -8.5929,28.0368 -7.4662,52.0383 3.3813,72.0032 11.1458,20.0562 28.0522,33.5615 50.7201,40.5087 35.1036,11.0853 73.8737,10.734 116.3144,-1.0556 l -4.1931,-26.2453 c -27.1085,1.1538 -51.8442,-3.8237 -74.2186,-14.9231 -19.3677,-9.1987 -21.8347,-37.3589 -7.3913,-84.4844 2.1025,-6.86 7.6686,-23.4237 16.6992,-49.6949 9.1221,-26.5693 16.8859,-50.2945 23.2848,-71.1729 l 35.3759,-115.4294 34.8998,10.6997 c 31.9141,9.7812 53.7983,17.1412 65.6615,22.0824 6.3168,-12.094 13.7392,-23.5234 22.2594,-34.2896 l -2.417,-8.0809 c -31.385,-8.3141 -52.894,-14.2572 -64.5262,-17.8225 l -43.4019,-13.2993 c 15.6558,-50.0167 30.9649,-94.1048 45.9227,-132.2628 1.53,-6.0568 -0.3869,-9.9084 -5.7556,-11.554 z m 2473.2234,97.7841 c -0.6269,0.029 -1.285,0.1166 -1.9716,0.2625 -23.9721,16.2575 -49.7998,28.2806 -77.4838,36.0777 l -1.1475,3.595 c 12.1078,29.9571 27.7249,89.9451 46.8567,179.9617 l 59.9239,281.9511 c 15.3056,72.0133 24.5284,128.8906 27.6612,170.6418 l 2.4109,2.3618 c 10.9009,-4.2303 25.3559,-8.2584 43.3593,-12.0846 18.0034,-3.8266 32.8455,-6.0294 44.5249,-6.5981 l 1.7028,-3.2288 c -15.0069,-42.0977 -29.8702,-97.7794 -44.5921,-167.0467 l -23.248,-109.3928 c 16.3927,-30.9115 35.767,-55.2852 58.1295,-73.1139 22.3627,-17.8287 42.8549,-28.7221 61.4683,-32.6781 25.0218,-5.3181 43.9592,-2.4849 56.8176,8.496 12.8584,10.9809 23.2134,34.9346 31.0606,71.8566 l 19.4521,91.5401 c 15.5187,74.5195 24.589,131.4356 27.203,170.7455 l 2.411,2.3559 c 10.9012,-4.2303 25.3558,-8.2584 43.3592,-12.0849 18.3084,-3.8913 33.3034,-6.1207 44.9827,-6.6894 l 1.2453,-3.1372 c -14.2934,-38.7411 -29.1571,-94.4232 -44.592,-167.0467 -2.0757,-9.7644 -5.0797,-25.3915 -9.0091,-46.8808 -3.689,-21.8597 -6.6,-37.8246 -8.7399,-47.8943 -10.636,-50.0433 -27.7056,-85.3207 -51.2024,-105.8409 -23.1915,-20.5847 -55.3817,-26.504 -96.5757,-17.7487 -60.1126,12.7759 -108.3125,52.3629 -144.5918,118.7556 l -2.4109,-2.356 -29.6693,-139.6052 c -9.2281,-44.9208 -18.7515,-103.9672 -28.5643,-177.148 -1.4588,-5.5503 -4.3831,-8.2262 -8.7706,-8.0262 z m -192.3029,32.489 c -0.6275,-0.015 -1.2888,0.03 -1.9838,0.1281 -25.0421,14.5553 -51.6452,24.7571 -79.8032,30.6152 l -1.3916,3.5094 c 10.0003,30.7249 21.3765,91.3388 34.1309,181.8476 l 37.6705,267.3578 c 12.145,86.1844 18.2906,149.8992 18.4328,191.1494 l 2.2459,2.5207 c 11.1684,-3.4638 25.8665,-6.4769 44.0918,-9.0453 18.2252,-2.5681 33.1824,-3.7341 44.873,-3.4913 l 1.9225,-3.1065 c -11.7891,-41.184 -23.644,-104.0926 -35.5712,-188.7323 l -40.0939,-284.5027 c -5.6547,-42.3633 -11.0978,-102.24 -16.3328,-179.632 -1.0703,-5.6381 -3.8,-8.5131 -8.1909,-8.6181 z m -1212.3443,42.3767 c -103.8929,171.6393 -225.6546,368.2394 -365.2883,589.8053 7.6707,-0.8475 18.772,-0.2815 33.3007,1.6906 21.0202,2.8538 35.2665,5.7328 42.7428,8.6366 20.5671,-49.4677 56.7869,-119.1653 108.6606,-209.0876 25.2906,1.5444 66.2019,6.3122 122.7291,14.3006 49.8106,6.4469 86.799,12.2556 110.9678,17.4256 21.3992,95.1463 36.0294,171.7414 43.8902,229.7906 11.0711,-0.3862 27.1181,0.8513 48.1383,3.7047 26.8936,3.6506 45.6213,7.1381 56.1888,10.4615 -10.1338,-29.7093 -25.0348,-82.266 -44.7081,-157.6595 -19.6312,-75.7027 -42.582,-165.234 -68.8475,-268.5968 -26.2235,-103.6719 -46.6674,-182.6314 -61.3401,-236.8828 z m 389.629,0.1647 c -27.4468,10.1225 -55.5408,15.7015 -84.2831,16.7359 l -1.9653,3.2225 c 6.5495,42.9474 8.6514,104.6441 6.3049,185.0948 l -11.4197,391.4968 c -0.9186,31.494 -3.1807,55.4573 -6.781,71.8929 4.8437,5.1347 13.6617,7.8912 26.4465,8.2644 11.2686,-11.8431 22.3214,-27.1287 33.1664,-45.8496 35.2622,32.2374 72.3865,48.9239 111.3645,50.0608 54.8811,1.6009 103.4754,-16.6409 145.7821,-54.7302 42.6277,-38.3917 65.0411,-95.3203 67.242,-170.7817 1.6553,-56.752 -14.4302,-104.5 -48.2542,-143.2493 -33.5118,-38.7402 -74.2807,-58.8105 -122.3019,-60.2111 -50.5155,-1.4734 -90.8907,13.2628 -121.13,44.214 l 3.0944,-106.1766 c 2.0466,-70.1605 5.6734,-130.13 10.8706,-179.913 0.1909,-6.5481 -2.5234,-9.9068 -8.1362,-10.0706 z m 1656.4043,27.3559 c -18.6859,0.3344 -39.0915,3.7584 -61.218,10.2721 -47.8814,14.0953 -87.6785,45.1609 -119.3906,93.1945 l -1.6356,4.3822 33.3615,57.0067 12.384,-2.6734 c 16.9912,-61.5855 42.9955,-97.5292 78.0088,-107.8366 8.6784,-2.5547 16.1444,-4.2628 22.3937,-5.1269 6.5488,-0.9522 14.9294,-0.6556 25.1406,0.8909 10.4221,1.1597 19.3787,4.5357 26.8796,10.1319 7.7122,5.2094 15.7821,14.3775 24.2006,27.5087 8.7174,13.0427 15.9812,29.443 21.7955,49.1942 1.7619,5.985 0.7244,10.1915 -3.1128,12.6218 l -80.0535,44.5434 c -44.1996,24.3933 -76.437,52.4176 -96.7101,84.0757 -20.2727,31.6583 -25.8305,63.0479 -16.6687,94.171 9.7787,33.2177 27.2646,55.0645 52.4599,65.5332 25.494,10.3806 56.0505,10.3247 91.6622,-0.1587 25.1378,-7.4 45.0296,-17.1568 59.6739,-29.2724 14.9434,-12.2038 31.5968,-32.3931 49.9693,-60.5649 l 3.595,-1.0559 c 10.1971,15.8593 22.8987,26.4299 38.1102,31.7077 15.5112,5.1897 31.9471,5.2316 49.3042,0.1219 30.8237,-9.074 52.438,-25.6837 64.8436,-49.8227 l -13.9222,-20.7765 c -8.0087,5.9347 -15.7546,10.0047 -23.2361,12.2072 -12.8681,3.7881 -22.5034,4.1812 -28.9121,1.19 -12.906,-6.2816 -25.0431,-28.7231 -36.4074,-67.3277 -2.9954,-10.1746 -9.9485,-35.4464 -20.8556,-75.8116 -10.9072,-40.3649 -16.6684,-61.5952 -17.2853,-63.6899 -22.8499,-77.6204 -67.6395,-115.8306 -134.3746,-114.6359 z m -2839.122,30.6152 c -38.7441,-0.8922 -74.1772,9.0331 -106.3046,29.7849 -46.4286,30.2625 -78.0718,78.1795 -94.9216,143.7437 -14.7533,57.4061 -9.305,109.5316 16.339,156.3837 25.9463,46.9298 68.9818,78.1207 129.1073,93.5728 60.7299,15.6075 113.5113,8.8841 158.3431,-20.178 45.2116,-29.2868 75.7749,-74.9023 91.6929,-136.8406 16.5392,-64.3555 12.8555,-119.5769 -11.0535,-165.6611 -23.6067,-46.0068 -66.3815,-76.9651 -128.3199,-92.8832 -18.9781,-4.8772 -37.2717,-7.5169 -54.8827,-7.9222 z m 9.4726,39.6055 c 9.4807,-0.055 19.3194,1.2307 29.5166,3.8513 45.9251,11.8028 72.9654,35.658 81.1277,71.5757 8.24,35.6156 4.324,84.6982 -11.7492,147.2409 -11.4144,44.4142 -31.0076,78.672 -58.7829,102.7769 -27.6975,23.8027 -56.9562,31.7421 -87.7744,23.8218 -30.2138,-7.7647 -52.61,-24.6318 -67.1934,-50.6039 -14.2809,-25.895 -21.4086,-52.0424 -21.3866,-78.4486 0.3244,-26.328 4.0562,-53.3917 11.1999,-81.1885 7.6096,-29.6096 17.4276,-55.2717 29.4494,-76.9835 12.3238,-21.634 29.3831,-38.5084 51.1778,-50.6224 13.8105,-7.5228 28.6142,-11.3284 44.4151,-11.4197 z m 759.5683,30.7434 1.8555,0.2562 c 23.7533,84.7623 45.1467,167.1552 64.1905,247.1856 -35.1405,-3.1959 -68.1659,-6.8937 -99.0781,-11.0899 -32.4577,-4.406 -65.4037,-9.8191 -98.8462,-16.2475 z m 2144.849,82.9282 28.6499,110.5894 c 2.9072,9.8753 0.9047,19.0781 -6.0121,27.6184 -24.6737,33.2786 -49.2824,53.5301 -73.8217,60.7542 -20.3497,5.9906 -38.484,5.1509 -54.4005,-2.521 -15.9165,-7.6718 -26.0299,-18.8383 -30.3465,-33.5021 -6.5193,-22.1452 -5.2472,-42.6814 3.8147,-61.6085 9.0615,-18.9275 29.1318,-38.0068 60.217,-57.2386 z m -1191.5984,29.5593 c -6.7159,-0.093 -13.6499,0.1125 -20.8068,0.6225 -51.9652,3.7022 -96.1375,26.8656 -132.5068,69.4883 -36.3699,42.623 -52.1661,97.3869 -47.3999,164.2879 4.4781,62.8558 22.2562,110.5294 53.3446,143.0294 37.8436,39.5248 89.9097,56.9314 156.1886,52.2095 33.9171,-2.4166 64.943,-12.4481 93.0844,-30.0905 28.4525,-17.6644 50.9515,-39.9059 67.4924,-66.7296 l -20.8312,-22.4424 c -29.8565,37.4677 -72.3277,58.1608 -127.4044,62.0848 -46.3639,3.3032 -82.3507,-12.4262 -107.9709,-47.1923 -16.9766,-23.1847 -27.4837,-63.0936 -31.5184,-119.7263 l 259.9784,-18.524 c 11.5134,-0.8203 16.8831,-6.675 16.1071,-17.5659 -3.414,-47.9198 -19.7887,-88.9735 -49.1208,-123.1625 -25.4127,-30.2071 -61.6239,-45.6361 -108.6363,-46.2889 z m -14.1355,38.7268 c 19.623,-0.2988 37.642,7.7656 54.0586,24.188 17.8218,17.495 27.9424,43.2002 30.3586,77.1176 0.6432,9.0241 -3.5493,13.8531 -12.5731,14.4959 l -175.9639,12.5366 c 4.031,-44.3846 16.4487,-76.3864 37.2559,-96.0079 21.0962,-19.9553 42.0664,-30.674 62.9148,-32.1596 1.3225,-0.094 2.6406,-0.1509 3.9491,-0.1706 z m -430.4311,10.2049 c 31.8062,0.9279 57.5971,15.5681 77.3679,43.9209 20.0828,28.3615 29.3043,70.6045 27.6672,126.7331 -1.7919,61.4292 -13.2794,107.5975 -34.4665,138.5005 -20.8662,30.6003 -53.2858,45.258 -97.2532,43.9755 -14.0321,-0.4093 -28.8518,-5.8356 -44.4639,-16.278 -15.6119,-10.4422 -28.3759,-22.2053 -38.2934,-35.2903 l 7.2266,-247.8996 c 20.869,-19.9893 38.4442,-33.9884 52.722,-41.9983 14.5987,-8.3128 31.0956,-12.2003 49.4933,-11.6638 z" />
</svg>
