<?xml version="1.0" encoding="UTF-8" standalone="no"?>
<svg
   xmlns:dc="http://purl.org/dc/elements/1.1/"
   xmlns:cc="http://creativecommons.org/ns#"
   xmlns:rdf="http://www.w3.org/1999/02/22-rdf-syntax-ns#"
   xmlns:svg="http://www.w3.org/2000/svg"
   xmlns="http://www.w3.org/2000/svg"
   xmlns:sodipodi="http://sodipodi.sourceforge.net/DTD/sodipodi-0.dtd"
   xmlns:inkscape="http://www.inkscape.org/namespaces/inkscape"
   width="21.76136mm"
   height="21.943542mm"
   viewBox="0 0 257.02325 259.175"
   version="1.1"
   id="svg892"
   sodipodi:docname="logo.svg"
   inkscape:version="1.0.2 (e86c870879, 2021-01-15)">
  <metadata
     id="metadata898">
    <rdf:RDF>
      <cc:Work
         rdf:about="">
        <dc:format>image/svg+xml</dc:format>
        <dc:type
           rdf:resource="http://purl.org/dc/dcmitype/StillImage" />
        <dc:title></dc:title>
      </cc:Work>
    </rdf:RDF>
  </metadata>
  <defs
     id="defs896" />
  <sodipodi:namedview
     pagecolor="#ffffff"
     bordercolor="#666666"
     borderopacity="1"
     objecttolerance="10"
     gridtolerance="10"
     guidetolerance="10"
     inkscape:pageopacity="0"
     inkscape:pageshadow="2"
     inkscape:window-width="1600"
     inkscape:window-height="883"
     id="namedview894"
     showgrid="false"
     fit-margin-top="0"
     fit-margin-left="0"
     fit-margin-right="0"
     fit-margin-bottom="0"
     inkscape:zoom="4.4713599"
     inkscape:cx="41.286139"
     inkscape:cy="37.988135"
     inkscape:window-x="0"
     inkscape:window-y="17"
     inkscape:window-maximized="0"
     inkscape:current-layer="svg892" />
  <path
     id="Selection"
     fill="none"
     stroke="#000000"
     stroke-width="1.00006"
     d="m 72.519095,0.90268171 c 6.84999,-1.40017 10.20998,2.10025999 15.99997,5.30064999 0,0 25.999945,15.0018503 25.999945,15.0018503 0,0 12.57998,6.70083 12.57998,6.70083 2.80999,0.40005 11.60997,-5.10063 14.41997,-6.70083 0,0 24.99995,-14.4017703 24.99995,-14.4017703 3.51999,-2.10026 9.99997,-6.20076999 13.99997,-6.30077999 3.87999,-0.10001 7.74998,2.80034999 10.99997,4.70057999 0,0 17.99997,10.2012603 17.99997,10.2012603 0,0 31.99993,18.00221 31.99993,18.00221 9.55998,5.70071 14.84997,6.30078 14.99997,18.80232 0,0 0,59.007268 0,59.007268 -0.01,4.20051 0.27,8.30102 -2.51,11.90146 -2.91999,3.70046 -18.40996,11.80146 -23.48995,14.70181 -2.95999,1.6002 -7.28998,3.40042 -8.97998,6.5008 -1.22,2.20027 -1.02,5.40067 -1.02,7.90098 0,0 0,54.00665 0,54.00665 -0.02,14.80182 -7.01998,15.10186 -18.99996,21.80268 0,0 -35.99992,20.60254 -35.99992,20.60254 -3.88999,2.20027 -15.30997,9.10112 -18.99996,9.90122 -5.36999,1.20015 -16.16997,-6.00074 -20.99996,-8.70107 0,0 -38.999925,-22.30275 -38.999925,-22.30275 -4.77999,-2.60032 -14.44997,-7.20088 -16.39996,-12.30151 -0.71,-1.90024 -0.6,-5.00062 -0.6,-7.00086 0,0 0,-36.00444 0,-36.00444 0,-2.00025 0.12,-5.10063 -0.6,-6.90085 -1.69,-4.30053 -12.21997,-9.20113 -16.39997,-11.4014 0,0 -37.99992,-21.60266 -37.99992,-21.60266 -9.4299767,-5.60069 -13.97996668,-4.8006 -13.99996668,-17.10211 0,0 0,-64.007878 0,-64.007878 0,-2.80035 -0.22,-6.40079 1.16999698,-8.80109 2.039996,-3.60044 12.8499697,-9.00111 16.8299697,-11.10137 0,0 53.99988,-30.40374029 53.99988,-30.40374029 z M 118.51901,33.206662 c 0,0 -29.999945,-16.80207 -29.999945,-16.80207 -2.51,-1.40017 -9.73998,-5.80072 -11.99998,-6.20076 -4.12999,-0.7000903 -15.07996,6.70082 -18.99996,9.0011 0,0 -32.99993,18.70231 -32.99993,18.70231 -3.87999,2.10026 -13.50997,6.60081 -15.2599697,10.50129 -0.879994,2.00025 -0.73999,5.60069 -0.73999,7.80096 0,0 0,53.006528 0,53.006528 0,2.70033 -0.210004,6.40079 1.16999,8.80108 1.9499997,3.50044 12.0499797,8.40104 15.8299697,10.5013 0,0 43.99991,24.70304 43.99991,24.70304 0,-6.5008 -1.52,-16.90208 3.22999,-21.80269 2.67,-2.80034 19.24996,-11.60142 23.76995,-14.20174 2,-1.20015 6.799995,-3.70046 7.979995,-5.50068 1.24999,-1.90024 1.01999,-5.30065 1.01999,-7.50093 0,0 0,-41.005048 0,-41.005048 0,-4.9006 -0.71,-14.90183 1.45,-19.00234 2.18,-4.1005 7.62998,-6.70082 11.54998,-9.00111 0,0 0,-2.00024 0,-2.00024 z m -4,73.008988 c 0,0 18.99996,-10.001228 18.99996,-10.001228 3.01,-1.70021 7.53999,-4.70058 10.99998,-4.80059 4.54999,-0.10001 15.68997,7.20088 19.99996,9.801198 0,0 38.99992,21.80269 38.99992,21.80269 2.82999,1.70021 13.87997,9.00111 15.99996,9.30115 4,0.60007 16.03997,-7.60094 19.99996,-9.80121 2.17,-1.20015 5.63999,-2.60032 6.97999,-4.70058 1.24,-2.00025 1.02,-5.40067 1.02,-7.60094 0,0 0,-55.006768 0,-55.006768 0,-1.90024 0.12,-5.10063 -0.6,-6.80084 -1.61,-3.80047 -11.64998,-8.50105 -15.39997,-10.50129 0,0 -33.99993,-19.30238 -33.99993,-19.30238 -4.24999,-2.50031 -14.27997,-9.7011903 -18.99996,-8.20101 0,0 -18.99996,10.60131 -18.99996,10.60131 0,0 -30.99994,17.60216 -30.99994,17.60216 -9.64997,5.50068 -13.97997,5.00062 -13.99997,16.60205 0,0 0,51.006278 0,51.006278 z m 29.99994,-6.400788 c -5.41999,1.200148 -13.87997,6.900848 -18.99996,9.801208 0,0 -33.999935,19.30238 -33.999935,19.30238 -13.97997,8.00098 -13.97997,7.10087 -13.99997,16.302 0,0 0,59.00727 0,59.00727 0,2.30029 -0.22,5.60069 1.02,7.60094 1.49,2.30028 9.24998,6.20076 11.97997,7.80096 0,0 26.999955,15.4019 26.999955,15.4019 0,0 17.99996,10.20125 17.99996,10.20125 2.38,1.30016 6.36999,4.10051 8.99998,4.10051 2.55,0.10001 6.68999,-2.70033 8.99998,-4.00049 0,0 17.99996,-10.00124 17.99996,-10.00124 0,0 23.99995,-13.90171 23.99995,-13.90171 3.05,-1.6002 12.54998,-6.5008 14.39997,-8.80108 1.94,-2.30029 1.59,-5.60069 1.6,-8.40104 0,0 0,-59.00727 0,-59.00727 -0.02,-11.60142 -4.36999,-11.20137 -13.99997,-16.40202 0,0 -33.99993,-19.40239 -33.99993,-19.40239 -4.52999,-2.60032 -14.26997,-8.80108 -18.99996,-9.601178 z" />
</svg>
