<?xml version="1.0" encoding="UTF-8" standalone="no"?>
<svg
   xmlns:dc="http://purl.org/dc/elements/1.1/"
   xmlns:cc="http://creativecommons.org/ns#"
   xmlns:rdf="http://www.w3.org/1999/02/22-rdf-syntax-ns#"
   xmlns:svg="http://www.w3.org/2000/svg"
   xmlns="http://www.w3.org/2000/svg"
   xmlns:sodipodi="http://sodipodi.sourceforge.net/DTD/sodipodi-0.dtd"
   xmlns:inkscape="http://www.inkscape.org/namespaces/inkscape"
   version="1.1"
   id="Layer_1"
   x="0px"
   y="0px"
   viewBox="0 0 60 90"
   enable-background="new 0 0 365 560"
   xml:space="preserve"
   sodipodi:docname="Map_marker.svg"
   inkscape:version="1.0.2 (e86c870879, 2021-01-15)"
   width="60"
   height="90"><metadata
   id="metadata887"><rdf:RDF><cc:Work
       rdf:about=""><dc:format>image/svg+xml</dc:format><dc:type
         rdf:resource="http://purl.org/dc/dcmitype/StillImage" /><dc:title></dc:title></cc:Work></rdf:RDF></metadata><defs
   id="defs885" /><sodipodi:namedview
   pagecolor="#ffffff"
   bordercolor="#666666"
   borderopacity="1"
   objecttolerance="10"
   gridtolerance="10"
   guidetolerance="10"
   inkscape:pageopacity="0"
   inkscape:pageshadow="2"
   inkscape:window-width="1600"
   inkscape:window-height="883"
   id="namedview883"
   showgrid="false"
   inkscape:zoom="3.3952051"
   inkscape:cx="26.624538"
   inkscape:cy="59.51562"
   inkscape:window-x="0"
   inkscape:window-y="17"
   inkscape:window-maximized="0"
   inkscape:current-layer="Layer_1"
   inkscape:document-rotation="0"
   fit-margin-top="0"
   fit-margin-left="0"
   fit-margin-right="0"
   fit-margin-bottom="0"
   showguides="true"
   inkscape:guide-bbox="true"><sodipodi:guide
     position="129.00572,-79.651017"
     orientation="0,-1"
     id="guide129" /></sodipodi:namedview>
<g
   id="g880"
   transform="matrix(0.16413364,0,0,0.16534999,0.47567942,-1.2731949)"
   style="fill:#ffca02;fill-opacity:1">
	<path
   fill="#00aeef"
   d="m 182.9,551.7 c 0,0.1 0.2,0.3 0.2,0.3 0,0 175.2,-269 175.2,-357.4 C 358.3,64.5 269.5,7.9 182.9,7.7 96.3,7.9 7.5,64.5 7.5,194.6 7.5,283 182.8,552 182.8,552 c 0,0 0.1,-0.3 0.1,-0.3 z M 122.2,187.2 c 0,-33.6 27.2,-60.8 60.8,-60.8 33.6,0 60.8,27.2 60.8,60.8 0,33.6 -27.3,60.8 -60.9,60.8 -33.5,0 -60.7,-27.2 -60.7,-60.8 z"
   id="path878"
   style="fill:#ffca02;fill-opacity:1" />
</g>
<path
   id="path1179"
   style="fill:#ffca02;fill-opacity:1;stroke-width:0.112975"
   d="m 33.799586,24.231312 a 0.15843165,0.15960574 0 0 0 -0.04786,0.01005 l -0.481924,0.185555 c -0.152897,0.05888 -0.44427,0.203599 -0.818405,0.398683 -0.374136,0.195077 -0.822575,0.438221 -1.25655,0.682538 -1.813601,1.021009 -4.71926,2.685227 -7.227474,4.132904 -1.254111,0.72384 -2.408983,1.393441 -3.278166,1.901559 -0.434597,0.254054 -0.797585,0.467409 -1.066433,0.627419 -0.268846,0.160012 -0.435751,0.260965 -0.506544,0.310031 -0.224546,0.15566 -0.416315,0.235448 -0.570374,0.440486 -0.154057,0.205037 -0.234863,0.49765 -0.284506,1.042183 -0.09926,1.089057 -0.074,3.244943 -0.06114,7.951626 0.0074,2.668458 0.02291,4.780337 0.04604,6.242984 0.0116,0.731329 0.0251,1.300035 0.04013,1.696241 0.0075,0.198109 0.01559,0.353126 0.02415,0.465287 0.0044,0.05607 0.0086,0.10125 0.0137,0.13825 0.0051,0.03704 -0.0029,0.0507 0.03057,0.113454 0.03298,0.06216 0.07398,0.103845 0.128573,0.157546 0.05457,0.05372 0.122083,0.11294 0.199251,0.175911 0.154323,0.12595 0.347377,0.266926 0.547119,0.395929 0.183574,0.118571 0.810021,0.487107 1.720238,1.016926 0.910225,0.529811 2.096674,1.215677 3.373914,1.950702 2.554484,1.470045 5.471143,3.1361 7.262582,4.142996 a 0.15843165,0.15960574 0 0 0 3.28e-4,0 0.15843165,0.15960574 0 0 0 0.01416,0.0073 c 0.475615,0.266935 0.939698,0.510601 1.306703,0.687586 0.185488,0.08946 0.346088,0.161972 0.473717,0.213585 0.06384,0.0258 0.119479,0.04652 0.167787,0.06159 0.04829,0.015 0.08347,0.02683 0.139974,0.0266 0.118272,-3.3e-4 0.253606,-0.0355 0.41581,-0.08636 0.162204,-0.05086 0.341929,-0.119508 0.506086,-0.196586 0.380008,-0.178418 1.531614,-0.811737 3.070259,-1.678788 1.538647,-0.867056 3.452904,-1.962764 5.317109,-3.047083 1.577267,-0.917423 3.277183,-1.890073 3.765102,-2.1551 0.775518,-0.421244 1.351371,-0.779299 1.757625,-1.099591 0.406262,-0.320297 0.651277,-0.602276 0.733601,-0.901178 0.02175,-0.07882 0.0251,-0.160156 0.03422,-0.305436 0.009,-0.145294 0.01701,-0.338262 0.02458,-0.573232 0.01525,-0.469932 0.0278,-1.107867 0.03786,-1.858837 0.02006,-1.501937 0.02999,-3.455703 0.02962,-5.415304 -3.29e-4,-1.959592 -0.01072,-3.924485 -0.03144,-5.448371 -0.01039,-0.761936 -0.02334,-1.413423 -0.03874,-1.899721 -0.0077,-0.243141 -0.01597,-0.444842 -0.0251,-0.5994 -0.0092,-0.154562 -0.01621,-0.253981 -0.03188,-0.327948 -0.09986,-0.469473 -0.23601,-0.817164 -0.506089,-1.117054 -0.270078,-0.29989 -0.65844,-0.545022 -1.258373,-0.85891 -0.932221,-0.487741 -7.708283,-4.345542 -10.284969,-5.857163 -0.562853,-0.330195 -1.535591,-0.852173 -2.174349,-1.16666 l -1.152146,-0.567187 a 0.15843165,0.15960574 0 0 0 -0.07844,-0.01609 z" /><path
   id="path1177"
   style="fill:#ffca02;fill-opacity:1;stroke-width:0.112975"
   d="m 42.22799,3.3013288 c -0.326945,0 -0.758361,0.1588116 -1.84243,0.725257 -1.084064,0.5664381 -2.824043,1.5490348 -5.745682,3.2225397 -2.505818,1.4353165 -5.054411,2.8800985 -5.652223,3.2041665 -0.68064,0.368979 -1.117269,0.631264 -1.414764,0.878668 -0.297486,0.247404 -0.454452,0.488943 -0.546206,0.776237 -0.03604,0.112874 -0.05078,0.285618 -0.06975,0.591138 -0.01896,0.305521 -0.03538,0.730101 -0.05013,1.286999 -0.02955,1.113791 -0.05143,2.757356 -0.06837,5.02948 l -0.04786,6.448756 a 0.13331414,0.13430209 0 0 0 0.197421,0.118499 l 0.712626,-0.394088 c 0.388987,-0.214928 1.747474,-0.945541 3.013719,-1.620914 1.638994,-0.874185 2.43965,-1.29285 3.249447,-1.249335 0.809794,0.0435 1.695662,0.55703 3.487441,1.615864 0.962043,0.568505 3.618803,2.089509 5.908911,3.382838 2.288711,1.292539 4.685639,2.680735 5.307985,3.07281 0.635412,0.4003 1.442441,0.877543 1.809603,1.068823 0.184379,0.09606 0.382706,0.182688 0.55807,0.246646 0.175355,0.06393 0.315518,0.107775 0.435871,0.108866 a 0.13331414,0.13430209 0 0 0 3.29e-4,0 c 0.1392,0.0017 0.30256,-0.05035 0.51931,-0.132747 0.216738,-0.08239 0.478283,-0.198957 0.770064,-0.340807 0.583565,-0.283703 1.286912,-0.667126 1.97374,-1.069742 0.68683,-0.402614 1.356477,-0.824358 1.872069,-1.185033 0.2578,-0.180328 0.476933,-0.344922 0.642412,-0.486868 0.16548,-0.14194 0.278378,-0.24382 0.330547,-0.376636 a 0.13331414,0.13430209 0 0 0 0,-3.32e-4 c 0.02677,-0.0682 0.02714,-0.117672 0.03648,-0.214496 0.0093,-0.09682 0.01787,-0.224621 0.02642,-0.381234 0.01721,-0.313214 0.03356,-0.740876 0.04829,-1.253468 0.02955,-1.025178 0.0537,-2.388664 0.06975,-3.84169 0.0321,-2.906058 0.03166,-6.167635 -0.02371,-7.795465 l -0.08431,-2.478033 a 0.13331414,0.13430209 0 0 0 -0.03284,-0.08407 L 57.30793,11.816163 C 56.905088,11.354432 56.000452,10.819446 50.466188,7.6809724 48.177104,6.3828394 46.01001,5.1327687 45.69073,4.9287682 45.0402,4.5131167 44.301317,4.1097748 43.665468,3.8085031 43.34754,3.6578634 43.055623,3.5326291 42.811502,3.4442649 42.567385,3.3559005 42.378768,3.3014225 42.227909,3.3014225 Z" /><path
   id="path352"
   style="fill:#ffca02;fill-opacity:1;stroke-width:0.112975"
   d="m 17.604348,2.1755517 c -0.211398,0 -0.541453,0.034246 -0.847582,0.1318262 -0.306133,0.097602 -0.607625,0.2368285 -1.024033,0.4505886 -0.832795,0.4275201 -2.143848,1.1763674 -4.598549,2.586389 C 8.9402254,6.6045969 6.5466649,7.967864 5.8626699,8.3473439 4.1397759,9.3031975 3.1470682,9.8671664 2.4408898,10.400931 c -0.7061861,0.533772 -1.1702751,1.252195 -1.3363447,1.855173 -0.098467,0.357556 -0.060985,0.359865 -0.071125,0.519022 -0.010207,0.159156 -0.018231,0.351758 -0.02597,0.583325 -0.0155449,0.463125 -0.0281592,1.077296 -0.0382982,1.798667 -0.0203545,1.442745 -0.030711,3.309235 -0.0310037,5.176459 -1.953e-4,1.867228 0.009257,3.733817 0.0291777,5.176458 0.009916,0.721327 0.0224697,1.335614 0.0378612,1.798675 0.00774,0.23153 0.015832,0.424199 0.025971,0.583326 0.010151,0.159128 -0.027575,0.160656 0.071125,0.519023 0.343374,1.246579 1.3390802,1.853568 2.8559658,2.70949 0.6389419,0.360528 3.4430104,1.945345 6.2276011,3.519257 1.590768,0.899142 2.869169,1.606525 3.769212,2.0862 0.450022,0.239835 0.802582,0.421701 1.07099,0.550257 0.134204,0.06431 0.241996,0.114158 0.36748,0.162141 0.06275,0.02397 0.120786,0.04858 0.254872,0.07763 0.06705,0.01446 0.148176,0.03683 0.331461,0.02984 0.183293,-0.0073 0.631944,-0.02616 0.988918,-0.541997 0.255638,-0.369372 0.195346,-0.4218 0.213378,-0.506161 0.01803,-0.08435 0.02598,-0.145076 0.03379,-0.208065 0.01559,-0.125981 0.02547,-0.253657 0.03421,-0.400064 0.01745,-0.292814 0.0278,-0.650913 0.02831,-1.032997 0.0022,-1.389187 0.240252,-2.086468 0.383896,-2.276355 0.04866,-0.06437 1.040022,-0.843701 4.044592,-2.538158 0.69542,-0.392194 1.369615,-0.787878 1.906259,-1.116135 0.268334,-0.164128 0.50131,-0.31062 0.692116,-0.436345 0.190799,-0.125729 0.296006,-0.180529 0.504262,-0.371591 L 25.197137,27.7625 a 1.2506314,1.2598996 0 0 0 0.408515,-0.920006 l 0.0132,-1.459693 c 0.04982,-5.570343 0.09023,-8.970281 0.142712,-11.014791 0.02626,-1.022253 0.05625,-1.707605 0.08845,-2.133964 0.03218,-0.426366 0.133351,-0.656543 0.02189,-0.403282 0.117769,-0.267578 0.515686,-0.739978 1.36872,-1.277807 0.248691,-0.156805 0.47228,-0.30901 0.658365,-0.448288 0.09305,-0.06967 0.174173,-0.1323186 0.266727,-0.2163395 0.04626,-0.042036 0.0945,-0.0848 0.169148,-0.1745384 0.07466,-0.089738 0.308669,-0.096838 0.308669,-0.8391665 0,-0.4667273 -0.197093,-0.729211 -0.320524,-0.8827978 C 28.199554,7.8382205 28.096361,7.7528474 27.9897,7.6670771 27.776367,7.4955445 27.538839,7.3395401 27.195004,7.1264707 26.507334,6.7003247 25.410958,6.0709058 23.625956,5.0623158 21.313723,3.755827 20.109455,3.0766407 19.345637,2.6918035 18.963726,2.4993775 18.684987,2.3737613 18.391819,2.2862274 18.098658,2.1986863 17.786639,2.1755297 17.604427,2.1755297 Z" /><path
   id="path348"
   style="fill:#000000;fill-opacity:1;stroke-width:0.159701"
   d="M 17.899631,0.85450448 C 17.722395,0.8343681 17.516627,0.83524898 17.258476,0.90903435 17.000322,0.9828186 16.680415,1.1191932 16.185609,1.368346 15.195986,1.8666515 13.502503,2.8179051 10.306917,4.6237211 6.0090368,7.0524371 3.7316613,8.3441911 2.4549026,9.1020117 1.1781365,9.859832 0.87293852,10.107809 0.5941194,10.401004 L 0.15528574,10.86175 a 0.29012403,0.29227407 0 0 0 -0.08121487,0.202382 v 9.085764 c 0,5.125224 -0.01720762,7.556497 0.13535635,8.854673 0.0762689,0.649093 0.19953227,1.040617 0.42744027,1.321958 0.22790813,0.281336 0.50763981,0.400955 0.81924901,0.577014 0.3702474,0.209181 2.9657474,1.677701 5.7661311,3.263983 2.8006484,1.586432 5.7123704,3.230791 6.4770954,3.657266 0.742259,0.413949 1.622371,1.036092 1.843686,1.265983 l 0.444529,0.462179 0.07695,5.6926 c 0.03691,2.69345 0.06267,4.153406 0.115407,5.010808 0.02641,0.428701 0.05938,0.707617 0.109717,0.924361 0.05034,0.216752 0.126893,0.37557 0.209436,0.502376 0.280156,0.43038 0.426826,0.690417 1.523108,1.38511 1.096276,0.6947 3.19256,1.894104 7.55139,4.396481 1.635217,0.938769 3.223418,1.833743 4.46529,2.520469 1.241882,0.686732 2.097774,1.149214 2.410748,1.2789 0.258581,0.107145 0.535864,0.203903 0.782213,0.275588 0.246344,0.07165 0.441192,0.123045 0.622631,0.124874 0.391876,0.0038 0.851247,-0.197461 2.070221,-0.845421 1.218983,-0.64797 3.187445,-1.765793 6.481378,-3.660142 1.538558,-0.884834 3.030765,-1.736289 4.196005,-2.395601 1.16524,-0.659315 2.019456,-1.134765 2.222673,-1.237268 1.31251,-0.662058 1.981856,-1.240827 2.38083,-2.109963 0.169087,-0.368361 0.273777,-0.694731 0.323429,-1.735347 0.04961,-1.040603 0.06355,-2.848952 0.08406,-6.337065 0.02334,-3.96738 0.04144,-7.49935 0.03992,-7.884377 -0.0017,-0.45422 0.06479,-0.686108 0.497253,-1.082249 0.432435,-0.396144 1.250276,-0.901324 2.654381,-1.685101 1.382579,-0.771768 2.927192,-1.6891 3.483614,-2.075516 0.390913,-0.271474 0.704295,-0.450171 0.963155,-0.749252 0.258867,-0.299083 0.419677,-0.698043 0.512929,-1.317651 0.186495,-1.239226 0.159944,-3.457325 0.15958,-8.208766 -1.63e-4,-2.463227 -0.01635,-4.585418 -0.04414,-6.136121 -0.01395,-0.775354 -0.03195,-1.407801 -0.05129,-1.870258 -0.0097,-0.231235 -0.01876,-0.418959 -0.02991,-0.564093 -0.01117,-0.145137 -0.01614,-0.228355 -0.04414,-0.330133 -0.112585,-0.408162 -0.420105,-0.883157 -0.752308,-1.20713 -0.07084,-0.06908 -0.147576,-0.121383 -0.267863,-0.203817 C 58.613946,9.9468074 58.458046,9.8443698 58.269748,9.7249488 57.893159,9.4861214 57.385701,9.1758983 56.782268,8.8149382 55.575412,8.0930174 53.984854,7.1692933 52.298449,6.2140864 48.929812,4.3060679 45.493878,2.3408303 44.682849,1.8606695 44.262802,1.6119869 43.815811,1.3784729 43.426181,1.1989738 43.036559,1.0194819 42.733177,0.89279272 42.481543,0.85879635 c -0.443367,-0.0598943 -0.894802,0.009192 -1.800932,0.44926565 -0.906132,0.4400503 -2.328126,1.2556706 -4.877056,2.741519 -2.180147,1.2708681 -3.588113,2.0730178 -4.502341,2.5534874 -0.914232,0.4804695 -1.359906,0.6194684 -1.468959,0.620071 0.04356,-2.315e-4 -0.02612,-0.00442 -0.118256,-0.038729 -0.09211,-0.034539 -0.22273,-0.091157 -0.387547,-0.1693718 C 28.996832,6.8586003 28.52831,6.6151722 27.915913,6.2815723 26.691118,5.6143795 24.885989,4.5839041 22.406243,3.1381589 21.043352,2.3435568 20.064864,1.7940654 19.358619,1.4329581 18.652369,1.0718582 18.23571,0.89267516 17.899631,0.85451921 Z m 24.22714,2.46736482 c 0.324822,0 0.625839,0.069374 1.671285,0.6057184 1.045443,0.5363366 2.789901,1.5263265 5.905756,3.3156582 3.54394,2.0351636 5.403674,3.1066901 6.412986,3.7233001 0.504654,0.308297 0.796782,0.502605 0.97313,0.640164 0.176354,0.137558 0.233691,0.207675 0.314878,0.317211 0.07376,0.09949 0.09789,0.126203 0.135356,0.291379 0.03751,0.165169 0.06917,0.462452 0.08976,0.994694 0.04122,1.064495 0.04275,3.066764 0.04275,6.970062 0,3.870632 -0.0022,5.873438 -0.04275,6.945653 -0.02022,0.536113 -0.05151,0.840543 -0.08834,1.010488 -0.03685,0.16994 -0.05953,0.196102 -0.128229,0.288508 -0.01692,0.02278 -0.246451,0.230686 -0.559943,0.453572 -0.313487,0.222881 -0.726736,0.494823 -1.18685,0.780824 -0.920224,0.572016 -2.030807,1.204124 -2.923669,1.646348 -0.248048,0.122854 -0.531874,0.237307 -0.780784,0.318646 -0.248919,0.08136 -0.48005,0.124861 -0.54142,0.124882 -0.05822,7e-6 -0.335329,-0.07239 -0.716669,-0.255494 -0.381344,-0.183115 -0.887508,-0.46415 -1.515981,-0.84542 -1.046282,-0.634748 -3.826459,-2.245301 -6.193563,-3.586942 -2.364557,-1.340197 -5.108166,-2.908105 -6.088136,-3.480722 -0.498252,-0.291139 -1.029168,-0.577909 -1.487481,-0.80667 -0.458312,-0.228759 -0.825356,-0.396676 -1.072863,-0.466485 -0.408847,-0.11532 -0.760391,-0.181227 -1.409121,0.08037 -0.648728,0.261612 -1.670821,0.817516 -3.744348,1.936291 -0.69662,0.375864 -1.345023,0.716312 -1.826582,0.963113 -0.189984,0.09737 -0.32882,0.165918 -0.458788,0.229657 -0.0022,-0.04504 -0.0051,-0.06637 -0.0073,-0.119125 -0.0132,-0.34311 -0.02364,-0.844505 -0.03137,-1.464061 -0.01538,-1.239112 -0.01839,-2.951346 -0.0058,-4.83426 0.02648,-3.922664 0.03371,-5.827177 0.202323,-6.78633 0.08432,-0.479582 0.194456,-0.700594 0.353344,-0.869828 0.158901,-0.16923 0.405972,-0.304438 0.780792,-0.521028 0.424851,-0.2455 3.64055,-2.0725325 7.125374,-4.0476837 2.594545,-1.470555 4.205352,-2.3665588 5.221864,-2.892232 1.016507,-0.5256731 1.456051,-0.6602625 1.580089,-0.6602625 z m -24.955207,0.054531 c 0.242839,-0.045931 0.72987,-0.027339 0.943212,0.031599 -0.009,-0.00221 0.06281,0.024692 0.152448,0.065994 0.08961,0.041303 0.210124,0.099527 0.354775,0.1722458 0.289302,0.1454291 0.677573,0.3482761 1.135558,0.5927988 0.915967,0.4890388 2.111161,1.1450241 3.361079,1.8487268 1.339787,0.7543005 2.337712,1.3119197 3.046212,1.7396456 0.708491,0.4277331 1.129095,0.7382794 1.285161,0.9243633 0.07803,0.093045 0.08276,0.1348687 0.08264,0.1464065 -1.22e-4,0.011538 -0.0029,0.039831 -0.06698,0.1105212 -0.12828,0.141321 -0.473486,0.3642377 -0.936085,0.6602627 -0.474585,0.303697 -0.841324,0.49685 -1.14411,0.790876 -0.302779,0.294033 -0.505092,0.687247 -0.622629,1.277461 -0.235077,1.180422 -0.218772,3.23604 -0.265009,7.693474 l -0.07838,7.531283 -0.369014,0.297119 c -0.09687,0.07789 -0.424652,0.294984 -0.832083,0.543994 -0.407429,0.249022 -0.907109,0.541261 -1.396294,0.815284 -0.990597,0.55489 -2.493165,1.439019 -3.352535,1.972166 -1.010916,0.627172 -1.603077,1.029925 -1.943414,1.669315 -0.340338,0.639384 -0.387785,1.421546 -0.433136,2.777399 -0.01795,0.535933 -0.04626,1.022617 -0.07551,1.369321 -0.0058,0.06608 -0.01005,0.097 -0.01568,0.152155 -0.03042,-0.01662 -0.04552,-0.02432 -0.0798,-0.04306 -0.266035,-0.14569 -0.644913,-0.355535 -1.107048,-0.612896 -0.924254,-0.514732 -2.178668,-1.217749 -3.51923,-1.972168 C 8.6146151,32.421844 5.5866211,30.706463 4.1646422,29.884429 3.3979963,29.441238 2.9207624,29.097563 2.6301461,28.766293 2.3395389,28.435023 2.2155837,28.117987 2.1471428,27.633806 c -0.028523,-0.201919 -0.066894,-1.20286 -0.086912,-2.510427 -0.01999,-1.307572 -0.030493,-2.964558 -0.031369,-4.630439 -7.879e-4,-1.665885 0.00831,-3.339941 0.027064,-4.684982 0.018754,-1.345042 0.05048,-2.382895 0.084065,-2.686975 0.076897,-0.696699 0.1794782,-1.049032 0.609805,-1.479844 C 3.1801333,11.210319 3.9806343,10.713828 5.4141533,9.9172791 6.656332,9.2270621 9.7004542,7.4928327 12.186194,6.0576261 13.426057,5.3417611 14.617018,4.6787499 15.533027,4.1888 15.991024,3.9438288 16.380511,3.7414524 16.671432,3.5988748 16.8169,3.5275898 16.937863,3.4711492 17.027627,3.4323685 c 0.08977,-0.038802 0.164146,-0.059821 0.143909,-0.055999 z M 33.749006,24.374133 c 0.145132,6.62e-4 0.293641,0.05012 0.574191,0.146408 0.02722,0.0093 0.305031,0.137547 0.672497,0.330131 0.367467,0.192572 0.857498,0.457642 1.434766,0.775082 1.154549,0.634887 2.656062,1.480402 4.224509,2.381251 3.140691,1.803869 6.209035,3.543072 6.870344,3.889797 0.786836,0.412537 1.190525,0.742866 1.399142,1.080815 l 0.314876,0.50955 v 8.442725 8.406849 l -0.350497,0.368883 c -0.190956,0.200825 -0.770758,0.641599 -1.209649,0.901398 -0.98664,0.584052 -9.393518,5.40153 -11.693254,6.700215 -0.439024,0.247917 -0.906834,0.482864 -1.30084,0.658821 -0.394,0.175958 -0.746213,0.291932 -0.820678,0.301427 -0.19015,0.02426 -0.16243,0.0529 -0.344796,-0.0029 -0.182368,-0.05581 -0.554532,-0.225496 -1.299411,-0.627274 -1.489763,-0.803519 -4.489219,-2.5277 -10.798491,-6.144697 -0.634536,-0.36377 -1.265111,-0.737582 -1.766739,-1.04493 -0.501635,-0.307356 -0.893937,-0.565102 -0.980257,-0.634431 l -0.359047,-0.2885 -0.04275,-8.408282 c -0.01584,-3.082737 -0.01482,-5.250215 0.0073,-6.682986 0.01095,-0.716395 0.02729,-1.248962 0.04845,-1.617638 0.01061,-0.184342 0.02181,-0.328185 0.03422,-0.429174 0.01234,-0.100988 0.03371,-0.168917 0.02568,-0.149279 0.02335,-0.05673 0.14523,-0.222322 0.353353,-0.403329 0.208118,-0.181006 0.498748,-0.390113 0.849174,-0.607152 1.240642,-0.768411 4.51017,-2.65466 7.535721,-4.369208 1.51277,-0.857276 2.96616,-1.67164 4.077747,-2.285074 0.555795,-0.306717 1.026273,-0.563984 1.374918,-0.749252 0.174327,-0.09265 0.31849,-0.167118 0.426018,-0.221052 0.10753,-0.05395 0.190959,-0.0895 0.189491,-0.08899 0.2674,-0.09279 0.409117,-0.140224 0.554249,-0.139226 z" /><path
   id="Selection"
   fill="none"
   stroke="#000000"
   stroke-width="0.234303"
   d="m 16.929108,0.97279384 c 1.599051,-0.31982815 2.383408,0.49856266 3.73501,1.24639606 0,0 6.069404,3.5251711 6.069404,3.5251711 0,0 2.936654,1.5732788 2.936654,1.5732788 0.655961,0.1152326 2.710221,-1.1923073 3.366181,-1.5709272 0,0 5.835959,-3.3864222 5.835959,-3.3864222 0.821698,-0.4891488 2.334384,-1.45804689 3.268134,-1.48391525 0.905746,-0.023517 1.80915,0.65847665 2.567822,1.10529555 0,0 4.201893,2.4057727 4.201893,2.4057727 0,0 7.470029,4.2283223 7.470029,4.2283223 2.231669,1.3381112 3.46656,1.4815633 3.501576,4.4211663 0,0 0,13.874931 0,13.874931 -0.0022,1.004167 0.06304,1.954246 -0.585928,2.798504 -0.681646,0.88658 -4.297606,2.772635 -5.483468,3.452269 -0.690983,0.39273 -1.70177,0.820738 -2.096278,1.533301 -0.284795,0.517368 -0.238108,1.27696 -0.238108,1.857825 0,0 0,12.699092 0,12.699092 -0.0044,3.494598 -1.63874,3.5675 -4.435331,5.140782 0,0 -8.403779,4.835059 -8.403779,4.835059 -0.908075,0.524425 -3.573939,2.135324 -4.435331,2.328162 -1.253562,0.28456 -3.774696,-1.413359 -4.9022,-2.055363 0,0 -9.104102,-5.239554 -9.104102,-5.239554 -1.115836,-0.616139 -3.373184,-1.679103 -3.828388,-2.894923 -0.165741,-0.444465 -0.140061,-1.161733 -0.140061,-1.643829 0,0 0,-8.466058 0,-8.466058 0,-0.463279 0.02801,-1.204058 -0.140065,-1.625015 -0.394517,-0.99476 -2.852615,-2.151785 -3.828391,-2.66681 0,0 -8.8706587,-5.093737 -8.8706587,-5.093737 -2.2013172,-1.307543 -3.26346543,-1.117055 -3.26813458,-4.019032 0,0 0,-15.05077 0,-15.05077 0,-0.64907 -0.05135592,-1.498026 0.2731216,-2.074187 C 0.87088153,9.890382 3.3943505,8.627524 4.323433,8.1172103 c 0,0 12.605675,-7.14441646 12.605675,-7.14441646 z M 27.667272,8.5687321 c 0,0 -7.003154,-3.9437694 -7.003154,-3.9437694 -0.585929,-0.319828 -2.273687,-1.3616284 -2.801257,-1.4580471 -0.964097,-0.1740241 -3.52025,1.5685759 -4.435326,2.1071098 0,0 -7.7034673,4.3976504 -7.7034673,4.3976504 C 4.8183204,10.16788 2.5703166,11.22143 2.1617996,12.145639 c -0.2054249,0.465639 -0.1727433,1.314596 -0.1727433,1.831965 0,0 0,12.463924 0,12.463924 0,0.649062 -0.049021,1.509777 0.2731218,2.085938 0.4552032,0.808986 2.812931,1.96601 3.6953269,2.452805 0,0 10.271291,5.80866 10.271291,5.80866 0,-1.528592 -0.354834,-3.967289 0.754005,-5.124314 0.623278,-0.651421 4.493687,-2.725601 5.548826,-3.344097 0.466878,-0.27515 1.587385,-0.863067 1.862843,-1.284016 0.291799,-0.446818 0.238105,-1.246399 0.238105,-1.770821 0,0 0,-9.641898 0,-9.641898 0,-1.152329 -0.165739,-3.499309 0.338485,-4.458794 0.508896,-0.96654 1.781136,-1.5732793 2.696212,-2.1259234 0,0 0,-0.4703355 0,-0.4703355 z m -0.93375,17.1672849 c 0,0 4.435324,-2.351675 4.435324,-2.351675 0.702656,-0.404497 1.76013,-1.105297 2.567823,-1.119407 1.062148,-0.02116 3.662653,1.700272 4.668772,2.292893 0,0 9.104093,5.145484 9.104093,5.145484 0.660634,0.380972 3.240121,2.109461 3.735016,2.182363 0.933751,0.136399 3.744348,-1.79904 4.668761,-2.314054 0.50657,-0.282205 1.316598,-0.611439 1.629404,-1.105297 0.289463,-0.458577 0.238107,-1.255796 0.238107,-1.789629 0,0 0,-12.934259 0,-12.934259 0,-0.442115 0.02801,-1.201706 -0.140062,-1.596797 -0.375836,-0.879526 -2.719556,-1.994221 -3.59495,-2.4739632 0,0 -7.936905,-4.536399 -7.936905,-4.536399 -0.992116,-0.5926228 -3.333498,-2.267024 -4.435332,-1.9330862 0,0 -4.43533,2.4974883 -4.43533,2.4974883 0,0 -7.236585,4.1460211 -7.236585,4.1460211 -2.252681,1.291072 -3.263465,1.166432 -3.268136,3.896736 0,0 0,11.993581 0,11.993581 z m 7.003147,-1.488611 c -1.265233,0.265739 -3.240122,1.603846 -4.435322,2.292894 0,0 -7.936907,4.536392 -7.936907,4.536392 -3.263473,1.893106 -3.263473,1.674401 -3.268142,3.830897 0,0 0,13.874929 0,13.874929 0,0.536182 -0.05137,1.328698 0.238106,1.789628 0.34783,0.5503 2.159304,1.467452 2.796588,1.836666 0,0 6.302841,3.628643 6.302841,3.628643 0,0 4.201888,2.389311 4.201888,2.389311 0.555589,0.312772 1.487007,0.975954 2.100948,0.978305 0.595266,0.0023 1.561706,-0.639661 2.100946,-0.940678 0,0 4.201896,-2.361091 4.201896,-2.361091 0,0 5.60252,-3.264134 5.60252,-3.264134 0.711986,-0.373915 2.929654,-1.530943 3.361511,-2.064782 0.452869,-0.554994 0.371167,-1.319289 0.373499,-1.991868 0,0 0,-13.874929 0,-13.874929 -0.0044,-2.730307 -1.020122,-2.626833 -3.268136,-3.849711 0,0 -7.936904,-4.552854 -7.936904,-4.552854 -1.05748,-0.632611 -3.331165,-2.076538 -4.435332,-2.257618 z" /></svg>
