<?xml version="1.0" encoding="UTF-8" standalone="no"?>
<svg
   xmlns:dc="http://purl.org/dc/elements/1.1/"
   xmlns:cc="http://creativecommons.org/ns#"
   xmlns:rdf="http://www.w3.org/1999/02/22-rdf-syntax-ns#"
   xmlns:svg="http://www.w3.org/2000/svg"
   xmlns="http://www.w3.org/2000/svg"
   xmlns:sodipodi="http://sodipodi.sourceforge.net/DTD/sodipodi-0.dtd"
   xmlns:inkscape="http://www.inkscape.org/namespaces/inkscape"
   version="1.1"
   id="Layer_1"
   x="0px"
   y="0px"
   viewBox="0 0 365 560"
   enable-background="new 0 0 365 560"
   xml:space="preserve"
   sodipodi:docname="Map_marker.svg"
   inkscape:version="1.0.2 (e86c870879, 2021-01-15)"><metadata
   id="metadata887"><rdf:RDF><cc:Work
       rdf:about=""><dc:format>image/svg+xml</dc:format><dc:type
         rdf:resource="http://purl.org/dc/dcmitype/StillImage" /></cc:Work></rdf:RDF></metadata><defs
   id="defs885" /><sodipodi:namedview
   pagecolor="#ffffff"
   bordercolor="#666666"
   borderopacity="1"
   objecttolerance="10"
   gridtolerance="10"
   guidetolerance="10"
   inkscape:pageopacity="0"
   inkscape:pageshadow="2"
   inkscape:window-width="1600"
   inkscape:window-height="883"
   id="namedview883"
   showgrid="false"
   inkscape:zoom="1.1267857"
   inkscape:cx="182.5"
   inkscape:cy="235.93311"
   inkscape:window-x="0"
   inkscape:window-y="17"
   inkscape:window-maximized="0"
   inkscape:current-layer="Layer_1" />
<g
   id="g880"
   transform="translate(4.1439215,-7.414338)"
   style="fill:#ffca02;fill-opacity:1">
	<path
   fill="#00aeef"
   d="m 182.9,551.7 c 0,0.1 0.2,0.3 0.2,0.3 0,0 175.2,-269 175.2,-357.4 C 358.3,64.5 269.5,7.9 182.9,7.7 96.3,7.9 7.5,64.5 7.5,194.6 7.5,283 182.8,552 182.8,552 c 0,0 0.1,-0.3 0.1,-0.3 z M 122.2,187.2 c 0,-33.6 27.2,-60.8 60.8,-60.8 33.6,0 60.8,27.2 60.8,60.8 0,33.6 -27.3,60.8 -60.9,60.8 -33.5,0 -60.7,-27.2 -60.7,-60.8 z"
   id="path878"
   style="fill:#ffca02;fill-opacity:1" />
</g>
<path
   id="path1179"
   style="fill:#ffca02;fill-opacity:1;stroke-width:0.685779"
   d="m 207.17304,146.83125 a 0.96526003,0.96526003 0 0 0 -0.29156,0.0614 l -2.93616,1.12219 c -0.93154,0.35603 -2.70676,1.23132 -4.98622,2.41115 -2.27945,1.17979 -5.01161,2.65026 -7.65565,4.12784 -11.04954,6.17484 -28.75254,16.23965 -44.03408,24.99488 -7.64079,4.37762 -14.67696,8.42722 -19.97254,11.5002 -2.64782,1.53647 -4.85936,2.8268 -6.49735,3.7945 -1.63797,0.96771 -2.65486,1.57826 -3.08617,1.875 -1.36806,0.9414 -2.53643,1.42394 -3.47506,2.66396 -0.9386,1.24002 -1.43092,3.00968 -1.73337,6.30289 -0.6048,6.58638 -0.45084,19.6247 -0.37245,48.08967 0.0449,16.13824 0.13956,28.91041 0.28045,37.75618 0.0707,4.42291 0.1529,7.86232 0.24446,10.25849 0.0458,1.19812 0.095,2.13563 0.1471,2.81395 0.0267,0.33912 0.0525,0.61232 0.0835,0.8361 0.031,0.22401 -0.0178,0.30667 0.18621,0.68615 0.2009,0.376 0.4507,0.62796 0.78335,0.9528 0.33245,0.32489 0.74379,0.68304 1.21394,1.06388 0.94023,0.76171 2.11643,1.6143 3.33337,2.39448 1.11846,0.71709 4.93514,2.94592 10.48072,6.15014 5.54564,3.20418 12.77419,7.35215 20.5559,11.79742 15.56345,8.8905 33.33347,18.96643 44.24798,25.05592 a 0.96526003,0.96526003 0 0 0 0.002,0 0.96526003,0.96526003 0 0 0 0.0863,0.0444 c 2.89772,1.61437 5.72519,3.088 7.96121,4.15837 1.13011,0.54098 2.10857,0.97957 2.88617,1.29171 0.3889,0.15601 0.72793,0.28133 1.02225,0.37244 0.29422,0.0907 0.50858,0.16224 0.85281,0.1609 0.72058,-0.002 1.54512,-0.21466 2.53336,-0.52223 0.98824,-0.30756 2.08323,-0.72276 3.08338,-1.18891 2.31523,-1.07903 9.3315,-4.90921 18.70585,-10.15293 9.37436,-5.24376 21.03715,-11.87036 32.39499,-18.42808 9.60965,-5.54838 19.96656,-11.43075 22.93925,-13.03357 4.72492,-2.54759 8.23336,-4.71303 10.70851,-6.65008 2.47519,-1.93709 3.96796,-3.64244 4.46952,-5.45013 0.13245,-0.47676 0.1529,-0.96859 0.20845,-1.84721 0.0552,-0.8787 0.10359,-2.04573 0.14978,-3.46678 0.0929,-2.84204 0.16934,-6.70013 0.23067,-11.24183 0.12222,-9.08338 0.18267,-20.89932 0.18045,-32.75056 -0.002,-11.85118 -0.0655,-23.7344 -0.19156,-32.95053 -0.0631,-4.60802 -0.14222,-8.54807 -0.23601,-11.48909 -0.0471,-1.47046 -0.0973,-2.69031 -0.15289,-3.62504 -0.0556,-0.93476 -0.0987,-1.53602 -0.19421,-1.98336 -0.60837,-2.83927 -1.43791,-4.94202 -3.08339,-6.75569 -1.64548,-1.81367 -4.01161,-3.29618 -7.66677,-5.1945 -5.67963,-2.94975 -46.96344,-26.28087 -62.66216,-35.42282 -3.42924,-1.99695 -9.35573,-5.15375 -13.24743,-7.0557 l -7.01955,-3.43058 a 0.96526003,0.96526003 0 0 0 -0.4778,-0.0973 z" /><path
   id="path1177"
   style="fill:#ffca02;fill-opacity:1;stroke-width:0.685779"
   d="m 258.52389,20.251365 c -1.99194,0 -4.62038,0.960457 -11.22518,4.386193 -6.60476,3.425692 -17.20575,9.368219 -35.00612,19.489204 -15.26694,8.680475 -30.79448,17.418196 -34.43671,19.37809 -4.14686,2.231497 -6.80707,3.817741 -8.61959,5.313984 -1.81246,1.496244 -2.76879,2.957019 -3.32781,4.694509 -0.21956,0.682634 -0.30934,1.727359 -0.42491,3.575073 -0.11555,1.847714 -0.21556,4.415484 -0.30533,7.783485 -0.18,6.73596 -0.31333,16.675877 -0.41645,30.417177 l -0.29155,39.00064 a 0.8122292,0.8122292 0 0 0 1.20281,0.71666 l 4.34174,-2.38336 c 2.36994,-1.29984 10.64664,-5.71842 18.36137,-9.80293 9.98574,-5.28687 14.86381,-7.81887 19.79757,-7.5557 4.93375,0.26311 10.33098,3.3688 21.24757,9.77239 5.86134,3.43819 22.04791,12.63689 36.0006,20.45865 13.94419,7.81699 28.54772,16.21249 32.33942,18.58368 3.8713,2.42092 8.78821,5.30718 11.02518,6.464 1.12334,0.5809 2.33167,1.10485 3.40009,1.49166 1.06837,0.38667 1.92233,0.65179 2.65559,0.65837 a 0.8122292,0.8122292 0 0 0 0.002,0 c 0.84809,0.01 1.84338,-0.30446 3.16395,-0.80282 1.3205,-0.49832 2.91399,-1.20325 4.69169,-2.06113 3.55542,-1.71577 7.84064,-4.03463 12.0252,-6.46956 4.18459,-2.43492 8.26447,-4.98554 11.40576,-7.16682 1.57068,-1.09058 2.90577,-2.08601 3.91397,-2.94447 1.00819,-0.85842 1.69603,-1.47457 2.01388,-2.27781 a 0.8122292,0.8122292 0 0 0 0,-0.002 c 0.16311,-0.41245 0.16534,-0.71166 0.22224,-1.29723 0.0568,-0.5856 0.10883,-1.35846 0.16089,-2.30562 0.10484,-1.89425 0.20444,-4.48065 0.29422,-7.58069 0.18,-6.20005 0.32712,-14.44611 0.42489,-23.23369 0.19556,-17.57519 0.19291,-37.300486 -0.14444,-47.145244 l -0.51367,-14.986584 a 0.8122292,0.8122292 0 0 0 -0.20002,-0.508362 l -1.90281,-2.163896 c -2.4544,-2.792475 -7.96599,-6.027941 -41.68402,-25.008738 -13.94647,-7.850819 -27.1497,-15.410969 -29.09493,-16.644719 -3.96342,-2.513768 -8.46515,-4.95309 -12.3391,-6.775115 -1.93702,-0.911035 -3.71555,-1.668424 -5.20288,-2.202831 -1.48731,-0.534408 -2.63648,-0.863879 -3.5556,-0.863879 z" /><path
   id="path352"
   style="fill:#ffca02;fill-opacity:1;stroke-width:0.685779"
   d="m 108.50198,13.442915 c -1.28796,0 -3.29885,0.207114 -5.16398,0.797256 -1.86514,0.590274 -3.702003,1.432286 -6.239011,2.72506 -5.073895,2.585546 -13.061608,7.114408 -28.017111,15.641905 -13.366894,7.621661 -27.949893,15.866397 -32.117198,18.161407 -10.496899,5.78079 -16.545066,9.191549 -20.847525,12.419638 -4.302507,3.228133 -7.1300137,7.572994 -8.1418092,11.219668 -0.5999119,2.162428 -0.3715624,2.176383 -0.4333316,3.13893 -0.062193,0.962548 -0.111078,2.127364 -0.1582294,3.527827 -0.094707,2.800883 -0.1715637,6.515246 -0.2333329,10.877929 -0.1240115,8.725405 -0.1871128,20.013525 -0.1888913,31.306085 -0.00119,11.29258 0.05642,22.58129 0.177771,31.30607 0.060427,4.36242 0.1368974,8.07749 0.2306716,10.87798 0.047116,1.40024 0.096463,2.56546 0.1582294,3.52783 0.061846,0.96237 -0.1680067,0.97161 0.4333326,3.13893 2.0920388,7.53904 8.1584758,11.20997 17.4002458,16.3864 3.892816,2.18039 20.976873,11.76501 37.942256,21.28368 9.691912,5.43781 17.480682,9.7159 22.964278,12.61688 2.741813,1.45046 4.88981,2.55035 6.525112,3.32783 0.817661,0.38888 1.474384,0.6904 2.238918,0.98059 0.382223,0.1449 0.735888,0.29378 1.552825,0.46943 0.408439,0.0875 0.902777,0.22266 2.019449,0.18045 1.116731,-0.0443 3.850191,-0.15823 6.025101,-3.27788 1.55749,-2.23389 1.19016,-2.55095 1.30002,-3.06115 0.10979,-0.51013 0.15823,-0.87738 0.20579,-1.25833 0.095,-0.76191 0.15511,-1.53406 0.20843,-2.4195 0.10626,-1.77087 0.16934,-3.93658 0.17246,-6.24733 0.0133,-8.4015 1.46376,-12.61849 2.33892,-13.7669 0.29645,-0.38934 6.33644,-5.10251 24.64207,-15.35021 4.2369,-2.3719 8.34451,-4.76491 11.61407,-6.75014 1.63484,-0.9926 3.05427,-1.87856 4.21678,-2.63892 1.16246,-0.76038 1.80344,-1.09179 3.07226,-2.24729 l 2.36114,-2.15002 a 7.6195922,7.6195922 0 0 0 2.48893,-5.56399 l 0.0804,-8.82791 c 0.30354,-33.68819 0.54982,-54.250256 0.86948,-66.615006 0.15999,-6.182353 0.34266,-10.32721 0.53888,-12.905735 0.19601,-2.578569 0.81246,-3.970633 0.13334,-2.438967 0.71752,-1.618245 3.14187,-4.475217 8.33906,-7.727885 1.51517,-0.948325 2.87741,-1.868827 4.01115,-2.711149 0.56691,-0.421338 1.06117,-0.800233 1.62506,-1.308373 0.28179,-0.254226 0.5757,-0.512852 1.03055,-1.05557 0.45489,-0.542718 1.8806,-0.585653 1.8806,-5.075092 0,-2.822663 -1.20081,-4.410106 -1.95283,-5.338964 -0.75201,-0.928901 -1.38073,-1.445219 -2.03057,-1.963939 -1.29975,-1.037391 -2.74692,-1.980871 -4.84176,-3.269466 -4.1897,-2.577237 -10.86948,-6.383822 -21.74478,-12.483551 -14.08749,-7.901354 -21.42461,-12.008922 -26.07824,-14.336331 -2.32683,-1.16375 -4.02508,-1.923449 -5.81123,-2.452834 -1.78611,-0.52943 -3.68713,-0.669476 -4.79727,-0.669476 z" /><path
   id="path348"
   style="fill:#000000;fill-opacity:1;stroke-width:0.969414"
   d="M 110.30103,5.4535147 C 109.2212,5.3317359 107.96753,5.3370655 106.39472,5.7832979 104.8219,6.2295263 102.87284,7.0542932 99.858174,8.5611131 93.828812,11.574754 83.5111,17.327724 64.041679,28.248898 37.856434,42.937235 23.981305,50.749475 16.202529,55.332606 8.4237088,59.915735 6.5642611,61.415445 4.8655285,63.188625 l -2.6736359,2.786484 a 1.7676086,1.7676086 0 0 0 -0.4948082,1.223972 v 54.948679 c 0,30.99621 -0.1048369,45.70001 0.8246717,53.55109 0.4646769,3.92557 1.2156696,6.29342 2.6042211,7.99491 1.3885515,1.70146 3.0928438,2.42488 4.9913518,3.48965 2.255769,1.26508 18.069103,10.14636 35.13071,19.73984 17.063221,9.59439 34.803153,19.53911 39.462326,22.11834 4.522289,2.50347 9.884449,6.26605 11.232831,7.65638 l 2.70834,2.79515 0.468777,34.42759 c 0.224876,16.28938 0.381776,25.11887 0.703115,30.30425 0.160888,2.59269 0.361792,4.27951 0.668462,5.59033 0.30666,1.31087 0.7731,2.27136 1.27601,3.03826 1.70687,2.60284 2.60048,4.17549 9.27968,8.37683 6.67916,4.2014 19.45098,11.45513 46.00757,26.58895 9.96272,5.67746 19.63899,11.09006 27.20521,15.24323 7.5663,4.15321 12.7809,6.95019 14.68772,7.7345 1.57542,0.64798 3.2648,1.23317 4.76571,1.6667 1.50087,0.43334 2.688,0.74415 3.79344,0.75521 2.38754,0.0223 5.1863,-1.1942 12.61301,-5.11292 7.42677,-3.91877 19.41982,-10.67912 39.48843,-22.13572 9.37381,-5.35128 18.46523,-10.50069 25.56456,-14.48807 7.09934,-3.98739 12.30373,-6.86281 13.54184,-7.48272 7.9966,-4.00398 12.07466,-7.50424 14.50545,-12.76059 1.03018,-2.22776 1.66801,-4.20157 1.97052,-10.49499 0.30221,-6.29333 0.3871,-17.22983 0.51212,-38.32516 0.14223,-23.99383 0.25245,-45.3544 0.24313,-47.68296 -0.01,-2.74702 0.39467,-4.14943 3.02956,-6.5452 2.63465,-2.3958 7.61743,-5.45101 16.17207,-10.19112 8.4235,-4.66748 17.83421,-10.2153 21.22426,-12.55226 2.38167,-1.64181 4.29099,-2.72253 5.86812,-4.53131 1.57717,-1.80878 2.55692,-4.22161 3.12506,-7.96886 1.13624,-7.49456 0.97447,-20.90913 0.97225,-49.64479 -9.9e-4,-14.89705 -0.0996,-27.731582 -0.2689,-37.109889 -0.085,-4.689177 -0.19467,-8.514074 -0.31244,-11.310912 -0.0591,-1.398464 -0.11427,-2.533769 -0.18223,-3.411515 -0.0679,-0.877744 -0.0983,-1.381041 -0.26889,-1.996561 -0.68583,-2.468479 -2.55942,-5.34114 -4.58341,-7.300456 -0.43156,-0.417783 -0.89911,-0.734099 -1.63198,-1.232639 -0.73285,-0.498585 -1.68269,-1.118105 -2.8299,-1.840337 -2.29442,-1.444375 -5.38616,-3.320535 -9.06262,-5.503542 -7.35289,-4.366016 -17.04352,-9.952494 -27.3181,-15.729373 C 299.35539,26.327804 278.42163,14.442484 273.48036,11.538578 270.92118,10.0346 268.19785,8.6223595 265.82399,7.5367898 263.45017,6.4512617 261.60179,5.685074 260.0687,5.479471 c -2.70127,-0.3622275 -5.45167,0.055557 -10.97236,2.7170597 -5.5207,2.6613263 -14.18434,7.5940163 -29.71393,16.5800973 -13.28276,7.685928 -21.86093,12.537151 -27.43095,15.442924 -5.57005,2.905773 -8.28536,3.746408 -8.94978,3.750052 0.26534,-0.0014 -0.15911,-0.02666 -0.72049,-0.234224 -0.56117,-0.208893 -1.357,-0.551298 -2.36116,-1.024327 -2.00824,-0.946101 -4.86276,-2.418299 -8.59384,-4.435838 C 163.864,34.240181 152.86608,28.008095 137.75799,19.26455 129.45445,14.458973 123.49291,11.135771 119.19005,8.9518749 114.88715,6.7680221 112.34862,5.6843628 110.30103,5.453604 Z M 257.90721,20.375589 c 1.97901,0 3.81299,0.419561 10.18246,3.663251 6.36946,3.243644 16.99774,9.230883 35.98139,20.052364 21.5918,12.308217 32.9224,18.788573 39.07173,22.51769 3.07466,1.864516 4.85447,3.039644 5.92889,3.871566 1.07446,0.831922 1.42379,1.255974 1.91843,1.918426 0.44933,0.601742 0.59636,0.763256 0.82467,1.762202 0.22845,0.998904 0.42133,2.796795 0.5469,6.015684 0.25111,6.437822 0.26045,18.547102 0.26045,42.153388 0,23.40872 -0.0133,35.52125 -0.26045,42.00577 -0.12311,3.24228 -0.31379,5.08341 -0.53824,6.1112 -0.22444,1.02776 -0.36267,1.18598 -0.78125,1.74483 -0.10305,0.13779 -1.50153,1.39514 -3.41151,2.74311 -1.90994,1.34793 -4.42771,2.99257 -7.231,4.72224 -5.60655,3.45943 -12.37288,7.28228 -17.81273,9.95675 -1.51126,0.743 -3.24049,1.43518 -4.757,1.9271 -1.51656,0.49197 -2.92475,0.75513 -3.29866,0.75526 -0.35467,4e-5 -2.04302,-0.43777 -4.36638,-1.54517 -2.32336,-1.10744 -5.40722,-2.80707 -9.23626,-5.11292 -6.37457,-3.83881 -23.31307,-13.57907 -37.73487,-21.69302 -14.40629,-8.10522 -31.12199,-17.58757 -37.09256,-21.05064 -3.03564,-1.76074 -6.2703,-3.49506 -9.06262,-4.87856 -2.7923,-1.38348 -5.02856,-2.39901 -6.53652,-2.82119 -2.49095,-0.69744 -4.63275,-1.09602 -8.5852,0.48609 -3.95244,1.58216 -10.17965,4.94415 -22.81281,11.71025 -4.24422,2.27315 -8.19468,4.3321 -11.12863,5.8247 -1.15749,0.58886 -2.00336,1.00343 -2.7952,1.38891 -0.0133,-0.27245 -0.031,-0.40134 -0.0444,-0.72044 -0.0804,-2.07506 -0.14401,-5.10738 -0.19112,-8.85432 -0.0937,-7.49387 -0.11202,-17.84909 -0.0355,-29.23653 0.16133,-23.723399 0.20532,-35.241469 1.23267,-41.042216 0.51365,-2.900397 1.18474,-4.237037 2.15278,-5.260519 0.96812,-1.02348 2.47342,-1.841179 4.75705,-3.151065 2.58845,-1.484733 22.1804,-12.534218 43.41202,-24.479494 15.80752,-8.893589 25.62152,-14.312421 31.81472,-17.491576 6.19316,-3.179154 8.87113,-3.993121 9.62684,-3.993121 z M 105.8652,20.705371 c 1.47953,-0.277782 4.44681,-0.165335 5.74661,0.191113 -0.0551,-0.01334 0.38267,0.149335 0.92881,0.399116 0.54593,0.249783 1.28019,0.601922 2.1615,1.041705 1.7626,0.879523 4.12818,2.106296 6.91849,3.585115 5.58062,2.957598 12.86245,6.924852 20.4777,11.180689 8.16278,4.561841 14.24274,7.934199 18.55934,10.52099 4.31655,2.586835 6.87912,4.46495 7.82997,5.590344 0.47537,0.562719 0.50418,0.815656 0.50346,0.885434 -7.4e-4,0.06978 -0.0177,0.240893 -0.40799,0.66841 -0.78156,0.854678 -2.88476,2.202829 -5.7032,3.993122 -2.89145,1.836692 -5.12584,3.004841 -6.97058,4.783043 -1.84473,1.778246 -3.07733,4.156325 -3.79344,7.725796 -1.43223,7.138944 -1.33289,19.570849 -1.61459,46.528422 l -0.47747,45.54752 -2.24825,1.79692 c -0.59019,0.47107 -2.58724,1.784 -5.06954,3.28995 -2.48231,1.50603 -5.52666,3.27343 -8.50706,4.93066 -6.03532,3.35585 -15.18985,8.70286 -20.42565,11.92722 -6.15911,3.793 -9.7669,6.22876 -11.84044,10.09565 -2.073545,3.86685 -2.362607,8.59719 -2.638914,16.79709 -0.109308,3.2412 -0.281781,6.18456 -0.460067,8.28135 -0.03561,0.39956 -0.0614,0.58664 -0.09552,0.92019 -0.185328,-0.10051 -0.277338,-0.14711 -0.486135,-0.26045 -1.620949,-0.88106 -3.929291,-2.15016 -6.744896,-3.70662 -5.63114,-3.11298 -13.273774,-7.36468 -21.441277,-11.92723 -16.33489,-9.12515 -34.783236,-19.49939 -43.446778,-24.47087 -4.670865,-2.68032 -7.578458,-4.75879 -9.349067,-6.76224 -1.770551,-2.00345 -2.525761,-3.92081 -2.942743,-6.84903 -0.173779,-1.22116 -0.40756,-7.27463 -0.52952,-15.18251 -0.121786,-7.9079 -0.185782,-17.92898 -0.191118,-28.00386 -0.0048,-10.0749 0.05065,-20.19922 0.164897,-28.333732 0.114258,-8.134512 0.307554,-14.411222 0.512181,-16.250224 0.468494,-4.21348 1.093484,-6.344311 3.715292,-8.949769 2.621866,-2.605502 7.498996,-5.608167 16.232848,-10.425523 7.568089,-4.174279 26.114697,-14.662513 41.259302,-23.342323 7.553983,-4.329393 14.810029,-8.339137 20.390909,-11.302245 2.790391,-1.481532 5.163366,-2.705459 6.935836,-3.567737 0.88627,-0.431118 1.62326,-0.772456 2.17015,-1.006993 0.54695,-0.23467 1.00008,-0.361782 0.87678,-0.33867 z M 206.86486,147.695 c 0.88424,0.004 1.78904,0.30312 3.49832,0.88544 0.16579,0.0564 1.85843,0.83186 4.09725,1.99656 2.23884,1.16464 5.22439,2.76772 8.74145,4.68753 7.0342,3.83965 16.18232,8.95314 25.73823,14.40127 19.13497,10.9094 37.82915,21.42772 41.85823,23.52463 4.79388,2.49493 7.25339,4.49269 8.52441,6.53653 l 1.91841,3.08165 v 51.05972 50.84276 l -2.13543,2.23092 c -1.16343,1.21454 -4.69592,3.88024 -7.3699,5.45146 -6.01121,3.53221 -57.23091,32.66725 -71.24229,40.5214 -2.67479,1.49935 -5.52496,2.92026 -7.92549,3.9844 -2.40048,1.06416 -4.54637,1.76555 -5.00006,1.82297 -1.1585,0.14666 -0.98962,0.32 -2.1007,-0.0178 -1.11109,-0.33732 -3.37854,-1.36356 -7.91679,-3.79342 -9.07652,-4.85972 -27.35099,-15.28719 -65.79084,-37.16198 -3.86598,-2.2 -7.70781,-4.46074 -10.76403,-6.31951 -3.05626,-1.85882 -5.4464,-3.41761 -5.97231,-3.83689 l -2.18753,-1.74479 -0.26046,-50.85142 c -0.0965,-18.64371 -0.0903,-31.75213 0.0444,-40.41722 0.0667,-4.33259 0.16624,-7.55344 0.29512,-9.78311 0.0645,-1.11486 0.1329,-1.98479 0.20846,-2.59555 0.0752,-0.61077 0.20534,-1.02157 0.15643,-0.90281 0.14224,-0.34313 0.88483,-1.34455 2.15284,-2.43924 1.26798,-1.09468 3.03867,-2.35932 5.17367,-3.67192 7.55873,-4.64718 27.47865,-16.05479 45.91211,-26.424 9.2167,-5.18462 18.07162,-10.10971 24.84407,-13.81962 3.38623,-1.85496 6.25267,-3.41085 8.37682,-4.53131 1.06211,-0.56027 1.94043,-1.01069 2.59556,-1.33687 0.65512,-0.32621 1.16343,-0.54124 1.15449,-0.53818 1.62915,-0.56125 2.49258,-0.84805 3.37681,-0.84201 z" /><path
   id="Selection"
   fill="none"
   stroke="#000000"
   stroke-width="1.42225"
   d="m 104.38802,6.1689027 c 9.74237,-1.9342495 14.52114,3.0151971 22.75591,7.5379263 0,0 36.97843,21.319452 36.97843,21.319452 0,0 17.89185,9.514841 17.89185,9.514841 3.9965,0.6969 16.51227,-7.21081 20.50877,-9.500619 0,0 35.55614,-20.480329 35.55614,-20.480329 5.00629,-2.958263 14.22247,-8.8179442 19.91143,-8.9743902 5.51834,-0.1422239 11.02242,3.9823209 15.6447,6.6845822 0,0 25.60044,14.549579 25.60044,14.549579 0,0 45.51187,25.571953 45.51187,25.571953 13.59665,8.0926 21.12035,8.960168 21.33369,26.738237 0,0 0,83.912495 0,83.912495 -0.0133,6.07298 0.38401,11.81884 -3.56983,16.92473 -4.15299,5.36184 -26.18357,16.76828 -33.40855,20.87856 -4.20988,2.37514 -10.3682,4.96363 -12.77178,9.27306 -1.73513,3.12893 -1.45069,7.72277 -1.45069,11.23571 0,0 0,76.80129 0,76.80129 -0.0267,21.13455 -9.98418,21.57545 -27.02268,31.0903 0,0 -51.20085,29.24137 -51.20085,29.24137 -5.53252,3.17161 -21.77456,12.91396 -27.02267,14.08021 -7.63745,1.72095 -22.9977,-8.54768 -29.86713,-12.43039 0,0 -55.46762,-31.68766 -55.46762,-31.68766 -6.79833,-3.72627 -20.55144,-10.15484 -23.32481,-17.50784 -1.009796,-2.68803 -0.85334,-7.02591 -0.85334,-9.94151 0,0 0,-51.20085 0,-51.20085 0,-2.80181 0.17067,-7.28187 -0.853361,-9.82772 -2.403636,-6.01609 -17.379831,-13.01352 -23.324843,-16.12828 0,0 -54.045338,-30.80579 -54.045338,-30.80579 -13.4117374,-7.90773 -19.8829768,-6.7557 -19.9114238,-24.30621 0,0 0,-91.023716 0,-91.023716 0,-3.925433 -0.31289,-9.059726 1.6640197,-12.544218 2.9013744,-5.063181 18.2758511,-12.700666 23.9363771,-15.78693 0,0 76.801289,-43.2078433 76.801289,-43.2078433 z m 65.4233,45.9385463 c 0,0 -42.66739,-23.851041 -42.66739,-23.851041 -3.56983,-1.934248 -13.85267,-8.234825 -17.06693,-8.817944 -5.87386,-1.052459 -21.447467,9.486398 -27.022656,12.743332 0,0 -46.934112,26.596012 -46.934112,26.596012 -5.518352,3.000932 -19.214533,9.372575 -21.70346,14.961985 -1.251571,2.816084 -1.052456,7.950378 -1.052456,11.07931 0,0 0,75.379047 0,75.379047 0,3.92538 -0.298672,9.13079 1.66402,12.61529 2.77337,4.89256 17.138054,11.88999 22.514136,14.83402 0,0 62.578828,35.12948 62.578828,35.12948 0,-9.24459 -2.161859,-23.99328 4.59384,-30.99071 3.79738,-3.93965 27.37823,-16.48383 33.80677,-20.22436 2.84449,-1.66404 9.67129,-5.21963 11.34954,-7.76544 1.77781,-2.70226 1.45069,-7.53794 1.45069,-10.70953 0,0 0,-58.312059 0,-58.312059 0,-6.96903 -1.00979,-21.163049 2.06225,-26.965796 3.10049,-5.845414 10.85175,-9.514842 16.42693,-12.857111 0,0 0,-2.844485 0,-2.844485 z m -5.68896,103.823931 c 0,0 27.02264,-14.22241 27.02264,-14.22241 4.28099,-2.44631 10.72375,-6.6846 15.6447,-6.76993 6.47124,-0.12801 22.31507,10.28287 28.44494,13.86691 0,0 55.46757,31.11874 55.46757,31.11874 4.02497,2.30404 19.74075,12.75756 22.75595,13.19845 5.68896,0.82491 22.81279,-10.8802 28.44488,-13.99489 3.08632,-1.70671 8.02149,-3.69784 9.92729,-6.68459 1.76358,-2.77337 1.45069,-7.59477 1.45069,-10.82327 0,0 0,-78.223529 0,-78.223529 0,-2.673814 0.17067,-7.267656 -0.85334,-9.657068 -2.28981,-5.319183 -16.56916,-12.060611 -21.90258,-14.961985 0,0 -48.35636,-27.435133 -48.35636,-27.435133 -6.04456,-3.584051 -20.30965,-13.710457 -27.02269,-11.690876 0,0 -27.02267,15.104255 -27.02267,15.104255 0,0 -44.08959,25.074214 -44.08959,25.074214 -13.72468,7.808109 -19.88298,7.05432 -19.91143,23.566593 0,0 0,72.534519 0,72.534519 z m 42.66734,-9.00279 c -7.70855,1.60713 -19.74075,9.6997 -27.02263,13.86691 0,0 -48.35637,27.43509 -48.35637,27.43509 -19.88302,11.44908 -19.88302,10.1264 -19.91147,23.16841 0,0 0,83.91249 0,83.91249 0,3.24271 -0.31289,8.03567 1.45069,10.82327 2.11918,3.32809 13.15577,8.87482 17.03849,11.10775 0,0 38.40066,21.94523 38.40066,21.94523 0,0 25.60041,14.45002 25.60041,14.45002 3.38498,1.89158 9.05973,5.90235 12.80022,5.91657 3.62672,0.0133 9.51485,-3.86853 12.80022,-5.68901 0,0 25.60045,-14.27935 25.60045,-14.27935 0,0 34.1339,-19.74076 34.1339,-19.74076 4.33784,-2.26136 17.84919,-9.2588 20.48032,-12.48734 2.75915,-3.35649 2.26138,-7.97877 2.27559,-12.04638 0,0 0,-83.91249 0,-83.91249 -0.0266,-16.51228 -6.21519,-15.8865 -19.91144,-23.2822 0,0 -48.35635,-27.53464 -48.35635,-27.53464 -6.4428,-3.82589 -20.29544,-12.55844 -27.02269,-13.65357 z" /></svg>
